<svg width="20" height="20" viewBox="0 0 20 20" fill="none" xmlns="http://www.w3.org/2000/svg">
<path d="M11.645 10L18.995 2.66167C19.2147 2.44198 19.3381 2.14402 19.3381 1.83334C19.3381 1.52265 19.2147 1.22469 18.995 1.005C18.7753 0.785315 18.4774 0.661896 18.1667 0.661896C17.856 0.661896 17.558 0.785315 17.3383 1.005L10 8.355L2.66168 1.005C2.44199 0.785315 2.14403 0.661896 1.83334 0.661896C1.52266 0.661896 1.2247 0.785315 1.00501 1.005C0.785322 1.22469 0.661903 1.52265 0.661903 1.83334C0.661903 2.14402 0.785322 2.44198 1.00501 2.66167L8.35501 10L1.00501 17.3383C0.89566 17.4468 0.808867 17.5758 0.749637 17.718C0.690407 17.8602 0.659912 18.0127 0.659912 18.1667C0.659912 18.3207 0.690407 18.4732 0.749637 18.6153C0.808867 18.7575 0.89566 18.8865 1.00501 18.995C1.11347 19.1044 1.2425 19.1911 1.38467 19.2504C1.52684 19.3096 1.67933 19.3401 1.83334 19.3401C1.98736 19.3401 2.13985 19.3096 2.28202 19.2504C2.42419 19.1911 2.55322 19.1044 2.66168 18.995L10 11.645L17.3383 18.995C17.4468 19.1044 17.5758 19.1911 17.718 19.2504C17.8602 19.3096 18.0127 19.3401 18.1667 19.3401C18.3207 19.3401 18.4732 19.3096 18.6154 19.2504C18.7575 19.1911 18.8866 19.1044 18.995 18.995C19.1044 18.8865 19.1912 18.7575 19.2504 18.6153C19.3096 18.4732 19.3401 18.3207 19.3401 18.1667C19.3401 18.0127 19.3096 17.8602 19.2504 17.718C19.1912 17.5758 19.1044 17.4468 18.995 17.3383L11.645 10Z" fill="#3D52D5"/>
</svg>
