<svg width="107" height="23" viewBox="0 0 107 23" fill="none" xmlns="http://www.w3.org/2000/svg">
<path d="M8.672 20.92C11.936 20.92 14.56 18.264 14.56 15.032C14.56 11.768 11.936 9.08 8.672 9.08C5.44 9.08 2.784 11.768 2.784 15.032C2.784 18.264 5.44 20.92 8.672 20.92ZM0.704 15.032C0.704 10.584 4.288 7 8.672 7C11.008 7 13.12 8.024 14.56 9.624V1.112C14.56 0.535999 15.04 0.0559998 15.616 0.0559998C16.192 0.0559998 16.672 0.535999 16.672 1.112V15.032C16.672 19.416 13.088 23 8.672 23C4.288 23 0.704 19.416 0.704 15.032ZM33.023 23C32.447 23 31.999 22.52 31.999 21.944V15C31.999 11.736 29.343 9.08 26.079 9.08C22.815 9.08 20.159 11.736 20.159 15V21.944C20.159 22.52 19.711 23 19.135 23C18.559 23 18.079 22.52 18.079 21.944V15C18.079 10.584 21.663 7 26.079 7C30.495 7 34.079 10.584 34.079 15V21.944C34.079 22.52 33.599 23 33.023 23ZM43.4533 7C47.8373 7 51.3893 10.616 51.3893 15.032C51.3893 15.576 50.8453 16.088 50.3653 16.088H41.5653C41.0533 16.088 40.6373 15.672 40.6373 15.16C40.6373 14.584 41.0533 14.168 41.5653 14.168H49.2453C48.8293 11.288 46.4293 9.112 43.4533 9.112C40.1573 9.112 37.5653 11.736 37.5653 15.032C37.5653 18.264 40.1573 20.92 43.4533 20.92C45.5653 20.92 47.4853 19.768 48.5413 17.944C48.7973 17.496 49.4373 17.304 49.9493 17.592C50.4613 17.848 50.6213 18.488 50.3333 19C48.9253 21.464 46.3013 23 43.4533 23C39.0373 23 35.4853 19.416 35.4853 15.032C35.4853 10.616 39.0373 7 43.4533 7ZM67.5498 7.256C68.0618 7.512 68.2537 8.12 67.9978 8.632L61.1178 22.424C60.9258 22.776 60.5738 23 60.1898 23C59.7738 23 59.4218 22.776 59.2618 22.424L52.3498 8.632C52.0938 8.12 52.3178 7.512 52.8298 7.256C53.3418 7 53.9498 7.192 54.2057 7.704L60.1898 19.64L66.1418 7.704C66.3978 7.192 67.0378 7 67.5498 7.256ZM83.9293 23C83.3533 23 82.9053 22.52 82.9053 21.944V15C82.9053 11.736 80.2493 9.08 76.9853 9.08C73.7213 9.08 71.0653 11.736 71.0653 15V21.944C71.0653 22.52 70.6173 23 70.0413 23C69.4653 23 68.9853 22.52 68.9853 21.944V15C68.9853 10.584 72.5693 7 76.9853 7C81.4013 7 84.9853 10.584 84.9853 15V21.944C84.9853 22.52 84.5053 23 83.9293 23ZM87.4475 23C86.8395 23 86.3915 22.52 86.3915 21.976V8.024C86.3915 7.48 86.8395 7 87.4475 7C88.0235 7 88.5035 7.48 88.5035 8.024V21.976C88.5035 22.52 88.0235 23 87.4475 23ZM86.3915 3.448V1.688C86.3915 1.08 86.8395 0.599998 87.4475 0.599998C88.0235 0.599998 88.5035 1.08 88.5035 1.688V3.448C88.5035 4.024 88.0235 4.504 87.4475 4.504C86.8395 4.504 86.3915 4.024 86.3915 3.448ZM105.635 21.304C106.019 21.72 105.955 22.424 105.507 22.744C105.315 22.904 105.091 23 104.835 23C104.515 23 104.227 22.872 104.035 22.616L96.8668 14.296L91.5228 18.456C91.3307 18.616 91.1388 18.68 90.9148 18.68C90.6268 18.68 90.3388 18.552 90.1468 18.296C89.9868 18.104 89.9228 17.944 89.9228 17.72V1.112C89.9228 0.504 90.4028 0.0559998 90.9788 0.0559998C91.5548 0.0559998 92.0348 0.504 92.0348 1.112V15.608L102.883 7.192C103.299 6.872 103.939 6.968 104.195 7.384C104.547 7.8 104.483 8.376 104.067 8.728L98.5308 13.08L105.635 21.304Z" fill="#E8EFFF"/>
</svg>
