<svg width="270" height="160" viewBox="0 0 270 160" fill="none" xmlns="http://www.w3.org/2000/svg">
<path d="M251.402 23.7081C225.089 37.3938 218.612 42.1186 204.658 41.4427C205.925 54.9458 203.758 60.2446 197.609 67.8649C209.693 70.3575 225.302 70.3575 258.037 50.5835C279.565 39.4323 267.349 15.4137 251.402 23.7081Z" fill="#6B6DCA"/>
<path d="M205.674 98.3532L138.109 160V123.113C138.61 122.439 148.119 114.018 188.158 77.6359C225.193 43.9829 193.609 10 162.132 31.6535L138.109 17.5051C182.152 -15.8448 213.515 5.71477 225.193 22.5581C248.015 50.4507 221.69 84.7101 205.674 98.3532Z" fill="#C7C8FE"/>
<path d="M70.5441 98.3532L138.109 160V123.113C137.609 122.439 128.099 114.018 88.061 77.6359C51.0254 43.9829 81.9137 10.8465 113.391 32.5C137.414 50.3465 163.891 57.1471 197.39 67C204.109 58.5 206.109 51 204.109 41.5C185.109 38.5 162.109 31.6535 138.109 17.5051C94.0668 -15.8448 62.7032 5.71476 51.0253 22.5581C28.2034 50.4507 54.5287 84.7101 70.5441 98.3532Z" fill="#6B6DCA"/>
<path d="M22.1091 25.4999C59.3906 49.4248 100.557 42.1666 113.891 33C118.69 36.6 132.611 44.4999 139.111 47.4999C84.8906 86.5 22.61 56.9999 14.61 52.4999C-12.3902 35.5 4.189 14 22.1091 25.4999Z" fill="#C7C8FE"/>
</svg>
