<svg width="335" height="147" viewBox="0 0 335 147" fill="none" xmlns="http://www.w3.org/2000/svg">
<path d="M209.502 8.59272C199.966 13.5529 197.618 15.2654 192.561 15.0204C193.02 19.9144 192.234 21.835 190.006 24.5968C194.386 25.5003 200.043 25.5003 211.907 18.3334C219.71 14.2918 215.282 5.58652 209.502 8.59272Z" fill="#6B6DCA"/>
<path d="M192.929 35.647L168.44 57.9901V44.6209C168.622 44.3767 172.068 41.3243 186.58 28.1382C200.003 15.9411 188.556 3.62438 177.147 11.4725L168.44 6.34452C184.403 -5.74276 195.77 2.07125 200.003 8.17593C208.274 18.2853 198.733 30.7022 192.929 35.647Z" fill="#C7C8FE"/>
<path d="M143.952 35.647L168.44 57.9901V44.6209C168.259 44.3767 164.812 41.3243 150.301 28.1382C136.878 15.9411 148.073 3.93117 159.481 11.7792C168.188 18.2475 177.785 20.7123 189.926 24.2834C192.361 21.2026 193.086 18.4844 192.361 15.0412C185.475 13.9539 177.139 11.4725 168.44 6.34452C152.478 -5.74276 141.11 2.07125 136.878 8.17593C128.606 18.2853 138.147 30.7022 143.952 35.647Z" fill="#6B6DCA"/>
<path d="M126.398 9.24209C139.91 17.9134 154.831 15.2828 159.663 11.9604C161.403 13.2652 166.448 16.1284 168.804 17.2157C149.152 31.3509 126.58 20.6589 123.68 19.0279C113.894 12.8665 119.903 5.07408 126.398 9.24209Z" fill="#C7C8FE"/>
<path d="M49.752 94.7918C50.9132 95.373 51.4212 96.7532 50.8406 97.9155L35.1645 129.224C34.8016 130.023 34.0033 130.532 33.0598 130.532C32.1889 130.532 31.3906 130.023 30.9551 129.224L25.512 118.328L20.0689 129.224C19.7061 130.023 18.8352 130.532 17.9643 130.532C17.0934 130.532 16.2951 130.023 15.8596 129.224L0.25605 97.9155C-0.324547 96.7532 0.110901 95.373 1.2721 94.7918C2.43329 94.2107 3.88478 94.6465 4.46538 95.8088L17.9643 122.904L22.8994 113.098L15.3516 97.9155C14.771 96.7532 15.2064 95.373 16.3676 94.7918C17.5288 94.2107 18.9803 94.6465 19.5609 95.8088L33.0598 122.904L46.6313 95.8088C47.2119 94.6465 48.5908 94.2107 49.752 94.7918Z" fill="#9FA1FA"/>
<path d="M71.1519 125.81C78.5545 125.81 84.5782 119.781 84.5782 112.371C84.5782 104.962 78.5545 98.9324 71.1519 98.9324C63.7493 98.9324 57.7256 104.962 57.7256 112.371C57.7256 119.781 63.7493 125.81 71.1519 125.81ZM53.0082 112.371C53.0082 102.347 61.1366 94.2107 71.1519 94.2107C81.1672 94.2107 89.2956 102.347 89.2956 112.371C89.2956 122.396 81.1672 130.532 71.1519 130.532C61.1366 130.532 53.0082 122.396 53.0082 112.371Z" fill="#9FA1FA"/>
<path d="M94.8798 130.532C93.5735 130.532 92.4849 129.442 92.4849 128.135V112.371C92.4849 102.347 100.613 94.2107 110.629 94.2107C115.854 94.2107 120.862 96.4626 124.273 100.385C125.143 101.402 125.071 102.855 124.055 103.727C123.111 104.599 121.587 104.526 120.716 103.509C118.176 100.603 114.475 98.9324 110.629 98.9324C103.226 98.9324 97.2022 104.962 97.2022 112.371V128.135C97.2022 129.442 96.1862 130.532 94.8798 130.532Z" fill="#9FA1FA"/>
<path d="M128.474 130.532C127.168 130.532 126.079 129.442 126.079 128.135V112.371C126.079 102.347 134.207 94.2107 144.223 94.2107C149.448 94.2107 154.456 96.4626 157.867 100.385C158.738 101.402 158.665 102.855 157.649 103.727C156.706 104.599 155.181 104.526 154.311 103.509C151.77 100.603 148.069 98.9324 144.223 98.9324C136.82 98.9324 130.796 104.962 130.796 112.371V128.135C130.796 129.442 129.78 130.532 128.474 130.532Z" fill="#9FA1FA"/>
<path d="M192.332 94.2107C193.638 94.2107 194.727 95.3003 194.727 96.6079V128.135C194.727 138.159 186.598 146.295 176.583 146.295C175.277 146.295 174.188 145.206 174.188 143.898C174.188 142.591 175.277 141.574 176.583 141.574C183.986 141.574 190.009 135.544 190.009 128.135V124.575C186.671 128.207 181.881 130.532 176.583 130.532C166.568 130.532 158.439 122.396 158.439 112.371V96.6079C158.439 95.3003 159.528 94.2107 160.834 94.2107C162.141 94.2107 163.157 95.3003 163.157 96.6079V112.371C163.157 119.781 169.18 125.81 176.583 125.81C183.986 125.81 190.009 119.781 190.009 112.371V96.6079C190.009 95.3003 191.025 94.2107 192.332 94.2107Z" fill="#9FA1FA"/>
<path d="M233.579 126.682C234.45 127.626 234.305 129.224 233.289 129.951C232.853 130.314 232.345 130.532 231.765 130.532C231.039 130.532 230.386 130.241 229.95 129.66L213.694 110.773L201.574 120.217C201.138 120.58 200.703 120.725 200.195 120.725C199.542 120.725 198.888 120.435 198.453 119.853C198.09 119.418 197.945 119.054 197.945 118.546V80.8445C197.945 79.4643 199.034 78.4473 200.34 78.4473C201.646 78.4473 202.735 79.4643 202.735 80.8445V113.752L227.338 94.6465C228.281 93.9201 229.733 94.138 230.313 95.0824C231.112 96.0268 230.966 97.3343 230.023 98.1334L217.468 108.013L233.579 126.682Z" fill="#9FA1FA"/>
<path d="M269.4 130.532C268.094 130.532 267.078 129.442 267.078 128.135V112.371C267.078 104.962 261.054 98.9324 253.652 98.9324C246.249 98.9324 240.225 104.962 240.225 112.371V128.135C240.225 129.442 239.209 130.532 237.903 130.532C236.597 130.532 235.508 129.442 235.508 128.135V112.371C235.508 102.347 243.636 94.2107 253.652 94.2107C263.667 94.2107 271.795 102.347 271.795 112.371V128.135C271.795 129.442 270.707 130.532 269.4 130.532Z" fill="#9FA1FA"/>
<path d="M293.128 125.81C300.531 125.81 306.555 119.781 306.555 112.371C306.555 104.962 300.531 98.9324 293.128 98.9324C285.726 98.9324 279.702 104.962 279.702 112.371C279.702 119.781 285.726 125.81 293.128 125.81ZM274.985 112.371C274.985 102.347 283.113 94.2107 293.128 94.2107C303.144 94.2107 311.272 102.347 311.272 112.371C311.272 122.396 303.144 130.532 293.128 130.532C283.113 130.532 274.985 122.396 274.985 112.371Z" fill="#9FA1FA"/>
<path d="M332.605 125.81C333.911 125.81 335 126.827 335 128.135C335 129.442 333.911 130.532 332.605 130.532C322.59 130.532 314.461 122.396 314.461 112.371V80.8445C314.461 79.5369 315.55 78.4473 316.856 78.4473C318.163 78.4473 319.251 79.5369 319.251 80.8445V94.2107H330.065C331.226 94.2107 332.17 95.155 332.17 96.3173C332.17 97.4796 331.226 98.424 330.065 98.424H319.251V112.371C319.251 119.781 325.202 125.81 332.605 125.81Z" fill="#9FA1FA"/>
</svg>
