<svg width="100" height="100" viewBox="0 0 100 100" fill="none" xmlns="http://www.w3.org/2000/svg">
<circle cx="50" cy="50" r="50" fill="#2C2C2A"/>
<mask id="mask0_906_9871" style="mask-type:alpha" maskUnits="userSpaceOnUse" x="0" y="0" width="100" height="100">
<circle cx="50" cy="50" r="50" fill="#2C2C2A"/>
</mask>
<g mask="url(#mask0_906_9871)">
<path fill-rule="evenodd" clip-rule="evenodd" d="M23.6907 25.0409C23.5227 25.1186 23.4475 25.253 23.4784 25.4202C23.5096 25.589 23.7421 25.8276 24.8578 26.8364C25.2967 27.2332 25.7474 27.6547 25.8593 27.7732C27.0542 29.0376 27.6453 30.468 27.6436 32.0912C27.6426 32.9983 27.471 33.7382 27.0926 34.4675C26.7597 35.109 26.5022 35.46 25.475 36.6722C24.7103 37.5746 24.4387 37.9367 23.9432 38.7143C21.7602 42.1405 20.9233 44.7033 21.0055 47.7108C21.0658 49.9189 21.6264 52.1413 22.6588 54.2648C23.5381 56.0732 24.5854 57.5261 26.0774 59.0072C27.3866 60.3068 28.5989 61.1386 29.8092 61.5678C30.1467 61.6875 30.1683 61.6902 30.87 61.7034C31.5712 61.7166 31.5904 61.715 31.7848 61.6248C32.5407 61.2737 33.2362 60.4868 33.6527 59.5112C33.843 59.0653 33.9586 58.7033 34.1454 57.9681C34.4884 56.6176 34.6076 55.8039 34.6078 54.8123C34.608 53.8391 34.465 53.1077 34.1572 52.5075C33.8858 51.9785 33.5777 51.7804 32.9084 51.7047C32.4274 51.6503 32.1752 51.5804 31.7824 51.3925C31.1133 51.0724 30.423 50.526 29.5903 49.657C29.0515 49.0948 28.7558 48.7256 28.3263 48.0787C27.633 47.0348 27.1327 45.979 26.8106 44.8805C26.5342 43.9377 26.6141 43.1355 27.0782 42.1954C27.3175 41.7105 27.566 41.3183 28.2366 40.3669C28.5688 39.8957 28.9308 39.3601 29.0412 39.1767C29.6668 38.1366 30.1191 36.8223 30.3078 35.496C30.3984 34.8594 30.3877 33.5055 30.2868 32.8455C30.1127 31.706 29.8089 30.7689 29.2788 29.7363C28.3192 27.8671 26.6381 26.1862 24.7853 25.2434C24.3956 25.0451 24.3215 25.0201 24.0779 25.0047C23.8865 24.9926 23.7718 25.0033 23.6907 25.0409Z" fill="#DC4559"/>
<path fill-rule="evenodd" clip-rule="evenodd" d="M76.2214 25.0409C76.3894 25.1186 76.4646 25.253 76.4337 25.4202C76.4025 25.589 76.17 25.8276 75.0543 26.8364C74.6154 27.2332 74.1647 27.6547 74.0528 27.7732C72.8579 29.0376 72.2668 30.468 72.2686 32.0912C72.2695 32.9983 72.4411 33.7382 72.8195 34.4675C73.1524 35.109 73.4099 35.46 74.4371 36.6722C75.2019 37.5746 75.4734 37.9367 75.9689 38.7143C78.1519 42.1405 78.9888 44.7033 78.9066 47.7108C78.8464 49.9189 78.2857 52.1413 77.2533 54.2648C76.374 56.0732 75.3267 57.5261 73.8347 59.0072C72.5255 60.3068 71.3132 61.1386 70.103 61.5678C69.7654 61.6875 69.7439 61.6902 69.0421 61.7034C68.3409 61.7166 68.3217 61.715 68.1273 61.6248C67.3714 61.2737 66.6759 60.4868 66.2595 59.5112C66.0691 59.0653 65.9535 58.7033 65.7668 57.9681C65.4238 56.6176 65.3045 55.8039 65.3043 54.8123C65.3041 53.8391 65.4471 53.1077 65.7549 52.5075C66.0263 51.9785 66.3344 51.7804 67.0038 51.7047C67.4847 51.6503 67.7369 51.5804 68.1297 51.3925C68.7989 51.0724 69.4891 50.526 70.3218 49.657C70.8606 49.0948 71.1563 48.7256 71.5859 48.0787C72.2791 47.0348 72.7794 45.979 73.1015 44.8805C73.3779 43.9377 73.298 43.1355 72.834 42.1954C72.5946 41.7105 72.3461 41.3183 71.6755 40.3669C71.3433 39.8957 70.9813 39.3601 70.8709 39.1767C70.2453 38.1366 69.793 36.8223 69.6043 35.496C69.5137 34.8594 69.5244 33.5055 69.6253 32.8455C69.7994 31.706 70.1032 30.7689 70.6333 29.7363C71.5929 27.8671 73.274 26.1862 75.1268 25.2434C75.5166 25.0451 75.5906 25.0201 75.8342 25.0047C76.0256 24.9926 76.1403 25.0033 76.2214 25.0409Z" fill="#FF7F90"/>
<path d="M66.8874 92.4507C66.8874 107.006 59.8197 107.006 50.9061 107.006C41.9925 107.006 34.6084 106.057 34.6084 92.4507C34.6084 82.7506 40.8849 83.1151 49.7985 83.1151C58.7121 83.1151 66.8874 82.7506 66.8874 92.4507Z" fill="#DC4559"/>
<path d="M64.2233 83.1133C54.2231 87.4171 41.2799 84.9066 36.0583 83.1133C35.2671 87.702 37.0076 100.519 41.5963 102.417C45.2673 103.936 45.6576 95.4552 45.3938 91.0248C47.7989 92.0375 53.2526 91.4467 55.6788 91.0248C55.6788 100.519 58.7379 102.259 60.2675 101.943C66.9765 101.563 65.7001 89.2315 64.2233 83.1133Z" fill="#AA2F3F"/>
<path d="M64.3549 102.101C63.2156 103.873 58.5004 105.793 56.2852 106.532C59.9245 109.222 61.8232 111.279 66.0954 109.696C70.5467 108.047 65.779 99.8859 64.3549 102.101Z" fill="#AA2F3F"/>
<path d="M38.2047 102.164C39.3439 103.936 44.0592 105.856 46.2744 106.594C42.6351 109.284 40.7364 111.341 36.4641 109.759C32.0128 108.11 36.7806 99.9484 38.2047 102.164Z" fill="#AA2F3F"/>
<path d="M63.9009 88.0169C56.9968 90.8296 41.9783 89.1889 35.3321 88.0169C19.5399 77.6704 25.5116 62.1926 30.4715 55.747C57.5523 31.262 71.2415 58.3838 75.1102 67.8011C78.9789 77.2184 72.5311 84.5011 63.9009 88.0169Z" fill="#DC4559"/>
<path d="M47.8571 86.2102C33.2038 87.0147 26.7225 75.9023 25.3135 70.2456C25.3135 80.8048 29.6411 84.7017 35.4783 88.5985C40.148 91.716 53.7279 90.8193 59.9341 89.9813C61.6786 89.688 66.6368 87.9197 72.5143 83.1932C79.8611 77.2851 75.2316 67.8572 75.5335 68.7371C75.7751 69.4411 75.1645 71.5446 74.829 72.5083C72.313 77.9136 66.1739 85.2045 47.8571 86.2102Z" fill="#AA2F3F"/>
<path fill-rule="evenodd" clip-rule="evenodd" d="M38.6857 62.1843C38.6857 62.4457 39.3978 63.1711 40.268 63.7961C41.1383 64.4214 41.8503 64.9932 41.8503 65.067C41.8503 65.1404 41.1301 64.8356 40.2497 64.3898C38.9458 63.729 38.2857 63.5961 36.6895 63.6723C34.9319 63.7562 34.7195 63.8394 34.6287 64.478C34.5281 65.1882 34.7765 65.3246 35.9458 65.2018C36.4281 65.1512 36.4828 65.2679 36.2623 65.8774C36.1157 66.2825 36.0062 67.3388 36.0192 68.2246C36.0382 69.5288 35.9249 69.8895 35.4224 70.1234C34.5844 70.5126 34.8565 71.0639 35.8376 70.9649C36.2727 70.9209 38.2332 70.7959 40.1946 70.6873L43.7602 70.4898L43.5621 68.9946C43.4022 67.7901 43.4627 67.4616 43.8728 67.304C44.6276 67.0145 44.4925 66.5341 43.5117 66.0192C42.6484 65.5664 42.6538 65.5629 44.1909 65.5853C45.3447 65.6024 45.8482 65.4603 46.1634 65.0296C46.801 64.1575 46.1846 63.5888 44.977 63.935C43.8728 64.2518 43.1921 64.0382 40.9908 62.6837C39.2269 61.5983 38.6857 61.4808 38.6857 62.1843ZM59.8509 62.7831C57.586 64.1489 56.9945 64.3277 55.9993 63.9496C55.3844 63.7157 55.0964 63.7556 54.7977 64.1154C54.1771 64.8632 55.1417 65.5929 56.7512 65.5929C58.0911 65.5929 58.092 65.5936 57.2506 66.0344C56.3901 66.4854 56.1869 66.9151 56.6876 67.2246C57.0996 67.4794 57.298 69.2708 56.9275 69.3946C56.7531 69.4525 56.704 69.7449 56.8189 70.044C57.0044 70.5278 57.5082 70.5781 61.3813 70.4997C65.1481 70.4237 65.7488 70.3408 65.8361 69.8848C65.8947 69.581 65.6751 69.275 65.3175 69.1613C64.8684 69.0189 64.6557 68.5971 64.5466 67.6313C64.4636 66.8977 64.2934 65.9872 64.1681 65.6081C63.9681 65.0018 64.0684 64.9062 65 64.817C65.8146 64.7388 66.0596 64.5692 66.0596 64.0825C66.0596 63.5192 65.8681 63.4559 64.319 63.5078C63.2481 63.5435 61.8785 63.8768 60.7588 64.3739C59.7582 64.8186 58.9392 65.1328 58.9392 65.0727C58.9392 65.0125 59.7224 64.4432 60.6797 63.8075C62.294 62.7359 62.9529 61.7081 62.0247 61.71C61.8073 61.7103 60.8288 62.1932 59.8509 62.7831ZM40.3237 67.6192C40.4057 68.3341 40.5845 68.5129 41.2174 68.5129C41.8503 68.5129 42.0086 68.3547 42.0086 67.7218C42.0086 67.0888 41.8298 66.91 41.1149 66.8281C40.3022 66.735 40.2307 66.8066 40.3237 67.6192ZM61.5854 67.2471C61.3057 67.9756 61.6984 68.6711 62.3889 68.6711C63.0313 68.6711 63.5614 67.6553 63.2133 67.0917C62.912 66.6043 61.7908 66.7113 61.5854 67.2471ZM50.3577 73.4832C50.0764 73.7086 49.5837 74.3541 49.2628 74.9181C48.7913 75.7472 48.7568 76.02 49.0821 76.3422C49.4065 76.6634 49.6498 76.5441 50.3353 75.7279C50.941 75.0067 51.5049 74.688 52.2935 74.6203C53.1587 74.5466 53.4011 74.3871 53.4011 73.8927C53.4011 73.3807 53.159 73.2421 52.1353 73.1668C51.4353 73.1152 50.6406 73.2567 50.3577 73.4832Z" fill="#2C2C2A"/>
<ellipse cx="62.2981" cy="67.7229" rx="1.42407" ry="1.26584" fill="white"/>
<ellipse cx="41.0959" cy="67.7229" rx="1.42407" ry="1.26584" fill="white"/>
</g>
</svg>
