<svg width="243" height="236" viewBox="0 0 243 236" fill="none" xmlns="http://www.w3.org/2000/svg">
<path d="M85.4991 73.0423C72.0918 48.5434 41.2123 2.86802 24.9532 16.1582C4.62939 32.771 9.50666 97.0728 15.2737 113.464" stroke="#80B2FF" stroke-width="20" stroke-linecap="round" stroke-linejoin="round"/>
<path d="M152.722 63.537C169.066 40.8912 205.375 -0.598978 219.859 14.6062C237.964 33.6127 225.144 96.8122 217.388 112.361" stroke="#CFE2FF" stroke-width="20" stroke-linecap="round" stroke-linejoin="round"/>
<path d="M169 179.141C169 225.136 146.667 225.136 118.5 225.136C90.3335 225.136 67 222.136 67 179.141C67 148.49 86.8335 149.641 115 149.641C143.167 149.641 169 148.49 169 179.141Z" fill="#80B2FF"/>
<path d="M160.582 149.636C128.982 163.236 88.0822 155.302 71.5822 149.636C69.0822 164.136 74.5822 204.636 89.0822 210.636C100.682 215.436 101.916 188.636 101.082 174.636C108.682 177.836 125.916 175.969 133.582 174.636C133.582 204.636 143.249 210.136 148.082 209.136C169.282 207.936 165.249 168.969 160.582 149.636Z" fill="#4F83D1"/>
<path d="M161 209.635C157.4 215.235 142.5 221.302 135.5 223.635C147 232.136 153 238.636 166.5 233.635C180.566 228.424 165.5 202.635 161 209.635Z" fill="#4F83D1"/>
<path d="M78.3672 209.832C81.9672 215.432 96.8672 221.498 103.867 223.832C92.3672 232.332 86.3672 238.832 72.8672 233.831C58.8013 228.621 73.8672 202.832 78.3672 209.832Z" fill="#4F83D1"/>
<path d="M159.564 165.129C137.747 174.017 90.2897 168.833 69.288 165.129C19.3854 132.435 38.2556 83.5256 53.9285 63.1577C139.503 -14.2137 182.76 71.49 194.985 101.248C207.21 131.007 186.835 154.02 159.564 165.129Z" fill="#80B2FF"/>
<path d="M108.866 159.421C62.5618 161.963 42.0812 126.849 37.6289 108.974C37.6289 142.34 51.3038 154.654 69.7491 166.968C84.5053 176.819 127.417 173.986 147.028 171.337C152.541 170.411 168.209 164.823 186.781 149.888C209.997 131.218 195.368 101.426 196.322 104.207C197.085 106.431 195.156 113.078 194.096 116.124C186.145 133.204 166.746 156.243 108.866 159.421Z" fill="#4F83D1"/>
<path fill-rule="evenodd" clip-rule="evenodd" d="M148.577 64.606C147.265 66.1006 147.876 68.6556 149.711 69.3438C150.719 69.7219 154.011 71.3513 157.026 72.9651C163.491 76.4243 165.919 75.6752 162.353 71.3215C158.206 66.2592 150.446 62.4756 148.577 64.606ZM73.6204 71.801C68.4033 73.9289 59.931 83.0777 59.931 86.5833C59.931 89.8719 61.1466 89.4139 65.2225 84.5866C69.711 79.2715 71.6636 78.0333 78.2534 76.3217C82.3084 75.2684 83.4884 74.4442 83.4884 72.6657C83.4884 69.6503 79.7066 69.3176 73.6204 71.801ZM83.1669 95.2979C79.8679 101.668 73.5775 105.803 65.9156 106.638C60.1886 107.263 59.3677 107.67 59.0725 110.031C58.7992 112.226 59.2358 112.715 61.4711 112.715C62.9736 112.715 65.5492 113.848 67.193 115.233C68.8378 116.618 72.3473 118.029 74.992 118.369C79.5171 118.95 80.05 118.702 84.0391 114.159L88.2763 109.33L87.8836 100.65C87.668 95.8753 87.0021 91.784 86.4042 91.5573C85.8064 91.3295 84.35 93.0137 83.1669 95.2979ZM133.585 95.4626C133.246 96.4705 133.187 100.316 133.456 104.009C133.883 109.87 134.429 111.228 137.755 114.701C144.238 121.47 153.216 119.452 157.313 110.305C158.481 107.695 159.9 105.558 160.463 105.558C161.028 105.558 161.489 104.824 161.489 103.927C161.489 102.74 159.325 102.135 153.568 101.714C146.828 101.221 144.949 100.575 140.974 97.383C135.709 93.1557 134.47 92.8336 133.585 95.4626ZM79.8166 106.164C77.9665 108.704 79.3632 111.763 82.1639 111.308C85.1834 110.817 85.7938 107.283 83.1376 105.663C81.5923 104.721 80.7787 104.844 79.8166 106.164ZM150.082 106.003C148.464 108.227 149.735 111.522 152.211 111.522C154.752 111.522 155.849 108.474 154.149 106.139C152.545 103.937 151.611 103.906 150.082 106.003ZM108.326 131.272C107.046 132.293 105.999 133.903 105.999 134.85C105.999 136.803 108.68 137.19 109.663 135.378C110.796 133.29 117.072 134.035 119.022 136.491C120.029 137.758 121.516 138.506 122.326 138.153C124.497 137.203 124.119 132.08 121.773 130.649C118.742 128.801 110.971 129.16 108.326 131.272Z" fill="black"/>
<ellipse cx="151.659" cy="108.729" rx="4.71147" ry="4.1748" fill="white"/>
<ellipse cx="81.5103" cy="108.729" rx="4.71147" ry="4.1748" fill="white"/>
</svg>
