<svg width="259" height="295" viewBox="0 0 259 295" fill="none" xmlns="http://www.w3.org/2000/svg">
<path d="M84.8545 60.2185C79.0757 53.7332 63.8242 44.0802 49.0489 57.3506C30.5799 73.9386 49.5363 89.84 62.6157 92.9296C75.6951 96.0192 86.757 109.424 85.682 115.708" stroke="#5052B0" stroke-width="20" stroke-linecap="round" stroke-linejoin="round"/>
<path d="M168.248 60.2185C174.026 53.7332 189.278 44.0802 204.053 57.3506C222.522 73.9386 203.566 89.84 190.486 92.9296C177.407 96.0192 166.345 109.424 167.42 115.708" stroke="#6B6DCA" stroke-width="20" stroke-linecap="round" stroke-linejoin="round"/>
<path d="M172.678 226.31L199.262 242.992C199.5 236.608 204.136 223.228 220.781 220.778" stroke="#5052B0" stroke-width="28" stroke-linecap="round" stroke-linejoin="round"/>
<path d="M88.773 229.31L62.1889 245.992C61.9511 239.608 57.3144 226.228 40.67 223.778" stroke="#5052B0" stroke-width="28" stroke-linecap="round" stroke-linejoin="round"/>
<path d="M180.643 238.506C180.643 284.5 158.309 284.5 130.143 284.5C101.976 284.5 78.6428 281.5 78.6428 238.506C78.6428 207.854 98.4763 209.006 126.643 209.006C154.809 209.006 180.643 207.854 180.643 238.506Z" fill="#6B6DCA"/>
<path d="M172.643 268.999C169.043 274.599 154.143 280.666 147.143 282.999C158.643 291.499 164.643 298 178.143 292.999C192.209 287.788 177.143 261.999 172.643 268.999Z" fill="#5052B0"/>
<path d="M90.0095 269.196C93.6095 274.796 108.51 280.863 115.51 283.196C104.01 291.696 98.0095 298.197 84.5095 293.196C70.4436 287.985 85.5095 262.196 90.0095 269.196Z" fill="#5052B0"/>
<path d="M171.207 224.494C149.39 233.381 101.932 228.197 80.9308 224.494C31.0283 191.799 49.8984 142.89 65.5713 122.522C151.145 45.1506 194.403 130.854 206.628 160.613C218.852 190.371 198.478 213.384 171.207 224.494Z" fill="#6B6DCA"/>
<path d="M120.508 218.786C74.2044 221.328 53.7238 186.213 49.2715 168.338C49.2715 201.705 62.9464 214.019 81.3917 226.333C96.1479 236.184 139.06 233.35 158.671 230.702C164.183 229.775 179.851 224.188 198.424 209.252C221.639 190.583 207.01 160.791 207.964 163.572C208.728 165.796 206.798 172.443 205.738 175.488C197.788 192.569 178.388 215.608 120.508 218.786Z" fill="#5052B0"/>
<path fill-rule="evenodd" clip-rule="evenodd" d="M158.219 134.41C156.019 135.202 154.107 135.858 153.969 135.866C153.831 135.874 153.719 136.608 153.719 137.498C153.719 138.698 154.299 138.949 155.969 138.472C161.645 136.852 167.4 136.789 171.595 138.303C177.603 140.47 178.924 140.342 178.539 137.631C177.93 133.346 166.292 131.501 158.219 134.41ZM86.1645 142.968C85.1655 144.585 86.6405 145.618 93.1525 147.858C100.182 150.276 106.454 150.455 109.496 148.324C114.246 144.997 111.066 141.616 105.765 144.357C102.83 145.875 102.156 145.848 95.1635 143.93C86.4095 141.528 87.0145 141.593 86.1645 142.968ZM153.979 156.421L150.439 159.961L151.098 167.047C151.46 170.944 151.999 174.526 152.297 175.007C152.594 175.488 157.588 175.881 163.395 175.881C173.46 175.881 173.928 175.788 173.429 173.881C173.142 172.781 173.387 170.313 173.976 168.397C176.497 160.18 170.81 152.892 161.869 152.885C158.219 152.882 156.949 153.451 153.979 156.421ZM79.1555 159.777C78.0805 160.852 78.8865 162.8 80.6365 163.355C81.7675 163.714 83.1015 165.679 83.8865 168.142C86.3455 175.857 94.6585 179.044 101.477 174.887C105.045 172.712 110.678 162.407 109.113 160.918C108.204 160.053 79.9555 158.977 79.1555 159.777ZM93.8235 166.254C92.1455 168.276 93.5715 170.881 96.3565 170.881C99.2105 170.881 100.462 168.481 98.7075 166.368C97.1665 164.511 95.3065 164.467 93.8235 166.254ZM160.824 166.254C159.146 168.276 160.572 170.881 163.357 170.881C166.211 170.881 167.462 168.481 165.708 166.368C164.167 164.511 162.307 164.467 160.824 166.254ZM126.034 179.956C123.703 180.823 121.14 184.635 122.186 185.681C122.532 186.027 123.806 186.37 125.017 186.444C126.228 186.518 128.682 186.907 130.469 187.309C133.432 187.975 133.719 187.829 133.719 185.652C133.719 181.221 130.016 178.476 126.034 179.956Z" fill="#2C2C2A"/>
<circle cx="163.67" cy="169" r="5" fill="white"/>
<circle cx="95.6702" cy="169" r="5" fill="white"/>
<path d="M23.8251 130.782L23.6364 130.381C22.7709 128.516 22.249 126.953 22.0706 125.693C21.9025 124.428 21.9799 123.312 22.3029 122.343C22.621 121.365 23.1046 120.377 23.7536 119.381C24.1969 118.695 24.5565 118.005 24.8323 117.31C25.1135 116.6 25.2626 115.889 25.2796 115.178C25.2917 114.456 25.1284 113.736 24.7897 113.016C24.4075 112.204 23.8858 111.589 23.2247 111.172C22.5637 110.754 21.8318 110.534 21.0292 110.509C20.2369 110.48 19.4449 110.652 18.6532 111.025C17.9231 111.368 17.3041 111.854 16.796 112.483C16.2934 113.096 15.9762 113.823 15.8443 114.664C15.7179 115.489 15.8564 116.397 16.2598 117.388L10.7692 119.972C9.90127 117.994 9.60492 116.137 9.88013 114.399C10.1656 112.658 10.8938 111.109 12.0648 109.754C13.246 108.395 14.7363 107.292 16.5357 106.445C18.4996 105.521 20.3891 105.052 22.2041 105.04C24.0295 105.022 25.6586 105.455 27.0914 106.338C28.5297 107.206 29.6577 108.509 30.4754 110.246C31.027 111.418 31.3303 112.557 31.3853 113.661C31.4506 114.761 31.3082 115.832 30.958 116.876C30.6078 117.92 30.0927 118.948 29.4129 119.958C28.822 120.864 28.3898 121.721 28.1164 122.528C27.8533 123.33 27.7699 124.166 27.866 125.038C27.9676 125.894 28.2697 126.87 28.7723 127.965L28.961 128.366L23.8251 130.782ZM31.0376 139.144C30.1122 139.579 29.1605 139.625 28.1825 139.282C27.2045 138.938 26.493 138.293 26.0478 137.347C25.6123 136.422 25.5739 135.473 25.9326 134.5C26.2913 133.528 26.9333 132.824 27.8587 132.388C28.7738 131.958 29.7204 131.914 30.6984 132.258C31.6866 132.596 32.3985 133.228 32.834 134.154C33.1291 134.781 33.2383 135.427 33.1615 136.091C33.0949 136.75 32.8772 137.355 32.5083 137.905C32.1447 138.441 31.6545 138.853 31.0376 139.144Z" fill="#3D52D5"/>
<path d="M229.005 135.74L229.167 135.327C229.931 133.418 230.71 131.966 231.504 130.972C232.309 129.982 233.174 129.272 234.1 128.843C235.031 128.403 236.081 128.077 237.251 127.866C238.054 127.718 238.803 127.506 239.498 127.23C240.207 126.948 240.827 126.569 241.356 126.093C241.889 125.607 242.301 124.993 242.593 124.253C242.922 123.418 243.011 122.617 242.861 121.849C242.711 121.082 242.37 120.398 241.837 119.798C241.314 119.201 240.646 118.743 239.832 118.422C239.081 118.127 238.303 118.01 237.497 118.071C236.706 118.126 235.959 118.394 235.257 118.875C234.57 119.35 234.004 120.073 233.56 121.046L227.914 118.824C228.757 116.836 229.905 115.346 231.358 114.355C232.821 113.367 234.447 112.835 236.236 112.757C238.036 112.684 239.861 113.012 241.711 113.74C243.731 114.535 245.368 115.588 246.622 116.9C247.887 118.216 248.69 119.698 249.031 121.347C249.386 122.988 249.212 124.703 248.509 126.49C248.034 127.695 247.414 128.697 246.648 129.495C245.893 130.296 245.016 130.928 244.016 131.389C243.016 131.851 241.915 132.181 240.714 132.38C239.649 132.571 238.729 132.844 237.955 133.199C237.191 133.558 236.525 134.071 235.957 134.739C235.403 135.4 234.901 136.289 234.449 137.406L234.287 137.819L229.005 135.74ZM227.869 146.723C226.918 146.349 226.231 145.688 225.81 144.741C225.389 143.794 225.37 142.834 225.753 141.861C226.128 140.909 226.792 140.23 227.746 139.824C228.699 139.418 229.652 139.402 230.604 139.776C231.545 140.147 232.226 140.805 232.647 141.753C233.078 142.704 233.107 143.656 232.732 144.607C232.478 145.252 232.083 145.775 231.548 146.174C231.022 146.578 230.433 146.835 229.779 146.944C229.14 147.047 228.504 146.973 227.869 146.723Z" fill="#3D52D5"/>
<path d="M131.64 36.4965L131.684 36.0554C131.896 34.0095 132.248 32.3998 132.74 31.2263C133.243 30.0539 133.881 29.1345 134.654 28.4682C135.429 27.7905 136.35 27.19 137.417 26.6667C138.149 26.3046 138.811 25.8957 139.404 25.44C140.009 24.9741 140.501 24.4401 140.88 23.8378C141.26 23.2242 141.489 22.5216 141.566 21.7299C141.654 20.8365 141.521 20.0413 141.167 19.3443C140.813 18.6473 140.297 18.0829 139.62 17.6512C138.954 17.2205 138.186 16.9625 137.315 16.8771C136.512 16.7984 135.732 16.8988 134.973 17.1784C134.228 17.4478 133.583 17.9098 133.039 18.5644C132.508 19.2088 132.162 20.0598 132.001 21.1173L125.962 20.5251C126.229 18.3819 126.926 16.6347 128.051 15.2836C129.189 13.9336 130.607 12.9765 132.307 12.4124C134.017 11.8494 135.862 11.665 137.841 11.8591C140.002 12.0709 141.864 12.636 143.43 13.5546C145.007 14.4742 146.185 15.6801 146.963 17.1723C147.754 18.6543 148.056 20.351 147.868 22.2623C147.742 23.5515 147.42 24.6846 146.901 25.6614C146.394 26.6393 145.723 27.4869 144.888 28.2043C144.053 28.9217 143.084 29.5403 141.983 30.0603C141.011 30.536 140.201 31.0503 139.553 31.6033C138.917 32.1575 138.417 32.8335 138.053 33.6313C137.702 34.419 137.462 35.4117 137.333 36.6094L137.289 37.0504L131.64 36.4965ZM133.554 47.3715C132.536 47.2717 131.695 46.8239 131.031 46.028C130.367 45.2321 130.086 44.3139 130.188 43.2735C130.288 42.2556 130.741 41.4208 131.547 40.7691C132.353 40.1174 133.265 39.8414 134.283 39.9413C135.289 40.04 136.125 40.4872 136.789 41.2831C137.464 42.0801 137.752 42.9876 137.652 44.0054C137.585 44.6953 137.348 45.3058 136.942 45.8368C136.547 46.369 136.05 46.7771 135.451 47.0609C134.865 47.3345 134.233 47.4381 133.554 47.3715Z" fill="#3D52D5"/>
</svg>
