<svg width="188" height="223" viewBox="0 0 188 223" fill="none" xmlns="http://www.w3.org/2000/svg">
<path d="M78.2017 57.9582C74.319 38.6564 62.076 2.36614 44.1653 11.6193C21.7771 23.1858 27.9544 152.816 9.99976 195.188" stroke="#879AB6" stroke-width="20" stroke-linecap="round" stroke-linejoin="round"/>
<path d="M109.181 58.9582C113.064 39.6564 125.307 3.36614 143.217 12.6193C165.606 24.1858 159.428 153.816 177.383 196.188" stroke="#C0CDE1" stroke-width="20" stroke-linecap="round" stroke-linejoin="round"/>
<path d="M147 166.141C147 212.136 124.667 212.136 96.5 212.136C68.3335 212.136 45 209.136 45 166.141C45 135.49 64.8335 136.641 93 136.641C121.167 136.641 147 135.49 147 166.141Z" fill="#879AB6"/>
<path d="M138.582 136.636C106.982 150.236 66.0822 142.302 49.5822 136.636C47.0822 151.136 52.5822 191.636 67.0822 197.636C78.6822 202.436 79.9155 175.636 79.0822 161.636C86.6822 164.836 103.916 162.969 111.582 161.636C111.582 191.636 121.249 197.136 126.082 196.136C147.282 194.936 143.249 155.969 138.582 136.636Z" fill="#687A96"/>
<path d="M139 196.635C135.4 202.235 120.5 208.302 113.5 210.635C125 219.136 131 225.636 144.5 220.635C158.566 215.424 143.5 189.635 139 196.635Z" fill="#687A96"/>
<path d="M56.3672 196.832C59.9672 202.432 74.8672 208.498 81.8672 210.832C70.3672 219.332 64.3672 225.832 50.8672 220.831C36.8013 215.621 51.8672 189.832 56.3672 196.832Z" fill="#687A96"/>
<path d="M137.564 152.129C115.747 161.017 68.2897 155.833 47.288 152.129C-2.61457 119.435 16.2556 70.5256 31.9285 50.1577C117.503 -27.2137 160.76 58.49 172.985 88.2483C185.21 118.007 164.835 141.02 137.564 152.129Z" fill="#879AB6"/>
<path d="M86.8658 146.421C40.5618 148.963 20.0812 113.849 15.6289 95.9736C15.6289 129.34 29.3038 141.654 47.7491 153.968C62.5053 163.819 105.417 160.986 125.028 158.337C130.541 157.411 146.209 151.823 164.781 136.888C187.997 118.218 173.368 88.4264 174.322 91.207C175.085 93.4314 173.156 100.078 172.096 103.124C164.145 120.204 144.746 143.243 86.8658 146.421Z" fill="#687A96"/>
<path fill-rule="evenodd" clip-rule="evenodd" d="M129.504 49.355C128.504 50.56 128.586 51.342 129.928 53.391C134.117 59.784 143.437 65.596 148.07 64.704C150.841 64.171 150.314 62.627 147 61.566C142.588 60.152 137.76 56.232 134.95 51.78C132.242 47.491 131.372 47.104 129.504 49.355ZM53.846 52.063C50.803 54.291 48.128 55.272 43.846 55.732C39.595 56.189 38 56.769 38 57.86C38 60.027 45.537 60.342 51.31 58.417C57.464 56.364 62.04 52.71 61.2 50.52C60.31 48.201 58.645 48.55 53.846 52.063ZM60.199 75.37C56.698 79.758 53.67 81.76 47.485 83.776C41.527 85.719 40.797 87.26 45.642 87.664C48.582 87.909 49.194 88.314 48.815 89.762C48.031 92.762 51.177 98.693 54.69 100.834C61.44 104.95 69.822 101.861 72.299 94.346C73.996 89.195 71.892 83.114 67.519 80.53C64.995 79.04 64.713 78.491 65.677 76.948C66.987 74.85 66.167 71.86 64.281 71.86C63.577 71.86 61.74 73.44 60.199 75.37ZM119.5 73.531C119.5 74.45 120.252 76.033 121.171 77.048C122.743 78.786 122.686 79.056 120.196 81.656C118.741 83.174 117.074 85.784 116.491 87.456C114.126 94.24 120.514 102.865 127.898 102.856C134.689 102.848 141.387 95.281 140.182 88.979C139.869 87.341 140.284 85.985 141.348 85.167C143.459 83.546 141.86 82.333 136.478 81.472C133.977 81.073 131.064 79.375 127.719 76.367C122.519 71.692 119.5 70.65 119.5 73.531ZM62.54 89.312C61.089 91.06 61.983 94.448 64.111 95.264C66.079 96.019 69.5 94.205 69.5 92.407C69.5 88.065 65.172 86.141 62.54 89.312ZM129.54 89.312C128.089 91.06 128.983 94.448 131.111 95.264C133.079 96.019 136.5 94.205 136.5 92.407C136.5 88.065 132.172 86.141 129.54 89.312ZM86.571 105.612C80.903 108.502 77.238 113.98 76.709 120.35C76.176 126.786 76.747 127.049 82.698 123.11C86.173 120.81 87.93 120.36 93.427 120.36C98.573 120.36 101.215 120.957 105.6 123.11C108.679 124.623 111.717 125.86 112.35 125.86C113.808 125.86 113.864 118.953 112.436 115.175C110.989 111.344 106.674 106.902 102.782 105.237C98.344 103.338 90.682 103.515 86.571 105.612ZM92.25 106.559C88.43 107.162 88.813 108.641 92.992 109.425C97.069 110.189 99.84 109.386 99.255 107.609C98.803 106.239 96.486 105.891 92.25 106.559Z" fill="black"/>
<circle cx="132.5" cy="91.5" r="4.5" fill="white"/>
<ellipse cx="94.5" cy="108" rx="5.5" ry="2" fill="white"/>
<ellipse cx="57.2778" cy="99.9885" rx="7" ry="2" transform="rotate(17.2756 57.2778 99.9885)" fill="#88EAFF"/>
<ellipse cx="132.279" cy="100.932" rx="7" ry="2" transform="rotate(-16.7434 132.279 100.932)" fill="#88EAFF"/>
<circle cx="64.5" cy="90.5" r="4.5" fill="white"/>
<path d="M153.204 111.048C154.715 115.492 154.25 117.81 151.112 118.876C147.975 119.943 145.247 118.711 143.736 114.266C144.509 110.951 143.739 107.025 144.787 104.931C145.851 104.536 149.198 107.409 153.204 111.048Z" fill="#88EAFF"/>
<path d="M47.4101 112.812C46.1868 117.345 44.5088 119.009 41.3096 118.146C38.1103 117.282 36.5323 114.739 37.7557 110.206C40.2457 107.885 41.7949 104.196 43.8324 103.043C44.9357 103.307 46.1133 107.558 47.4101 112.812Z" fill="#88EAFF"/>
</svg>
