<svg width="151" height="214" viewBox="0 0 151 214" fill="none" xmlns="http://www.w3.org/2000/svg">
<path d="M57.0958 19.2258C45.8281 26.758 28.2152 22.3642 20.8173 19.2258L10.8398 15.512C1.03188 9.75487 -6.00579 22.5169 7.42715 30.0113C34.7426 45.2511 64.0659 36.3611 73.9536 30.0113C67.7701 27.2394 58.8742 22.5832 57.0958 19.2258Z" fill="#C7C8FE"/>
<path d="M37.4919 23.1886C35.3596 23.8283 27.257 21.4117 22.7793 19.9902C28.7496 2.71893 44.9548 -7.46796 70.1154 9.37683C96.1077 26.7784 98.9024 21.9093 107.218 22.5489C110.843 28.0928 109.137 33.0449 105.937 36.6697C105.156 36.8118 94.8496 36.6697 83.1222 33.0449C57.9702 25.2707 60.4083 19.2349 50.4986 17.2662C41.8236 15.5427 39.1977 20.8431 37.4919 23.1886Z" fill="#6B6DCA"/>
<path d="M124.489 19.1853C109.47 -11.7803 81.6316 2.07939 71.8232 10.3952C74.382 12.7407 82.2713 16.792 86.1094 19.1853C106.153 9.37695 114.893 28.835 104.019 39.0154C93.9972 48.3973 79.9258 61.1429 71.8232 69.4587V89.5019C80.3518 75.7058 137.497 46.0038 124.489 19.1853Z" fill="#C7C8FE"/>
<path d="M36.6404 38.3273C32.717 38.3273 23.6336 36.6215 20.6484 35.7686C20.6484 53.9456 42.8393 66.3476 71.8226 89.7147V69.6715C59.2404 61.5782 38.1671 47.9753 36.6404 38.3273Z" fill="#6B6DCA"/>
<path d="M124.737 35.6086C126.315 32.5947 126.87 25.587 125.377 21.1092C129.141 21.1092 135.099 19.0703 143.523 17.6053C151.946 16.1402 151.946 28.4258 145.493 31.0471C142.195 32.3866 130.234 34.8412 124.737 35.6086Z" fill="#6B6DCA"/>
<path d="M118.972 168.88C118.972 205.604 101.139 205.604 78.6491 205.604C56.1592 205.604 37.5283 203.209 37.5283 168.88C37.5283 144.405 53.3646 145.325 75.8545 145.325C98.3444 145.325 118.972 144.405 118.972 168.88Z" fill="#6B6DCA"/>
<path d="M112.25 145.32C87.0183 156.179 54.3612 149.845 41.1865 145.32C39.1904 156.898 43.5819 189.236 55.1596 194.027C64.4218 197.859 65.4066 176.46 64.7412 165.282C70.8095 167.837 84.5697 166.346 90.6912 165.282C90.6912 189.236 98.4097 193.627 102.269 192.829C119.196 191.871 115.976 160.757 112.25 145.32Z" fill="#5052B0"/>
<path d="M112.583 193.227C109.709 197.699 97.8119 202.543 92.2227 204.406C101.405 211.193 106.196 216.383 116.975 212.39C128.206 208.23 116.177 187.638 112.583 193.227Z" fill="#5052B0"/>
<path d="M46.604 193.385C49.4785 197.856 61.3756 202.7 66.9648 204.563C57.7825 211.35 52.9917 216.541 42.2125 212.547C30.9814 208.387 43.011 187.795 46.604 193.385Z" fill="#5052B0"/>
<path d="M111.437 157.691C94.0171 164.788 56.124 160.648 39.355 157.691C-0.490355 131.586 14.5768 92.5337 27.091 76.2707C95.4187 14.4925 129.958 82.9237 139.719 106.685C149.48 130.445 133.212 148.82 111.437 157.691Z" fill="#6B6DCA"/>
<path d="M70.9562 153.134C33.9842 155.163 17.6312 127.126 14.0762 112.853C14.0762 139.495 24.9951 149.328 39.723 159.16C51.5052 167.025 85.7687 164.763 101.428 162.649C105.829 161.908 118.339 157.447 133.169 145.522C151.705 130.615 140.025 106.827 140.787 109.047C141.396 110.823 139.855 116.131 139.009 118.562C132.661 132.201 117.171 150.596 70.9562 153.134Z" fill="#5052B0"/>
<path fill-rule="evenodd" clip-rule="evenodd" d="M42.9779 79.175C37.939 81.0194 31.9385 87.4046 31.9385 90.9215C31.9385 93.0677 32.9747 92.573 35.0733 89.4254C37.8645 85.2397 42.3345 82.5282 47.3361 81.987C51.0413 81.5861 51.6944 81.2904 51.6944 80.0142C51.6944 78.7921 51.1405 78.4806 48.7123 78.3402C47.0722 78.2457 44.492 78.621 42.9779 79.175ZM100.094 79.1457C99.409 80.9436 100.213 81.6492 103.569 82.1889C107.577 82.8345 110.36 84.3261 113.137 87.3183C114.852 89.1664 115.596 89.5357 116.258 88.8692C116.921 88.2018 116.588 87.3063 114.86 85.1105C111.192 80.4474 101.144 76.3885 100.094 79.1457ZM46.3044 98.7682C43.4073 100.036 40.8913 103.916 40.8875 107.121C40.886 108.405 41.7031 110.671 42.7036 112.155L44.5226 114.854L41.9581 116.45C40.5476 117.327 39.3935 118.524 39.3935 119.111C39.3935 120.575 40.3396 120.448 43.5259 118.555C45.494 117.386 48.0302 116.812 52.6412 116.491C59.1524 116.038 60.5204 115.282 58.5046 113.252C57.7978 112.541 57.6524 111.792 58.0871 111.101C59.1845 109.356 58.8646 104.417 57.5048 102.099C56.1816 99.8432 52.4704 97.634 50.0908 97.6843C49.3326 97.7008 47.6284 98.188 46.3044 98.7682ZM96.2532 98.7682C91.6259 100.794 89.6182 106.624 91.971 111.205C92.9902 113.189 92.9902 113.419 91.971 113.419C91.271 113.419 90.8334 114.104 90.8334 115.201C90.8334 116.921 91.0205 116.98 96.2383 116.89C100.468 116.817 102.367 117.161 104.974 118.473C106.806 119.394 108.588 119.863 108.936 119.513C109.587 118.858 108.082 116.974 105.945 115.769C104.869 115.164 104.96 114.808 106.727 112.692C110.395 108.304 108.857 100.827 103.854 98.7217C100.733 97.4088 99.3389 97.417 96.2532 98.7682ZM50.2563 102.588C49.6122 103.237 49.0851 104.226 49.0851 104.786C49.0851 106.216 51.18 108.164 52.7165 108.164C55.7507 108.164 56.9964 103.61 54.3528 102.185C52.3937 101.13 51.6303 101.205 50.2563 102.588ZM100.152 103.179C99.5185 104.154 99.2121 105.507 99.4723 106.189C100.098 107.83 103.24 108.571 104.635 107.405C106.203 106.096 106.012 103.107 104.302 102.185C102.173 101.038 101.43 101.216 100.152 103.179ZM85.9876 125.494C81.1068 126.365 67.3738 126.539 60.0813 125.822C55.117 125.334 54.3036 125.417 54.3036 126.417C54.3036 127.057 54.8911 127.765 55.6083 127.99C58.0185 128.746 67.3157 129.904 71.1006 129.919C74.8341 129.934 74.8557 129.948 75.9464 133.1C76.6241 135.059 77.8176 136.703 79.0783 137.413C81.0099 138.5 81.2164 138.458 83.0667 136.594C84.1403 135.513 85.2451 133.515 85.5217 132.153C85.9645 129.972 86.423 129.58 89.361 128.867C91.9323 128.243 92.6972 127.713 92.6972 126.556C92.6972 124.778 91.2688 124.552 85.9876 125.494ZM80.2099 128.868C79.4078 129.679 79.5189 135.768 80.3449 136.282C80.7266 136.52 81.2112 136.434 81.4214 136.092C82.0066 135.138 80.8474 128.224 80.2099 128.868Z" fill="black"/>
<circle cx="103.002" cy="105.397" r="3.99231" fill="white"/>
<circle cx="51.9005" cy="105.397" r="3.99231" fill="white"/>
<path d="M83.0404 131.657C83.0404 134.352 81.7892 136.536 80.2458 136.536C78.7024 136.536 77.4512 134.352 77.4512 131.657C77.4512 128.962 78.7024 128.552 80.2458 128.552C81.7892 128.552 83.0404 128.962 83.0404 131.657Z" fill="#7D2A2A"/>
</svg>
