<svg width="66" height="66" viewBox="0 0 66 66" fill="none" xmlns="http://www.w3.org/2000/svg">
<circle cx="33" cy="33" r="33" fill="#FFE1F4"/>
<path d="M23.9395 25.026C23.3528 17.71 20.1829 6.89069 11.0201 15.1644C-1.22249 26.219 14.9614 28.9429 15.1309 23.2125C15.3004 17.482 10.2916 16.4529 6.49927 18" stroke="#F17CC7" stroke-width="5" stroke-linecap="round" stroke-linejoin="round"/>
<path d="M41.6835 23.9509C42.2703 16.6348 45.4401 5.81556 54.603 14.0893C66.8455 25.1439 50.6616 27.8678 50.4921 22.1373C50.3226 16.4069 55.7074 15.9529 59.4998 17.5001" stroke="#FFB7E5" stroke-width="5" stroke-linecap="round" stroke-linejoin="round"/>
<path d="M45.3286 53.8168C39.6764 56.1194 27.3813 54.7762 21.9402 53.8168C9.01168 45.3464 13.9005 32.6752 17.961 27.3984C40.1312 7.35333 51.3381 29.5571 54.5052 37.2667C57.6724 44.9764 52.3938 50.9385 45.3286 53.8168Z" fill="#F17CC7"/>
<path d="M32.194 52.3376C20.1978 52.9962 14.8918 43.8989 13.7383 39.2679C13.7383 47.9124 17.2811 51.1027 22.0599 54.2929C25.8828 56.8451 37.0002 56.111 42.0811 55.4249C43.5092 55.1848 47.5684 53.7372 52.38 49.8677C58.3946 45.0309 54.6046 37.3126 54.8518 38.033C55.0495 38.6093 54.5497 40.3313 54.2751 41.1203C52.2153 45.5455 47.1894 51.5143 32.194 52.3376Z" fill="#BA5A97"/>
<path d="M26.012 45.6272C26.2915 45.1916 27.035 44.3693 27.7729 44.5654C28.6953 44.8104 29.45 46.444 30.2886 46.0356C31.1271 45.6272 31.6303 43.9119 32.7204 44.2386C33.8105 44.5654 35.2361 47.3426 35.9069 46.6891C36.5778 46.0356 36.997 44.2386 38.2549 44.2386C39.5127 44.2386 39.6804 46.9341 40.7705 46.2807C41.8607 45.6272 42.1961 43.9119 43.3701 44.2386" stroke="black" stroke-width="2" stroke-linecap="round" stroke-linejoin="round"/>
<path fill-rule="evenodd" clip-rule="evenodd" d="M21.5429 28.6497C20.8659 28.9557 20.3123 29.3795 20.3123 29.5917C20.3123 29.8363 20.4781 29.9296 20.7656 29.8467C23.5271 29.049 23.6681 29.0337 25.2653 29.3635C27.0832 29.7391 27.7527 29.4741 26.9679 28.6894C26.2472 27.9689 23.0999 27.9458 21.5429 28.6497ZM44.6654 29.3814C44.6654 29.6565 45.0118 30.1285 45.4354 30.4301C45.8587 30.7317 46.4085 31.3223 46.6569 31.7431C47.4375 33.0646 48.1901 32.5074 47.4841 31.1306C46.6219 29.449 44.6654 28.2349 44.6654 29.3814ZM25.9674 33.0729C25.5078 34.6061 23.6212 36.5171 22.1906 36.8979C20.9734 37.222 20.6535 37.9485 21.7281 37.9485C22.1071 37.9485 22.4823 38.1648 22.6515 38.4806C22.8079 38.7731 23.3074 39.2389 23.7616 39.5159C26.7757 41.3535 30.0986 37.327 27.7019 34.7409C27.2874 34.2937 27.1239 33.8175 27.1462 33.1219C27.1697 32.3882 27.0658 32.1138 26.7397 32.047C26.4179 31.9814 26.2127 32.2537 25.9674 33.0729ZM40.1005 33.9204C40.0212 34.1274 40.0184 34.3973 40.0945 34.5204C40.1704 34.6434 40.0722 35.2028 39.8759 35.7634C38.867 38.6441 41.7777 41.0688 44.3571 39.4962C44.8289 39.2086 45.3861 38.5627 45.596 38.0612C45.8056 37.5593 46.1483 37.0829 46.3577 37.0028C47.188 36.6839 46.7046 36.1974 45.3833 36.022C43.8299 35.816 42.2485 35.0139 41.6777 34.1429C41.2389 33.4732 40.3217 33.3439 40.1005 33.9204ZM25.5313 37.2554C24.9495 37.9568 25.7775 38.8988 26.6736 38.555C27.2866 38.3197 27.0524 37.0609 26.3777 36.9645C26.0803 36.922 25.6995 37.0528 25.5313 37.2554ZM43.0247 37.085C42.7026 37.4067 42.8495 38.4104 43.2405 38.5604C44.1151 38.8959 44.9468 37.9521 44.3791 37.2679C44.0685 36.8935 43.3174 36.7922 43.0247 37.085Z" fill="black"/>
<circle cx="43.6296" cy="37.7209" r="1.0363" fill="white"/>
<circle cx="26.0116" cy="37.7209" r="1.0363" fill="white"/>
</svg>
