<svg width="66" height="66" viewBox="0 0 66 66" fill="none" xmlns="http://www.w3.org/2000/svg">
<circle cx="33" cy="33" r="33" fill="#EDF4FE"/>
<path d="M24.5139 30.9638C24.1501 23.8668 22.2724 10.0988 17.6716 11.803C11.9205 13.9333 6.69459 29.7966 6.28485 34.2528" stroke="#80B2FF" stroke-width="5" stroke-linecap="round" stroke-linejoin="round"/>
<path d="M41.0013 30.0777C41.9047 22.976 44.9036 9.24552 49.6716 11.137C55.6316 13.5013 60.0336 29.6148 60.1449 34.0992" stroke="#CFE2FF" stroke-width="5" stroke-linecap="round" stroke-linejoin="round"/>
<path d="M44.8215 53.7816C39.1693 56.0842 26.8742 54.741 21.4332 53.7816C8.5046 45.3112 13.3934 32.64 17.4539 27.3632C39.6241 7.31812 50.831 29.5219 53.9982 37.2315C57.1653 44.9412 51.8867 50.9033 44.8215 53.7816Z" fill="#80B2FF"/>
<path d="M31.687 52.3024C19.6907 52.961 14.3847 43.8637 13.2312 39.2327C13.2312 47.8772 16.774 51.0674 21.5528 54.2577C25.3758 56.8098 36.4932 56.0758 41.574 55.3897C43.0021 55.1496 47.0613 53.702 51.873 49.8325C57.8876 44.9957 54.0975 37.2774 54.3447 37.9978C54.5425 38.5741 54.0426 40.2961 53.768 41.0851C51.7082 45.5103 46.6823 51.4791 31.687 52.3024Z" fill="#4F83D1"/>
<path fill-rule="evenodd" clip-rule="evenodd" d="M41.9755 27.7381C41.6356 28.1253 41.794 28.7873 42.2693 28.9656C42.5305 29.0635 43.3833 29.4857 44.1645 29.9038C45.8395 30.7999 46.4685 30.6059 45.5446 29.4779C44.4702 28.1664 42.4597 27.1862 41.9755 27.7381ZM22.5561 29.6022C21.2045 30.1535 19.0095 32.5237 19.0095 33.4319C19.0095 34.2839 19.3244 34.1652 20.3804 32.9146C21.5433 31.5376 22.0491 31.2168 23.7564 30.7734C24.807 30.5005 25.1127 30.287 25.1127 29.8262C25.1127 29.045 24.1329 28.9588 22.5561 29.6022ZM25.0294 35.6897C24.1747 37.3399 22.545 38.4113 20.56 38.6276C19.0762 38.7895 18.8636 38.8949 18.7871 39.5068C18.7163 40.0754 18.8294 40.2021 19.4085 40.2021C19.7978 40.2021 20.465 40.4956 20.8909 40.8544C21.317 41.2132 22.2263 41.5788 22.9115 41.6668C24.0838 41.8173 24.2219 41.7531 25.2553 40.576L26.3531 39.325L26.2514 37.0763C26.1955 35.8392 26.023 34.7793 25.8681 34.7206C25.7132 34.6615 25.3359 35.0979 25.0294 35.6897ZM38.0915 35.7323C38.0036 35.9934 37.9884 36.9897 38.0581 37.9465C38.1688 39.465 38.3101 39.8167 39.1719 40.7166C40.8514 42.4703 43.1774 41.9474 44.2388 39.5775C44.5415 38.9014 44.9091 38.3479 45.055 38.3479C45.2012 38.3479 45.3208 38.1575 45.3208 37.9252C45.3208 37.6177 44.7602 37.461 43.2686 37.3519C41.5225 37.2243 41.0356 37.0568 40.0057 36.2298C38.6418 35.1347 38.3207 35.0512 38.0915 35.7323ZM24.1614 38.5049C23.6821 39.1628 24.0439 39.9555 24.7695 39.8374C25.5518 39.7104 25.71 38.7948 25.0218 38.3751C24.6214 38.131 24.4107 38.1628 24.1614 38.5049ZM42.3656 38.4632C41.9462 39.0392 42.2755 39.893 42.917 39.893C43.5753 39.893 43.8596 39.1032 43.4191 38.4984C43.0036 37.9279 42.7616 37.9199 42.3656 38.4632ZM31.5475 45.0096C31.2158 45.2741 30.9445 45.6913 30.9445 45.9367C30.9445 46.4425 31.6392 46.543 31.8939 46.0736C32.1874 45.5325 33.8133 45.7256 34.3186 46.3619C34.5796 46.6901 34.9648 46.8838 35.1744 46.7923C35.737 46.5464 35.6391 45.2191 35.0312 44.8483C34.2459 44.3696 32.2327 44.4626 31.5475 45.0096Z" fill="black"/>
<ellipse cx="42.7741" cy="39.1693" rx="1.22063" ry="1.08159" fill="white"/>
<ellipse cx="24.5998" cy="39.1693" rx="1.22063" ry="1.08159" fill="white"/>
</svg>
