<svg width="66" height="66" viewBox="0 0 66 66" fill="none" xmlns="http://www.w3.org/2000/svg">
<circle cx="33" cy="33" r="33" fill="#FFF4E0"/>
<path d="M16.3403 30.4308C9.73383 26.9332 6.88399 11.0001 14.7858 11.5182C22.6876 12.0364 29.4236 21.2336 33.0507 22.3994" stroke="#F19F00" stroke-width="5" stroke-linecap="round" stroke-linejoin="round"/>
<path d="M49.7613 29.9249C56.3677 26.4274 59.2176 10.4942 51.3158 11.0124C43.4139 11.5305 36.678 20.7277 33.0509 21.8936" stroke="#FFD789" stroke-width="5" stroke-linecap="round" stroke-linejoin="round"/>
<path d="M44.5969 56.2072C38.9447 58.5098 26.6496 57.1666 21.2085 56.2072C8.27999 47.7368 13.1688 35.0656 17.2293 29.7888C39.3995 9.74371 50.6064 31.9475 53.7735 39.6571C56.9407 47.3668 51.6621 53.3289 44.5969 56.2072Z" fill="#F19F00"/>
<path d="M31.4624 54.7286C19.4661 55.3872 14.1601 46.2899 13.0066 41.6589C13.0066 50.3034 16.5494 53.4936 21.3282 56.6839C25.1511 59.2361 36.2685 58.502 41.3494 57.8159C42.7775 57.5758 46.8367 56.1282 51.6483 52.2587C57.663 47.4219 53.8729 39.7036 54.1201 40.424C54.3178 41.0003 53.818 42.7223 53.5434 43.5113C51.4836 47.9365 46.4577 53.9053 31.4624 54.7286Z" fill="#C3840B"/>
<path fill-rule="evenodd" clip-rule="evenodd" d="M23.1843 30.1258C21.8464 30.4401 21.0624 30.9124 20.085 31.9923C18.983 33.2098 18.5774 34.0423 18.9196 34.3839C19.0943 34.5583 19.3737 34.3283 19.8522 33.6171C20.7129 32.3379 22.3231 31.3461 23.7653 31.2069C25.2069 31.0679 25.4512 30.911 25.1377 30.326C24.8725 29.8315 24.5683 29.8003 23.1843 30.1258ZM40.5788 30.6302C40.6385 31.0443 40.8651 31.192 41.6429 31.3239C42.9106 31.5388 43.7948 32.0056 44.665 32.9194C45.4381 33.731 45.7454 33.8334 45.7454 33.2791C45.7454 32.0952 42.959 30.104 41.3019 30.104C40.6115 30.104 40.5135 30.1752 40.5788 30.6302ZM22.6463 37.7825C21.805 38.5746 21.7754 38.6566 21.8791 39.906C21.9442 40.6905 22.1533 41.3892 22.4064 41.6684C22.8118 42.1156 22.7971 42.1557 21.9606 42.8889C20.7913 43.9138 21.2109 44.2296 22.6645 43.4186C23.6119 42.8901 24.1371 42.7696 25.6063 42.7433C27.1253 42.7162 27.4073 42.6474 27.4771 42.286C27.5226 42.0522 27.4385 41.7858 27.2905 41.6946C27.0969 41.575 27.0902 41.3471 27.2671 40.8827C27.6043 39.9975 27.5761 39.4078 27.1542 38.5202C26.6927 37.5495 25.6785 36.9586 24.4745 36.9586C23.7113 36.9586 23.3472 37.1226 22.6463 37.7825ZM39.0902 37.3124C37.8499 37.9853 37.2944 39.7883 37.9505 41.012C38.148 41.3805 38.1212 41.5826 37.8321 41.9014C37.3829 42.3966 37.347 42.857 37.754 42.8958C37.9169 42.9114 38.6531 42.9022 39.3902 42.8755C40.3202 42.8414 41.0718 42.9776 41.8473 43.3198C43.1479 43.8942 43.3776 43.9228 43.3776 43.5096C43.3776 43.3425 43.0489 43.0121 42.6471 42.7753L41.9166 42.3446L42.5245 41.7111C44.252 39.9112 43.0075 36.9434 40.5362 36.969C40.0804 36.9737 39.4297 37.1283 39.0902 37.3124ZM24.7191 38.424C24.2405 38.9017 24.3795 39.7893 24.9677 40.011C25.9522 40.3821 26.8014 39.4938 26.32 38.5961C26.0467 38.0863 25.1536 37.9903 24.7191 38.424ZM40.5388 38.4919C40.3712 38.6935 40.3103 39.0967 40.3958 39.4373C40.513 39.9037 40.6953 40.0313 41.2427 40.0313C42.1053 40.0313 42.577 39.3281 42.1937 38.6131C41.8951 38.056 40.9581 37.9875 40.5388 38.4919ZM27.999 45.0985C27.6043 45.5731 27.9166 47.4231 28.5474 48.3475C29.4884 49.7267 30.7 50.5001 32.1015 50.6159C34.3488 50.8022 36.1668 49.8187 37.0129 47.9592C37.565 46.7462 37.6029 45.1011 37.0834 44.9021C36.8774 44.8231 34.8127 44.7586 32.4953 44.7586C29.1199 44.7586 28.2254 44.8262 27.999 45.0985ZM31.8936 45.6376C31.2425 45.6896 30.6143 45.8265 30.4978 45.9416C30.1549 46.2801 31.2631 46.4398 33.4327 46.3647C35.0329 46.3091 35.4454 46.2224 35.4454 45.9404C35.4454 45.5589 34.1999 45.4528 31.8936 45.6376Z" fill="black"/>
<ellipse cx="41.3406" cy="39.3686" rx="1.55446" ry="1.68399" fill="white"/>
<ellipse cx="25.2783" cy="39.3686" rx="1.55446" ry="1.68399" fill="white"/>
<ellipse cx="32.791" cy="45.9751" rx="2.84984" ry="0.518152" fill="white"/>
</svg>
