<svg width="66" height="66" viewBox="0 0 66 66" fill="none" xmlns="http://www.w3.org/2000/svg">
<circle cx="33" cy="33" r="33" fill="#FFD5DB"/>
<path fill-rule="evenodd" clip-rule="evenodd" d="M11.1751 8.02784C11.0392 8.08079 10.9784 8.17233 11.0034 8.28617C11.0287 8.40111 11.2166 8.56364 12.1185 9.25062C12.4733 9.52085 12.8376 9.80795 12.9281 9.88858C13.894 10.7497 14.3718 11.7238 14.3704 12.8292C14.3696 13.447 14.2309 13.9509 13.925 14.4476C13.6559 14.8845 13.4478 15.1235 12.6174 15.949C11.9992 16.5636 11.7797 16.8102 11.3792 17.3398C9.61455 19.6731 8.93803 21.4184 9.00442 23.4666C9.05315 24.9704 9.50635 26.4839 10.3409 27.9301C11.0517 29.1616 11.8983 30.151 13.1044 31.1597C14.1627 32.0448 15.1426 32.6113 16.121 32.9035C16.3939 32.985 16.4112 32.9869 16.9785 32.9959C17.5454 33.0049 17.5609 33.0038 17.718 32.9423C18.329 32.7033 18.8912 32.1674 19.2279 31.503C19.3818 31.1993 19.4752 30.9528 19.6262 30.452C19.9034 29.5323 19.9998 28.9782 20 28.3029C20.0001 27.6401 19.8846 27.142 19.6357 26.7333C19.4164 26.373 19.1673 26.2381 18.6262 26.1865C18.2374 26.1495 18.0335 26.1019 17.716 25.9739C17.1751 25.756 16.6172 25.3838 15.944 24.792C15.5085 24.4091 15.2694 24.1577 14.9222 23.7172C14.3619 23.0062 13.9575 22.2872 13.6971 21.5391C13.4737 20.897 13.5382 20.3507 13.9133 19.7105C14.1068 19.3803 14.3077 19.1131 14.8498 18.4652C15.1183 18.1443 15.4109 17.7796 15.5002 17.6546C16.0059 16.9464 16.3715 16.0512 16.5241 15.148C16.5973 14.7145 16.5886 13.7924 16.5071 13.3429C16.3664 12.5669 16.1208 11.9288 15.6922 11.2255C14.9166 9.95253 13.5576 8.80784 12.0599 8.16576C11.7448 8.0307 11.685 8.01368 11.4881 8.00323C11.3333 7.99499 11.2406 8.00228 11.1751 8.02784Z" fill="#DC4559"/>
<path fill-rule="evenodd" clip-rule="evenodd" d="M53.8249 7.02895C53.9608 7.08402 54.0216 7.17922 53.9966 7.29761C53.9713 7.41716 53.7834 7.58619 52.8815 8.30064C52.5267 8.58168 52.1624 8.88026 52.0719 8.96413C51.106 9.85971 50.6282 10.8728 50.6296 12.0224C50.6304 12.6649 50.7691 13.189 51.075 13.7055C51.3441 14.1599 51.5522 14.4084 52.3826 15.267C53.0008 15.9062 53.2203 16.1626 53.6208 16.7134C55.3854 19.14 56.062 20.9552 55.9956 23.0853C55.9468 24.6492 55.4936 26.2232 54.6591 27.7273C53.9483 29.0081 53.1017 30.0371 51.8956 31.0861C50.8373 32.0066 49.8574 32.5957 48.879 32.8997C48.6061 32.9844 48.5888 32.9864 48.0215 32.9958C47.4546 33.0051 47.4391 33.0039 47.282 32.94C46.671 32.6914 46.1088 32.1341 45.7721 31.4431C45.6182 31.1272 45.5248 30.8709 45.3738 30.3501C45.0966 29.3936 45.0002 28.8173 45 28.115C44.9999 27.4257 45.1154 26.9077 45.3643 26.4826C45.5836 26.1079 45.8327 25.9676 46.3738 25.914C46.7626 25.8755 46.9665 25.8259 47.284 25.6929C47.8249 25.4662 48.3828 25.0791 49.056 24.4637C49.4915 24.0655 49.7306 23.804 50.0778 23.3459C50.6381 22.6065 51.0425 21.8587 51.3029 21.0807C51.5263 20.4129 51.4618 19.8447 51.0867 19.1789C50.8932 18.8355 50.6923 18.5576 50.1502 17.8838C49.8817 17.5501 49.5891 17.1708 49.4998 17.0408C48.9941 16.3042 48.6285 15.3733 48.4759 14.4339C48.4027 13.9831 48.4114 13.0241 48.4929 12.5567C48.6336 11.7496 48.8792 11.0859 49.3078 10.3545C50.0834 9.03063 51.4424 7.84015 52.9401 7.17239C53.2552 7.03192 53.315 7.01423 53.5119 7.00336C53.6667 6.99479 53.7594 7.00237 53.8249 7.02895Z" fill="#FF7F90"/>
<path d="M44.1215 54.5903C38.4694 56.8929 26.1742 55.5497 20.7332 54.5903C7.80465 46.1199 12.6935 33.4487 16.7539 28.1719C38.9241 8.12683 50.131 30.3306 53.2982 38.0402C56.4654 45.7499 51.1868 51.712 44.1215 54.5903Z" fill="#DC4559"/>
<path d="M30.987 53.1111C18.9908 53.7697 13.6847 44.6724 12.5312 40.0414C12.5312 48.6859 16.0741 51.8761 20.8528 55.0664C24.6758 57.6186 35.7932 56.8845 40.874 56.1984C42.3022 55.9583 46.3613 54.5107 51.173 50.6412C57.1876 45.8044 53.3976 38.0861 53.6448 38.8065C53.8425 39.3828 53.3427 41.1048 53.068 41.8938C51.0082 46.319 45.9823 52.2878 30.987 53.1111Z" fill="#AA2F3F"/>
<path fill-rule="evenodd" clip-rule="evenodd" d="M23.4779 33.4416C23.4779 33.6556 24.0608 34.2494 24.7732 34.7611C25.4857 35.273 26.0686 35.7411 26.0686 35.8015C26.0686 35.8616 25.479 35.6121 24.7582 35.2471C23.6908 34.7061 23.1504 34.5973 21.8436 34.6598C20.4047 34.7284 20.2309 34.7965 20.1565 35.3194C20.0741 35.9007 20.2775 36.0124 21.2348 35.9119C21.6296 35.8704 21.6744 35.966 21.4939 36.465C21.3739 36.7966 21.2843 37.6614 21.2949 38.3866C21.3104 39.4542 21.2177 39.7496 20.8063 39.941C20.1202 40.2597 20.343 40.711 21.1462 40.6299C21.5024 40.5939 23.1074 40.4916 24.7131 40.4027L27.6321 40.241L27.47 39.0169C27.3391 38.0309 27.3886 37.7619 27.7244 37.6329C28.3423 37.3959 28.2316 37.0026 27.4288 36.5811C26.722 36.2103 26.7264 36.2075 27.9847 36.2259C28.9293 36.2399 29.3415 36.1235 29.5996 35.7709C30.1216 35.0569 29.6169 34.5914 28.6283 34.8748C27.7244 35.1341 27.1671 34.9592 25.365 33.8504C23.9209 32.9618 23.4779 32.8657 23.4779 33.4416ZM40.8051 33.9318C38.9509 35.0499 38.4667 35.1963 37.6519 34.8867C37.1485 34.6952 36.9128 34.7279 36.6682 35.0225C36.1601 35.6347 36.9498 36.2321 38.2675 36.2321C39.3644 36.2321 39.3652 36.2326 38.6763 36.5935C37.9719 36.9627 37.8055 37.3145 38.2154 37.5679C38.5527 37.7764 38.7152 39.2431 38.4118 39.3444C38.269 39.3918 38.2289 39.6312 38.3229 39.876C38.4747 40.2721 38.8872 40.3133 42.058 40.2491C45.1418 40.1869 45.6335 40.119 45.705 39.7457C45.753 39.497 45.5732 39.2464 45.2804 39.1534C44.9128 39.0368 44.7387 38.6915 44.6493 37.9008C44.5814 37.3003 44.442 36.5549 44.3394 36.2445C44.1757 35.7481 44.2578 35.6699 45.0205 35.5968C45.6874 35.5328 45.8879 35.394 45.8879 34.9955C45.8879 34.5344 45.7312 34.4825 44.463 34.525C43.5863 34.5543 42.465 34.8271 41.5484 35.2341C40.7292 35.5981 40.0587 35.8554 40.0587 35.8062C40.0587 35.7569 40.6999 35.2909 41.4836 34.7704C42.8052 33.8931 43.3446 33.0517 42.5847 33.0532C42.4067 33.0535 41.6057 33.4488 40.8051 33.9318ZM24.8188 37.891C24.8859 38.4762 25.0323 38.6226 25.5505 38.6226C26.0686 38.6226 26.1982 38.493 26.1982 37.9749C26.1982 37.4567 26.0518 37.3104 25.4665 37.2433C24.8012 37.1671 24.7427 37.2256 24.8188 37.891ZM42.2251 37.5863C41.9961 38.1827 42.3176 38.7521 42.8829 38.7521C43.4088 38.7521 43.8428 37.9205 43.5578 37.4591C43.3112 37.0601 42.3933 37.1477 42.2251 37.5863ZM33.0334 42.6916C32.803 42.8761 32.3997 43.4046 32.137 43.8663C31.7509 44.5451 31.7227 44.7684 31.989 45.0321C32.2546 45.2951 32.4538 45.1974 33.015 44.5293C33.5108 43.9388 33.9725 43.6779 34.6181 43.6225C35.3264 43.5621 35.5249 43.4315 35.5249 43.0269C35.5249 42.6077 35.3267 42.4942 34.4886 42.4326C33.9155 42.3903 33.265 42.5061 33.0334 42.6916Z" fill="black"/>
<ellipse cx="42.8092" cy="37.9752" rx="1.16584" ry="1.0363" fill="white"/>
<ellipse cx="25.4512" cy="37.9752" rx="1.16584" ry="1.0363" fill="white"/>
</svg>
