<svg width="66" height="66" viewBox="0 0 66 66" fill="none" xmlns="http://www.w3.org/2000/svg">
<circle cx="33" cy="33" r="33" fill="#E8EFFF"/>
<path d="M26.9882 13.0574C23.4382 15.4305 17.8893 14.0462 15.5585 13.0574L12.4151 11.8874C9.3251 10.0736 7.10786 14.0943 11.3399 16.4554C19.9457 21.2568 29.1841 18.456 32.2993 16.4554C30.3511 15.5821 27.5484 14.1152 26.9882 13.0574Z" fill="#C7C8FE"/>
<path d="M20.8122 14.3054C20.1405 14.5069 17.5877 13.7456 16.177 13.2977C18.058 7.85636 23.1634 4.64696 31.0904 9.95395C39.2793 15.4363 40.1597 13.9023 42.7797 14.1039C43.9217 15.8505 43.3843 17.4106 42.3761 18.5526C42.1298 18.5974 38.8829 18.5526 35.1882 17.4106C27.264 14.9614 28.0321 13.0598 24.91 12.4395C22.177 11.8965 21.3497 13.5664 20.8122 14.3054Z" fill="#6B6DCA"/>
<path d="M48.2209 13.0444C43.489 3.2886 34.7186 7.65512 31.6284 10.275C32.4345 11.014 34.9201 12.2903 36.1293 13.0444C42.444 9.95423 45.1977 16.0845 41.7717 19.2919C38.6144 22.2477 34.1812 26.2632 31.6284 28.8831V35.1978C34.3153 30.8513 52.319 21.4936 48.2209 13.0444Z" fill="#C7C8FE"/>
<path d="M20.5442 19.0753C19.3081 19.0753 16.4463 18.5379 15.5059 18.2692C15.5059 23.9959 22.4971 27.9032 31.6284 35.265V28.9503C27.6644 26.4005 21.0252 22.1149 20.5442 19.0753Z" fill="#6B6DCA"/>
<path d="M48.2991 18.2187C48.796 17.2692 48.9708 15.0614 48.5006 13.6507C49.6864 13.6507 51.5634 13.0083 54.2174 12.5467C56.8713 12.0852 56.8713 15.9558 54.8381 16.7816C53.7991 17.2037 50.0307 17.977 48.2991 18.2187Z" fill="#6B6DCA"/>
<path d="M44.1087 56.6822C38.6206 58.918 26.6823 57.6138 21.3991 56.6822C8.84578 48.4577 13.5927 36.1542 17.5353 31.0305C39.0621 11.5672 49.9438 33.1266 53.0191 40.6125C56.0943 48.0984 50.9689 53.8875 44.1087 56.6822Z" fill="#6B6DCA"/>
<path d="M31.3552 55.2468C19.7071 55.8863 14.5551 47.053 13.4351 42.5564C13.4351 50.95 16.8751 54.0477 21.5151 57.1453C25.2272 59.6234 36.0219 58.9107 40.9553 58.2445C42.342 58.0113 46.2834 56.6057 50.9554 52.8486C56.7955 48.1522 53.1154 40.6579 53.3554 41.3573C53.5474 41.9169 53.0621 43.589 52.7954 44.355C50.7954 48.6518 45.9154 54.4474 31.3552 55.2468Z" fill="#5052B0"/>
<path fill-rule="evenodd" clip-rule="evenodd" d="M22.5407 31.9447C20.9532 32.5258 19.0627 34.5374 19.0627 35.6454C19.0627 36.3216 19.3892 36.1657 20.0504 35.1741C20.9298 33.8554 22.338 33.0011 23.9138 32.8306C25.0811 32.7043 25.2869 32.6111 25.2869 32.2091C25.2869 31.8241 25.1124 31.7259 24.3474 31.6817C23.8307 31.6519 23.0178 31.7701 22.5407 31.9447ZM40.5353 31.9355C40.3195 32.5019 40.5729 32.7242 41.6301 32.8942C42.893 33.0976 43.7695 33.5675 44.6444 34.5102C45.1849 35.0925 45.4193 35.2089 45.6278 34.9988C45.8366 34.7886 45.7316 34.5065 45.1874 33.8147C44.0319 32.3455 40.8662 31.0668 40.5353 31.9355ZM23.5887 38.1176C22.676 38.517 21.8833 39.7395 21.8822 40.7491C21.8817 41.1538 22.1391 41.8675 22.4543 42.3351L23.0274 43.1853L22.2194 43.6881C21.7751 43.9646 21.4115 44.3418 21.4115 44.5265C21.4115 44.9879 21.7095 44.948 22.7134 44.3515C23.3334 43.9833 24.1325 43.8023 25.5852 43.7011C27.6366 43.5585 28.0675 43.3204 27.4324 42.6809C27.2098 42.4567 27.164 42.2209 27.3009 42.0031C27.6467 41.4534 27.5459 39.8972 27.1175 39.1669C26.7006 38.4563 25.5314 37.7602 24.7817 37.7761C24.5428 37.7813 24.0059 37.9348 23.5887 38.1176ZM39.3252 38.1176C37.8674 38.7557 37.2349 40.5926 37.9761 42.0357C38.2972 42.661 38.2972 42.7334 37.9761 42.7334C37.7556 42.7334 37.6177 42.9493 37.6177 43.2948C37.6177 43.8366 37.6767 43.8551 39.3206 43.8269C40.6532 43.804 41.2514 43.9123 42.0728 44.3255C42.6499 44.6159 43.2115 44.7635 43.3209 44.6533C43.526 44.4468 43.052 43.8534 42.3786 43.4738C42.0397 43.283 42.0683 43.1709 42.625 42.5044C43.7806 41.1218 43.296 38.7661 41.72 38.1029C40.7366 37.6893 40.2974 37.6919 39.3252 38.1176ZM24.8338 39.3209C24.6309 39.5255 24.4648 39.8372 24.4648 40.0136C24.4648 40.4639 25.1248 41.0779 25.6089 41.0779C26.5648 41.0779 26.9573 39.643 26.1244 39.1941C25.5072 38.8616 25.2667 38.8853 24.8338 39.3209ZM40.5536 39.5073C40.354 39.8142 40.2575 40.2406 40.3394 40.4554C40.5365 40.9726 41.5265 41.206 41.9659 40.8388C42.4599 40.4261 42.3997 39.4846 41.8609 39.1941C41.1901 38.8328 40.9562 38.8888 40.5536 39.5073ZM36.091 46.5377C34.5533 46.8121 30.2267 46.8667 27.9292 46.6408C26.3652 46.4871 26.1089 46.5134 26.1089 46.8284C26.1089 47.0301 26.294 47.2531 26.52 47.3241C27.2793 47.5622 30.2084 47.9269 31.4009 47.9316C32.5771 47.9364 32.5839 47.9409 32.9275 48.9339C33.141 49.5512 33.5171 50.0691 33.9142 50.2926C34.5228 50.6351 34.5879 50.6218 35.1708 50.0346C35.509 49.694 35.8571 49.0645 35.9443 48.6355C36.0838 47.9484 36.2282 47.825 37.1538 47.6003C37.9639 47.4035 38.2049 47.2366 38.2049 46.8721C38.2049 46.3121 37.7549 46.2409 36.091 46.5377ZM34.2708 47.6005C34.0181 47.8562 34.0531 49.7745 34.3133 49.9365C34.4335 50.0114 34.5862 49.9842 34.6524 49.8764C34.8368 49.576 34.4716 47.3976 34.2708 47.6005Z" fill="black"/>
<circle cx="41.4507" cy="40.2059" r="1.25779" fill="white"/>
<circle cx="25.3518" cy="40.2059" r="1.25779" fill="white"/>
<path d="M35.1628 48.6337C35.1628 49.3979 34.7686 50.0173 34.2823 50.0173C33.796 50.0173 33.4019 49.3979 33.4019 48.6337C33.4019 47.8696 33.796 47.7533 34.2823 47.7533C34.7686 47.7533 35.1628 47.8696 35.1628 48.6337Z" fill="#7D2A2A"/>
</svg>
