<svg width="66" height="66" viewBox="0 0 66 66" fill="none" xmlns="http://www.w3.org/2000/svg">
<circle cx="33" cy="33" r="33" fill="#E5EFFF"/>
<path d="M28.7461 26.0379C27.5101 21.0158 23.7054 11.5549 18.3748 13.8878C11.7116 16.8039 15.7181 42.0752 10.4994 52.9998" stroke="#879AB6" stroke-width="5" stroke-linecap="round" stroke-linejoin="round"/>
<path d="M36.7719 26.2977C38.0515 21.2715 41.9761 11.7994 47.4375 14.1201C54.2642 17.021 49.6736 42.5856 54.9998 53.5001" stroke="#C0CDE1" stroke-width="5" stroke-linecap="round" stroke-linejoin="round"/>
<path d="M44.1254 50.436C38.4733 52.7386 26.1781 51.3954 20.7371 50.436C7.80856 41.9656 12.6974 29.2944 16.7578 24.0176C38.928 3.97253 50.1349 26.1763 53.3021 33.8859C56.4693 41.5956 51.1907 47.5577 44.1254 50.436Z" fill="#879AB6"/>
<path d="M30.9907 48.9568C18.9944 49.6154 13.6884 40.5181 12.5349 35.8871C12.5349 44.5316 16.0778 47.7219 20.8565 50.9121C24.6795 53.4643 35.7969 52.7302 40.8777 52.0441C42.3058 51.804 46.365 50.3564 51.1767 46.4869C57.1913 41.6501 53.4012 33.9318 53.6484 34.6522C53.8462 35.2285 53.3463 36.9505 53.0717 37.7395C51.0119 42.1647 45.986 48.1335 30.9907 48.9568Z" fill="#687A96"/>
<path fill-rule="evenodd" clip-rule="evenodd" d="M42.0368 23.8094C41.7777 24.1216 41.799 24.3242 42.1467 24.855C43.2319 26.5113 45.6465 28.0171 46.8468 27.786C47.5647 27.6479 47.4282 27.2479 46.5696 26.973C45.4266 26.6067 44.1757 25.5911 43.4477 24.4377C42.7462 23.3265 42.5208 23.2262 42.0368 23.8094ZM22.4356 24.511C21.6473 25.0882 20.9542 25.3424 19.8449 25.4615C18.7435 25.5799 18.3303 25.7302 18.3303 26.0129C18.3303 26.5743 20.283 26.6559 21.7786 26.1572C23.373 25.6253 24.5585 24.6786 24.3409 24.1112C24.1103 23.5104 23.6789 23.6009 22.4356 24.511ZM24.0815 30.5493C23.1745 31.6861 22.39 32.2048 20.7877 32.7271C19.2441 33.2305 19.055 33.6297 20.3102 33.7344C21.0719 33.7978 21.2304 33.9028 21.1322 34.2779C20.9291 35.0551 21.7442 36.5917 22.6543 37.1464C24.4031 38.2127 26.5746 37.4125 27.2164 35.4655C27.656 34.131 27.1109 32.5556 25.978 31.8861C25.3241 31.5001 25.251 31.3579 25.5008 30.9581C25.8402 30.4146 25.6277 29.6399 25.1391 29.6399C24.9567 29.6399 24.4808 30.0493 24.0815 30.5493ZM39.445 30.0728C39.445 30.3109 39.6398 30.721 39.8779 30.984C40.2852 31.4343 40.2704 31.5042 39.6253 32.1778C39.2484 32.5711 38.8165 33.2473 38.6655 33.6805C38.0527 35.438 39.7077 37.6726 41.6207 37.6702C43.3801 37.6682 45.1154 35.7077 44.8032 34.075C44.7221 33.6507 44.8297 33.2994 45.1053 33.0874C45.6522 32.6675 45.238 32.3532 43.8436 32.1302C43.1957 32.0268 42.441 31.5869 41.5744 30.8076C40.2272 29.5964 39.445 29.3264 39.445 30.0728ZM24.688 34.1613C24.3121 34.6142 24.5437 35.4919 25.0951 35.7033C25.6049 35.8989 26.4912 35.429 26.4912 34.9632C26.4912 33.8382 25.3699 33.3398 24.688 34.1613ZM42.0461 34.1613C41.6702 34.6142 41.9018 35.4919 42.4531 35.7033C42.963 35.8989 43.8493 35.429 43.8493 34.9632C43.8493 33.8382 42.728 33.3398 42.0461 34.1613ZM30.9139 38.3843C29.4455 39.133 28.4959 40.5522 28.3589 42.2025C28.2208 43.8699 28.3687 43.9381 29.9105 42.9176C30.8108 42.3217 31.266 42.2051 32.6901 42.2051C34.0233 42.2051 34.7078 42.3598 35.8439 42.9176C36.6416 43.3095 37.4286 43.63 37.5926 43.63C37.9704 43.63 37.9849 41.8406 37.6149 40.8618C37.24 39.8693 36.1221 38.7185 35.1138 38.2871C33.964 37.7951 31.979 37.841 30.9139 38.3843ZM32.3852 38.6296C31.3955 38.7858 31.4947 39.169 32.5774 39.3721C33.6337 39.57 34.3516 39.362 34.2 38.9016C34.0829 38.5467 33.4826 38.4565 32.3852 38.6296Z" fill="black"/>
<circle cx="42.8123" cy="34.728" r="1.16584" fill="white"/>
<ellipse cx="32.9676" cy="39.0028" rx="1.42492" ry="0.518152" fill="white"/>
<ellipse cx="23.3249" cy="36.9271" rx="1.81353" ry="0.518152" transform="rotate(17.2756 23.3249 36.9271)" fill="#88EAFF"/>
<ellipse cx="42.7553" cy="37.1715" rx="1.81353" ry="0.518152" transform="rotate(-16.7434 42.7553 37.1715)" fill="#88EAFF"/>
<circle cx="25.1956" cy="34.4692" r="1.16584" fill="white"/>
<path d="M48.1764 39.7925C48.5678 40.944 48.4473 41.5443 47.6345 41.8206C46.8217 42.097 46.1149 41.7778 45.7235 40.6263C45.9237 39.7673 45.7241 38.7502 45.9958 38.2079C46.2714 38.1055 47.1386 38.8497 48.1764 39.7925Z" fill="#88EAFF"/>
<path d="M20.7679 40.2494C20.451 41.4236 20.0163 41.8548 19.1874 41.631C18.3586 41.4073 17.9498 40.7484 18.2667 39.5742C18.9118 38.9727 19.3132 38.017 19.8411 37.7182C20.1269 37.7868 20.432 38.8881 20.7679 40.2494Z" fill="#88EAFF"/>
</svg>
