<svg width="66" height="66" viewBox="0 0 66 66" fill="none" xmlns="http://www.w3.org/2000/svg">
<circle cx="33" cy="33" r="33" fill="#F6FFFB"/>
<path d="M23.3643 20.2418C23.767 17.6147 23.5656 12.748 19.5383 14.2985C14.5041 16.2365 2.82473 25.1516 13.0945 29.5446" stroke="#80FFC2" stroke-width="5" stroke-linecap="round" stroke-linejoin="round"/>
<path d="M43.6011 20.2418C43.1983 17.6147 43.3997 12.748 47.4271 14.2985C52.4613 16.2365 64.1406 25.1516 53.8708 29.5446" stroke="#B7FFDC" stroke-width="5" stroke-linecap="round" stroke-linejoin="round"/>
<path d="M45.1584 50.3033C39.5062 52.6059 27.2111 51.2627 21.7701 50.3033C8.84152 41.833 13.7303 29.1617 17.7908 23.8849C39.961 3.83984 51.1679 26.0436 54.3351 33.7533C57.5022 41.4629 52.2236 47.425 45.1584 50.3033Z" fill="#80FFC2"/>
<path d="M32.0239 48.8241C20.0276 49.4827 14.7216 40.3854 13.5681 35.7544C13.5681 44.3989 17.111 47.5892 21.8897 50.7794C25.7127 53.3316 36.8301 52.5975 41.9109 51.9114C43.339 51.6713 47.3982 50.2237 52.2099 46.3542C58.2245 41.5174 54.4345 33.7991 54.6816 34.5195C54.8794 35.0958 54.3795 36.8179 54.1049 37.6068C52.0451 42.032 47.0192 48.0008 32.0239 48.8241Z" fill="#5CC794"/>
<path fill-rule="evenodd" clip-rule="evenodd" d="M22.1517 27.4373C21.0739 27.7616 19.6221 28.7321 19.6221 29.1283C19.6221 29.7804 20.0767 29.769 21.2983 29.0863C22.4001 28.4705 22.6748 28.4238 24.2414 28.5878C27.2954 28.9075 27.2648 28.9099 27.2648 28.3534C27.2648 27.4495 24.0339 26.8704 22.1517 27.4373ZM40.0891 27.4207C39.4041 27.5318 39.1823 27.6945 39.1823 28.086C39.1823 28.5609 39.3551 28.6042 41.2549 28.6042C42.9394 28.6042 43.5122 28.7132 44.3138 29.1871C45.433 29.8485 46.0478 29.9317 46.0478 29.4215C46.0478 28.1772 42.5868 27.015 40.0891 27.4207ZM49.5941 32.825C49.0044 33.4766 49.0293 33.9906 49.6412 33.7963C50.0236 33.6751 50.1586 33.8077 50.2824 34.4266C50.4648 35.3388 51.1656 35.4785 51.8369 34.7367C52.4791 34.0271 52.3851 33.5701 51.6353 33.7582C51.0933 33.8942 50.9933 33.8165 50.9229 33.2056C50.8236 32.3457 50.1917 32.1646 49.5941 32.825ZM26.064 34.6984C25.1435 35.7383 23.6515 35.7749 22.4761 34.7857C21.8903 34.293 21.5846 34.1808 21.3815 34.3839C20.6959 35.0694 22.8437 36.7651 24.3976 36.7651C25.929 36.7651 27.7902 35.464 27.6083 34.5204C27.4661 33.7815 26.8083 33.8572 26.064 34.6984ZM38.5268 34.3132C38.2507 34.6461 38.316 34.8357 38.9263 35.473C40.3476 36.9565 42.4485 37.1032 43.9677 35.8249C44.7338 35.1803 45.0374 34.1743 44.4659 34.1743C44.3084 34.1743 43.8332 34.4658 43.4099 34.822C42.3309 35.73 41.1287 35.6842 39.9992 34.6924C38.9727 33.7914 38.9624 33.7885 38.5268 34.3132ZM45.1708 37.1607C44.7084 37.6234 44.8271 38.0604 45.4154 38.0604C45.6385 38.0604 45.7887 38.3148 45.7887 38.6928C45.7887 39.5237 46.2105 39.754 46.9792 39.3426C47.7088 38.9522 47.8072 38.3195 47.1388 38.3195C46.8033 38.3195 46.6779 38.1226 46.6854 37.6071C46.6976 36.7503 45.8356 36.4961 45.1708 37.1607ZM31.6834 38.8219C31.4261 39.1063 31.2287 39.7315 31.2287 40.2626C31.2287 42.794 34.1347 42.822 34.2065 40.2911C34.2539 38.6216 32.6891 37.7104 31.6834 38.8219ZM39.9417 38.8667C39.8437 39.025 39.9072 39.2434 40.0826 39.3519C40.3057 39.4895 40.3261 39.6955 40.1507 40.0354C39.7782 40.7577 40.0401 41.1693 40.8725 41.1693C41.7658 41.1693 42.0821 40.7774 41.4668 40.4331C41.0917 40.2232 41.0749 40.1175 41.3609 39.7729C41.5482 39.547 41.6339 39.1861 41.551 38.9706C41.3769 38.5169 40.2046 38.441 39.9417 38.8667Z" fill="black"/>
</svg>
