<svg width="24" height="24" viewBox="0 0 24 24" fill="none" xmlns="http://www.w3.org/2000/svg">
<path d="M4 9.81533H20M4 9.81533V18.6574C4 18.8808 4.08872 19.095 4.24665 19.2529C4.40457 19.4108 4.61877 19.4995 4.84211 19.4995H19.1579C19.3812 19.4995 19.5954 19.4108 19.7534 19.2529C19.9113 19.095 20 18.8808 20 18.6574V9.81533M4 9.81533V5.6048C4 5.38146 4.08872 5.16727 4.24665 5.00934C4.40457 4.85142 4.61877 4.7627 4.84211 4.7627H19.1579C19.3812 4.7627 19.5954 4.85142 19.7534 5.00934C19.9113 5.16727 20 5.38146 20 5.6048V9.81533" stroke="#3D52D5" stroke-width="2" stroke-linejoin="round"/>
<path d="M8.63117 3.5V6.86842M15.368 3.5V6.86842M13.6838 16.1316H16.2101M7.78906 16.1316H10.3154M13.6838 12.7632H16.2101M7.78906 12.7632H10.3154" stroke="#3D52D5" stroke-width="2" stroke-linecap="round" stroke-linejoin="round"/>
</svg>
