<svg width="24" height="24" viewBox="0 0 24 24" fill="none" xmlns="http://www.w3.org/2000/svg">
<path d="M12 2C14.6522 2 17.1957 3.05357 19.0711 4.92893C20.9464 6.8043 22 9.34784 22 12C22 14.6522 20.9464 17.1957 19.0711 19.0711C17.1957 20.9464 14.6522 22 12 22C9.34784 22 6.8043 20.9464 4.92893 19.0711C3.05357 17.1957 2 14.6522 2 12C2 9.34784 3.05357 6.8043 4.92893 4.92893C6.8043 3.05357 9.34784 2 12 2ZM3.875 12C3.875 14.1549 4.73102 16.2215 6.25476 17.7452C7.77849 19.269 9.84512 20.125 12 20.125C14.1549 20.125 16.2215 19.269 17.7452 17.7452C19.269 16.2215 20.125 14.1549 20.125 12C20.125 9.84512 19.269 7.77849 17.7452 6.25476C16.2215 4.73102 14.1549 3.875 12 3.875C9.84512 3.875 7.77849 4.73102 6.25476 6.25476C4.73102 7.77849 3.875 9.84512 3.875 12ZM12.625 7.9375V11.6775L15.16 12.6925C15.3834 12.7899 15.5601 12.9704 15.6526 13.1959C15.7452 13.4213 15.7463 13.6739 15.6558 13.9002C15.5652 14.1264 15.3902 14.3085 15.1676 14.4079C14.9451 14.5073 14.6927 14.5161 14.4637 14.4325L11.3387 13.1825C11.165 13.1129 11.016 12.9928 10.9111 12.8377C10.8061 12.6826 10.75 12.4997 10.75 12.3125V7.9375C10.75 7.68886 10.8488 7.4504 11.0246 7.27459C11.2004 7.09877 11.4389 7 11.6875 7C11.9361 7 12.1746 7.09877 12.3504 7.27459C12.5262 7.4504 12.625 7.68886 12.625 7.9375Z" fill="#3D52D5"/>
</svg>
