<svg width="156" height="222" viewBox="0 0 156 222" fill="none" xmlns="http://www.w3.org/2000/svg">
<rect width="156" height="222" rx="20" fill="#19998B"/>
<mask id="mask0_728_1337" style="mask-type:alpha" maskUnits="userSpaceOnUse" x="0" y="0" width="156" height="222">
<rect width="156" height="222" rx="20" fill="#DFE1DF"/>
</mask>
<g mask="url(#mask0_728_1337)">
<g filter="url(#filter0_f_728_1337)">
<ellipse cx="80.4525" cy="121" rx="105.453" ry="121" fill="#19998B"/>
<ellipse cx="80.4533" cy="120.999" rx="87.8771" ry="100.833" fill="#B7FFDC" fill-opacity="0.3"/>
<ellipse cx="80.4521" cy="121" rx="70.3017" ry="80.6667" fill="#19998B"/>
<ellipse cx="80.4528" cy="121" rx="52.7263" ry="60.5" fill="#B7FFDC" fill-opacity="0.3"/>
<ellipse cx="80.4526" cy="121" rx="35.1508" ry="40.3333" fill="#19998B"/>
<ellipse cx="80.4524" cy="121.001" rx="17.5754" ry="20.1667" fill="#B7FFDC" fill-opacity="0.3"/>
</g>
</g>
<rect width="156" height="222" rx="20" fill="#19998B" fill-opacity="0.1"/>
<path d="M42.5348 42V30.3636H47.1939C48.05 30.3636 48.764 30.4905 49.3359 30.7443C49.9079 30.9981 50.3378 31.3504 50.6257 31.8011C50.9136 32.2481 51.0575 32.7633 51.0575 33.3466C51.0575 33.8011 50.9666 34.2008 50.7848 34.5455C50.603 34.8864 50.353 35.1667 50.0348 35.3864C49.7204 35.6023 49.3606 35.7557 48.9553 35.8466V35.9602C49.3984 35.9792 49.8132 36.1042 50.1996 36.3352C50.5897 36.5663 50.906 36.8902 51.1484 37.3068C51.3909 37.7197 51.5121 38.2121 51.5121 38.7841C51.5121 39.4015 51.3587 39.9527 51.0518 40.4375C50.7488 40.9186 50.3 41.2992 49.7053 41.5795C49.1106 41.8598 48.3776 42 47.5064 42H42.5348ZM44.995 39.9886H47.0007C47.6863 39.9886 48.1863 39.858 48.5007 39.5966C48.8151 39.3314 48.9723 38.9792 48.9723 38.5398C48.9723 38.2178 48.8946 37.9337 48.7393 37.6875C48.584 37.4413 48.3625 37.2481 48.0746 37.108C47.7905 36.9678 47.4515 36.8977 47.0575 36.8977H44.995V39.9886ZM44.995 35.233H46.8189C47.156 35.233 47.4553 35.1742 47.7166 35.0568C47.9818 34.9356 48.1901 34.7652 48.3416 34.5455C48.4969 34.3258 48.5746 34.0625 48.5746 33.7557C48.5746 33.3352 48.425 32.9962 48.1257 32.7386C47.8303 32.4811 47.4098 32.3523 46.8643 32.3523H44.995V35.233ZM53.1129 42V30.3636H60.9538V32.392H55.5732V35.1648H60.5504V37.1932H55.5732V39.9716H60.9766V42H53.1129ZM72.6428 30.3636V42H70.5178L65.4553 34.6761H65.37V42H62.9098V30.3636H65.0689L70.0916 37.6818H70.1939V30.3636H72.6428ZM74.6754 42V30.3636H82.5163V32.392H77.1357V35.1648H82.1129V37.1932H77.1357V39.9716H82.5391V42H74.6754ZM84.4723 42V30.3636H92.1768V32.392H86.9325V35.1648H91.6655V37.1932H86.9325V42H84.4723ZM96.2919 30.3636V42H93.8317V30.3636H96.2919ZM97.8729 32.392V30.3636H107.43V32.392H103.867V42H101.435V32.392H97.8729ZM111.464 30.3636V42H109.004V30.3636H111.464ZM22.4801 49.3636H25.5142L28.7188 57.1818H28.8551L32.0597 49.3636H35.0938V61H32.7074V53.4261H32.6108L29.5994 60.9432H27.9744L24.9631 53.3977H24.8665V61H22.4801V49.3636ZM37.1207 61V49.3636H44.9616V51.392H39.581V54.1648H44.5582V56.1932H39.581V58.9716H44.9844V61H37.1207ZM51.0426 61H46.9176V49.3636H51.0767C52.2472 49.3636 53.2547 49.5966 54.0994 50.0625C54.9441 50.5246 55.5938 51.1894 56.0483 52.0568C56.5066 52.9242 56.7358 53.9621 56.7358 55.1705C56.7358 56.3826 56.5066 57.4242 56.0483 58.2955C55.5938 59.1667 54.9403 59.8352 54.0881 60.3011C53.2396 60.767 52.2244 61 51.0426 61ZM49.3778 58.892H50.9403C51.6676 58.892 52.2794 58.7633 52.7756 58.5057C53.2756 58.2443 53.6506 57.8409 53.9006 57.2955C54.1544 56.7462 54.2812 56.0379 54.2812 55.1705C54.2812 54.3106 54.1544 53.608 53.9006 53.0625C53.6506 52.517 53.2775 52.1155 52.7812 51.858C52.285 51.6004 51.6733 51.4716 50.946 51.4716H49.3778V58.892ZM61.0185 49.3636V61H58.5582V49.3636H61.0185ZM62.5994 51.392V49.3636H72.1562V51.392H68.5938V61H66.1619V51.392H62.5994ZM76.1903 49.3636V61H73.7301V49.3636H76.1903ZM78.2145 61V49.3636H82.8054C83.6842 49.3636 84.4342 49.5208 85.0554 49.8352C85.6804 50.1458 86.1558 50.5871 86.4815 51.1591C86.8111 51.7273 86.9759 52.3958 86.9759 53.1648C86.9759 53.9375 86.8092 54.6023 86.4759 55.1591C86.1425 55.7121 85.6596 56.1364 85.027 56.4318C84.3982 56.7273 83.6368 56.875 82.7429 56.875H79.669V54.8977H82.3452C82.8149 54.8977 83.205 54.8333 83.5156 54.7045C83.8262 54.5758 84.0573 54.3826 84.2088 54.125C84.3641 53.8674 84.4418 53.5473 84.4418 53.1648C84.4418 52.7784 84.3641 52.4527 84.2088 52.1875C84.0573 51.9223 83.8243 51.7216 83.5099 51.5852C83.1993 51.4451 82.8073 51.375 82.3338 51.375H80.6747V61H78.2145ZM84.4986 55.7045L87.3906 61H84.6747L81.8452 55.7045H84.4986ZM90.7202 61H88.0838L92.1009 49.3636H95.2713L99.2827 61H96.6463L93.7315 52.0227H93.6406L90.7202 61ZM90.5554 56.4261H96.7827V58.3466H90.5554V56.4261ZM110.416 49.3636V61H108.291L103.229 53.6761H103.143V61H100.683V49.3636H102.842L107.865 56.6818H107.967V49.3636H110.416ZM117.108 49.3636H119.54V57.4773C119.54 58.2273 119.371 58.8788 119.034 59.4318C118.701 59.9848 118.237 60.411 117.642 60.7102C117.047 61.0095 116.356 61.1591 115.568 61.1591C114.867 61.1591 114.231 61.036 113.659 60.7898C113.091 60.5398 112.64 60.161 112.307 59.6534C111.973 59.142 111.809 58.5 111.812 57.7273H114.261C114.269 58.0341 114.331 58.2973 114.449 58.517C114.57 58.733 114.735 58.8996 114.943 59.017C115.155 59.1307 115.405 59.1875 115.693 59.1875C115.996 59.1875 116.252 59.1231 116.46 58.9943C116.672 58.8617 116.833 58.6686 116.943 58.4148C117.053 58.161 117.108 57.8485 117.108 57.4773V49.3636ZM123.58 61H120.943L124.96 49.3636H128.131L132.142 61H129.506L126.591 52.0227H126.5L123.58 61ZM123.415 56.4261H129.642V58.3466H123.415V56.4261Z" fill="white"/>
<path d="M109.649 99.021C114.174 99.5216 121.742 102.146 115.816 108.638C108.409 116.753 91.8813 108.889 91.6351 96.8578C91.389 84.8263 102.349 81.0739 96.259 75.6708" stroke="#39BFB0" stroke-width="11.125" stroke-linecap="round"/>
<path d="M46.9115 99.4067C42.3867 99.9073 34.8185 102.532 40.7445 109.024C48.152 117.139 64.6793 109.275 64.9254 97.2435C65.1715 85.212 54.2115 81.4596 60.3016 76.0565" stroke="#90E5C9" stroke-width="11.125" stroke-linecap="round"/>
<path d="M98.74 139.734C98.74 157.485 90.1206 157.485 79.25 157.485C68.3794 157.485 59.374 156.327 59.374 139.734C59.374 127.904 67.0286 128.349 77.8992 128.349C88.7698 128.349 98.74 127.904 98.74 139.734Z" fill="#90E5C9"/>
<path d="M95.0993 134.326C86.6793 137.756 68.3635 135.755 60.2581 134.326C40.9987 121.708 48.2815 102.832 54.3303 94.9713C87.3568 65.1105 104.052 98.1871 108.77 109.672C113.488 121.157 105.624 130.039 95.0993 134.326Z" fill="#90E5C9"/>
<path d="M75.5323 132.123C57.6617 133.105 49.7574 119.553 48.0391 112.654C48.0391 125.531 53.3168 130.284 60.4356 135.036C66.1306 138.838 82.692 137.745 90.2608 136.723C92.3882 136.365 98.4351 134.208 105.603 128.444C114.563 121.239 108.917 109.741 109.285 110.814C109.58 111.673 108.835 114.238 108.426 115.413C105.357 122.005 97.8705 130.897 75.5323 132.123Z" fill="#39BFB0"/>
<path fill-rule="evenodd" clip-rule="evenodd" d="M87.2142 99.8019C86.4419 100.732 86.961 101.081 89.5584 101.375C92.3769 101.694 94.0268 102.322 95.0465 103.467C95.9453 104.476 96.8199 104.537 96.8199 103.592C96.8199 102.681 95.0569 101.009 93.3464 100.298C91.1006 99.3638 87.7993 99.0968 87.2142 99.8019ZM61.3133 100.41C59.7468 101.241 57.8398 102.925 57.8398 103.479C57.8398 104.373 58.7221 104.27 60.066 103.221C62.0713 101.656 63.463 101.271 66.4104 101.467C69.0063 101.64 69.6095 101.38 69.185 100.274C68.8276 99.343 63.1423 99.4414 61.3133 100.41ZM67.1441 110.902C66.0145 111.934 65.6262 112.07 64.3082 111.893C63.4684 111.78 62.3619 111.294 61.849 110.812C61.1535 110.159 60.8058 110.048 60.4789 110.375C59.7591 111.095 61.0659 112.624 63.0466 113.381C64.5525 113.956 65.0442 113.986 66.3904 113.582C68.2305 113.031 69.9125 111.508 69.7295 110.559C69.5238 109.491 68.5474 109.62 67.1441 110.902ZM86.0019 110.288C85.5901 110.784 85.6897 111.069 86.6117 112.031C88.6823 114.192 92.2461 114.337 94.3657 112.345C95.3062 111.462 95.6011 110.081 94.8492 110.081C94.6146 110.081 93.9068 110.515 93.2761 111.046C91.6687 112.399 89.8779 112.33 88.1952 110.853C86.6661 109.511 86.6507 109.506 86.0019 110.288ZM80.3147 118.584C78.6552 120.093 76.5255 120.168 75.2072 118.765C74.1277 117.616 73.2775 117.515 73.2775 118.537C73.2775 119.537 75.3187 121.187 76.93 121.489C79.378 121.948 82.8009 120.011 82.4787 118.349C82.2718 117.282 81.6755 117.347 80.3147 118.584Z" fill="black"/>
<path d="M56.875 134.523C58.8819 135.912 58.7609 135.186 60.9273 132.4C61.3776 131.821 66.2164 132.259 68.2233 133.649C70.7319 135.386 68.9098 141.645 65.7147 145.806C64.1824 147.802 58.3902 149.902 54.0511 147.627C50.5776 145.806 47.2744 141.56 45.9236 138.859C44.5728 136.157 44.0781 133.277 45.9236 130.989C48.069 128.33 50.1689 129.831 51.3268 130.989C52.4846 132.147 54.3664 132.786 56.875 134.523Z" fill="#39BFB0"/>
<path d="M100.467 134.523C98.4599 135.912 98.5809 135.186 96.4145 132.4C95.9642 131.821 91.1254 132.259 89.1185 133.649C86.6099 135.386 88.432 141.645 91.6271 145.806C93.1594 147.802 98.9516 149.902 103.291 147.627C106.764 145.806 110.067 141.56 111.418 138.859C112.769 136.157 113.264 133.277 111.418 130.989C109.273 128.33 107.173 129.831 106.015 130.989C104.857 132.147 102.975 132.786 100.467 134.523Z" fill="#39BFB0"/>
<path d="M76.7974 163.816C74.2394 163.408 62.4135 161.927 59.5631 152.382C59.5711 149.94 60.1818 149.779 61.9282 149.588C63.6746 149.397 68.8764 149.919 73.7836 152.416C78.6908 154.913 79.3555 164.224 76.7974 163.816Z" fill="#39BFB0"/>
<path d="M82.4531 163.953C85.0047 163.506 96.8068 161.847 99.5123 152.259C99.4674 149.818 98.8543 149.666 97.1052 149.502C95.3561 149.337 90.1628 149.938 85.2939 152.509C80.4251 155.08 79.9015 164.399 82.4531 163.953Z" fill="#39BFB0"/>
<defs>
<filter id="filter0_f_728_1337" x="-29" y="-4" width="218.905" height="250" filterUnits="userSpaceOnUse" color-interpolation-filters="sRGB">
<feFlood flood-opacity="0" result="BackgroundImageFix"/>
<feBlend mode="normal" in="SourceGraphic" in2="BackgroundImageFix" result="shape"/>
<feGaussianBlur stdDeviation="2" result="effect1_foregroundBlur_728_1337"/>
</filter>
</defs>
</svg>
