<svg width="156" height="222" viewBox="0 0 156 222" fill="none" xmlns="http://www.w3.org/2000/svg">
<g clip-path="url(#clip0_728_1361)">
<rect width="156" height="222" rx="20" fill="url(#paint0_linear_728_1361)"/>
<ellipse cx="90" cy="220" rx="98" ry="40" fill="#87E0C4"/>
<path d="M71.2209 172.979C68.5897 190.747 77.1607 192.016 87.9702 193.617C98.7798 195.218 107.906 195.385 110.366 178.775C112.119 166.934 104.442 166.252 93.6323 164.651C82.8227 163.051 72.9744 161.137 71.2209 172.979Z" fill="#80B2FF"/>
<path d="M103.176 191.866C101.518 193.369 96.1436 194.04 93.6638 194.187C96.6652 197.948 98.0515 200.581 102.878 200.134C107.906 199.669 105.248 189.986 103.176 191.866Z" fill="#4F83D1"/>
<path d="M52.4746 191.873C54.1326 193.377 59.5068 194.048 61.9866 194.195C58.9852 197.956 57.5989 200.589 52.7728 200.142C47.7445 199.677 50.4022 189.994 52.4746 191.873Z" fill="#5052B0"/>
<path d="M75.5408 189.306C76.953 191.043 82.1645 192.516 84.5937 193.036C81.0593 196.301 79.2918 198.695 74.5883 197.525C69.6876 196.307 73.7755 187.135 75.5408 189.306Z" fill="#4F83D1"/>
<path d="M89.7231 125.307C87.5044 116.198 81.4602 98.7055 75.0337 101.602C67.0006 105.223 62.9955 126.496 63.4413 132.312" stroke="#80B2FF" stroke-width="10" stroke-linecap="round" stroke-linejoin="round"/>
<path fill-rule="evenodd" clip-rule="evenodd" d="M124.609 114.019C118.962 116.792 112.972 121.103 109.185 124.189C107.044 125.934 106.723 129.083 108.468 131.224C110.213 133.364 113.362 133.685 115.503 131.94C118.983 129.104 124.314 125.304 129.017 122.995C131.339 121.855 133.106 121.281 134.231 121.148C134.412 121.914 134.503 123.148 134.274 124.98C133.967 127.436 133.168 130.323 132.063 133.291C129.793 139.385 126.676 144.674 125.325 146.2C123.495 148.267 123.688 151.427 125.756 153.258C127.823 155.088 130.983 154.895 132.814 152.828C135.329 149.986 138.968 143.401 141.434 136.781C142.696 133.391 143.76 129.711 144.196 126.221C144.615 122.87 144.555 118.942 142.753 115.638C140.558 111.613 136.474 110.896 133.435 111.177C130.493 111.45 127.374 112.661 124.609 114.019Z" fill="#4F83D1"/>
<path d="M109.183 166.376C101.4 167.772 86.179 162.757 79.5417 160.075C65.4383 145.858 75.0476 131.116 81.6152 125.522C115.113 106.09 123.335 137.249 125.272 147.873C127.209 158.497 118.913 164.631 109.183 166.376Z" fill="#80B2FF"/>
<path d="M92.9352 160.964C77.5541 158.567 73.2801 145.608 73.0658 139.428C70.7371 150.384 74.3678 155.382 79.5647 160.712C83.7223 164.977 98.0099 167.041 104.634 167.54C106.509 167.621 112.043 166.88 119.184 163.272C128.109 158.762 125.385 147.959 125.504 148.939C125.6 149.722 124.502 151.77 123.942 152.696C120.139 157.75 112.161 163.96 92.9352 160.964Z" fill="#4F83D1"/>
<path d="M83.5584 172.979C86.1896 190.747 77.6186 192.016 66.8091 193.617C55.9995 195.218 46.8731 195.385 44.4135 178.775C42.66 166.934 50.3375 166.252 61.147 164.651C71.9566 163.051 81.8049 161.137 83.5584 172.979Z" fill="#6B6DCA"/>
<path d="M45.0298 190.156C48.6372 192.335 50.399 183.503 50.829 178.815C50.9306 177.531 50.9726 176.53 50.9332 175.466C50.8617 173.535 48.9512 171.815 47.1396 171.141C44.2929 170.084 41.5694 171.701 41.3739 174.731C40.9948 180.606 41.7981 188.205 45.0298 190.156Z" fill="#5052B0"/>
<path d="M109.129 190.156C105.522 192.335 103.76 183.503 103.33 178.815C103.229 177.531 103.187 176.53 103.226 175.466C103.297 173.535 105.208 171.815 107.02 171.141C109.866 170.084 112.59 171.701 112.785 174.731C113.164 180.606 112.361 188.205 109.129 190.156Z" fill="#4F83D1"/>
<path d="M79.599 189.659C78.1054 191.326 72.8294 192.549 70.3781 192.951C73.7522 196.382 75.4033 198.858 80.1573 197.914C85.1107 196.932 81.4661 187.575 79.599 189.659Z" fill="#5052B0"/>
<path d="M88.2899 177.065C89.9011 180.959 80.905 181.373 76.2054 181.093C74.9212 181.001 73.9254 180.892 72.8793 180.693C70.9807 180.332 69.5673 178.184 69.1741 176.292C68.5563 173.319 70.5645 170.869 73.59 171.132C79.4544 171.64 86.8464 173.577 88.2899 177.065Z" fill="#5052B0"/>
<path d="M48.1201 106.567C44.0931 110.598 36.4704 110.234 33.1624 109.547L28.7436 108.836C24.2268 107.268 22.3735 113.108 28.5276 115.094C41.0417 119.134 52.4015 113.06 55.9566 109.629C53.1794 108.994 49.1291 107.805 48.1201 106.567Z" fill="#C7C8FE"/>
<path d="M40.3623 109.812C39.5357 110.251 35.9964 109.92 34.0335 109.702C35.0763 102.09 40.9209 96.5589 52.6785 101.437C64.8246 106.477 65.5769 104.24 69.0581 103.82C71.008 105.808 70.7115 107.99 69.69 109.747C69.3793 109.87 65.1184 110.658 59.9854 110.127C48.9766 108.988 49.486 106.299 45.2385 106.301C41.5202 106.303 40.8729 108.705 40.3623 109.812Z" fill="#6B6DCA"/>
<path d="M75.9025 101.016C67.1663 89.4821 56.8271 97.4833 53.4662 101.718C54.7139 102.474 58.2995 103.497 60.0785 104.168C67.5367 98.4778 72.7389 105.782 69.0916 110.873C65.7303 115.564 60.9757 121.975 58.3181 126.07L59.9646 134.334C62.3476 127.945 83.4687 111.004 75.9025 101.016Z" fill="#C7C8FE"/>
<path d="M41.2549 116.123C39.6373 116.445 35.752 116.488 34.4512 116.382C35.9444 123.876 46.1125 127.167 59.9819 134.42L58.3354 126.156C52.4829 123.853 42.6769 119.976 41.2549 116.123Z" fill="#6B6DCA"/>
<path d="M77.3541 107.766C77.7568 106.393 77.41 103.459 76.4267 101.735C77.9786 101.426 80.2675 100.096 83.6204 98.7997C86.9732 97.5036 87.9824 102.569 85.5368 104.18C84.2872 105.003 79.5572 106.998 77.3541 107.766Z" fill="#6B6DCA"/>
<path d="M75.2194 162.386C68.3825 166.36 52.3648 166.854 45.2106 166.604C27.095 158.067 31.0828 140.927 35.3411 133.425C60.1723 103.708 78.5554 130.176 84.0093 139.497C89.4633 148.818 83.7656 157.419 75.2194 162.386Z" fill="#6B6DCA"/>
<path d="M58.1 162.858C42.8267 165.866 34.3783 155.15 32.0632 149.416C33.622 160.508 38.743 163.962 45.4497 167.194C50.8151 169.779 64.9471 166.832 71.3424 165.036C73.1315 164.47 78.0786 161.881 83.5546 156.049C90.3995 148.758 84.1449 139.538 84.5919 140.418C84.9496 141.122 84.6188 143.422 84.4087 144.483C82.5638 150.533 77.1915 159.097 58.1 162.858Z" fill="#5052B0"/>
<path d="M43.0348 44V32.3636H47.6939C48.55 32.3636 49.264 32.4905 49.8359 32.7443C50.4079 32.9981 50.8378 33.3504 51.1257 33.8011C51.4136 34.2481 51.5575 34.7633 51.5575 35.3466C51.5575 35.8011 51.4666 36.2008 51.2848 36.5455C51.103 36.8864 50.853 37.1667 50.5348 37.3864C50.2204 37.6023 49.8606 37.7557 49.4553 37.8466V37.9602C49.8984 37.9792 50.3132 38.1042 50.6996 38.3352C51.0897 38.5663 51.406 38.8902 51.6484 39.3068C51.8909 39.7197 52.0121 40.2121 52.0121 40.7841C52.0121 41.4015 51.8587 41.9527 51.5518 42.4375C51.2488 42.9186 50.8 43.2992 50.2053 43.5795C49.6106 43.8598 48.8776 44 48.0064 44H43.0348ZM45.495 41.9886H47.5007C48.1863 41.9886 48.6863 41.858 49.0007 41.5966C49.3151 41.3314 49.4723 40.9792 49.4723 40.5398C49.4723 40.2178 49.3946 39.9337 49.2393 39.6875C49.084 39.4413 48.8625 39.2481 48.5746 39.108C48.2905 38.9678 47.9515 38.8977 47.5575 38.8977H45.495V41.9886ZM45.495 37.233H47.3189C47.656 37.233 47.9553 37.1742 48.2166 37.0568C48.4818 36.9356 48.6901 36.7652 48.8416 36.5455C48.9969 36.3258 49.0746 36.0625 49.0746 35.7557C49.0746 35.3352 48.925 34.9962 48.6257 34.7386C48.3303 34.4811 47.9098 34.3523 47.3643 34.3523H45.495V37.233ZM53.6129 44V32.3636H61.4538V34.392H56.0732V37.1648H61.0504V39.1932H56.0732V41.9716H61.4766V44H53.6129ZM73.1428 32.3636V44H71.0178L65.9553 36.6761H65.87V44H63.4098V32.3636H65.5689L70.5916 39.6818H70.6939V32.3636H73.1428ZM75.1754 44V32.3636H83.0163V34.392H77.6357V37.1648H82.6129V39.1932H77.6357V41.9716H83.0391V44H75.1754ZM84.9723 44V32.3636H92.6768V34.392H87.4325V37.1648H92.1655V39.1932H87.4325V44H84.9723ZM96.7919 32.3636V44H94.3317V32.3636H96.7919ZM98.3729 34.392V32.3636H107.93V34.392H104.367V44H101.935V34.392H98.3729ZM111.964 32.3636V44H109.504V32.3636H111.964ZM53.9957 54.7102C53.9503 54.2519 53.7552 53.8958 53.4105 53.642C53.0658 53.3883 52.598 53.2614 52.0071 53.2614C51.6056 53.2614 51.2666 53.3182 50.9901 53.4318C50.7135 53.5417 50.5014 53.6951 50.3537 53.892C50.2098 54.089 50.1378 54.3125 50.1378 54.5625C50.1302 54.7708 50.1738 54.9527 50.2685 55.108C50.367 55.2633 50.5014 55.3977 50.6719 55.5114C50.8423 55.6212 51.0393 55.7178 51.2628 55.8011C51.4863 55.8807 51.7249 55.9489 51.9787 56.0057L53.0241 56.2557C53.5317 56.3693 53.9976 56.5208 54.4219 56.7102C54.8461 56.8996 55.2135 57.1326 55.5241 57.4091C55.8348 57.6856 56.0753 58.0114 56.2457 58.3864C56.42 58.7614 56.509 59.1913 56.5128 59.6761C56.509 60.3883 56.3272 61.0057 55.9673 61.5284C55.6113 62.0473 55.0961 62.4508 54.4219 62.7386C53.7514 63.0227 52.9427 63.1648 51.9957 63.1648C51.0563 63.1648 50.2382 63.0208 49.5412 62.733C48.848 62.4451 48.3063 62.0189 47.9162 61.4545C47.5298 60.8864 47.3272 60.1837 47.3082 59.3466H49.6889C49.7154 59.7367 49.8272 60.0625 50.0241 60.3239C50.2249 60.5814 50.492 60.7765 50.8253 60.9091C51.1624 61.0379 51.5431 61.1023 51.9673 61.1023C52.384 61.1023 52.7457 61.0417 53.0526 60.9205C53.3632 60.7992 53.6037 60.6307 53.7741 60.4148C53.9446 60.1989 54.0298 59.9508 54.0298 59.6705C54.0298 59.4091 53.9522 59.1894 53.7969 59.0114C53.6454 58.8333 53.4219 58.6818 53.1264 58.5568C52.8348 58.4318 52.4768 58.3182 52.0526 58.2159L50.7855 57.8977C49.8045 57.6591 49.0298 57.286 48.4616 56.7784C47.8935 56.2708 47.6113 55.5871 47.6151 54.7273C47.6113 54.0227 47.7988 53.4072 48.1776 52.8807C48.5601 52.3542 49.0848 51.9432 49.7514 51.6477C50.4181 51.3523 51.1757 51.2045 52.0241 51.2045C52.8878 51.2045 53.6416 51.3523 54.2855 51.6477C54.9332 51.9432 55.437 52.3542 55.7969 52.8807C56.1567 53.4072 56.3423 54.017 56.3537 54.7102H53.9957ZM50.7741 47.7386L51.9162 49.125L53.0582 47.7386H55.1207V47.8182L52.8139 50.3182H51.0128L48.7116 47.8182V47.7386H50.7741ZM58.1676 63V51.3636H66.0085V53.392H60.6278V56.1648H65.6051V58.1932H60.6278V60.9716H66.0312V63H58.1676ZM67.5213 53.392V51.3636H77.0781V53.392H73.5156V63H71.0838V53.392H67.5213ZM88.3849 51.3636V63H86.2599L81.1974 55.6761H81.1122V63H78.652V51.3636H80.8111L85.8338 58.6818H85.9361V51.3636H88.3849ZM95.0767 51.3636H97.5085V59.4773C97.5085 60.2273 97.34 60.8788 97.0028 61.4318C96.6695 61.9848 96.2055 62.411 95.6108 62.7102C95.0161 63.0095 94.3248 63.1591 93.5369 63.1591C92.8362 63.1591 92.1998 63.036 91.6278 62.7898C91.0597 62.5398 90.6089 62.161 90.2756 61.6534C89.9422 61.142 89.7775 60.5 89.7812 59.7273H92.2301C92.2377 60.0341 92.3002 60.2973 92.4176 60.517C92.5388 60.733 92.7036 60.8996 92.9119 61.017C93.1241 61.1307 93.3741 61.1875 93.6619 61.1875C93.965 61.1875 94.2206 61.1231 94.429 60.9943C94.6411 60.8617 94.8021 60.6686 94.9119 60.4148C95.0218 60.161 95.0767 59.8485 95.0767 59.4773V51.3636ZM99.5426 63V51.3636H107.384V53.392H102.003V56.1648H106.98V58.1932H102.003V60.9716H107.406V63H99.5426Z" fill="#2C2C2A"/>
</g>
<defs>
<linearGradient id="paint0_linear_728_1361" x1="77.5642" y1="-50" x2="77.5642" y2="222" gradientUnits="userSpaceOnUse">
<stop stop-color="#80B2FF"/>
<stop offset="1" stop-color="#F6FFF7"/>
</linearGradient>
<clipPath id="clip0_728_1361">
<rect width="156" height="222" rx="20" fill="white"/>
</clipPath>
</defs>
</svg>
