<svg width="24" height="24" viewBox="0 0 24 24" fill="none" xmlns="http://www.w3.org/2000/svg">
<path d="M4 9.81582H20M4 9.81582V18.6579C4 18.8813 4.08872 19.0955 4.24665 19.2534C4.40457 19.4113 4.61877 19.5 4.84211 19.5H19.1579C19.3812 19.5 19.5954 19.4113 19.7534 19.2534C19.9113 19.0955 20 18.8813 20 18.6579V9.81582M4 9.81582V5.60529C4 5.38195 4.08872 5.16776 4.24665 5.00983C4.40457 4.85191 4.61877 4.76318 4.84211 4.76318H19.1579C19.3812 4.76318 19.5954 4.85191 19.7534 5.00983C19.9113 5.16776 20 5.38195 20 5.60529V9.81582" stroke="#3D52D5" stroke-width="2" stroke-linejoin="round"/>
<path d="M8.63158 3.5V6.86842M15.3684 3.5V6.86842M13.6842 16.1316H16.2105M7.78947 16.1316H10.3158M13.6842 12.7632H16.2105M7.78947 12.7632H10.3158" stroke="#3D52D5" stroke-width="2" stroke-linecap="round" stroke-linejoin="round"/>
</svg>
