<svg width="20" height="20" viewBox="0 0 20 20" fill="none" xmlns="http://www.w3.org/2000/svg">
<path d="M10 0C12.6522 0 15.1957 1.05357 17.0711 2.92893C18.9464 4.8043 20 7.34784 20 10C20 12.6522 18.9464 15.1957 17.0711 17.0711C15.1957 18.9464 12.6522 20 10 20C7.34784 20 4.8043 18.9464 2.92893 17.0711C1.05357 15.1957 0 12.6522 0 10C0 7.34784 1.05357 4.8043 2.92893 2.92893C4.8043 1.05357 7.34784 0 10 0ZM1.875 10C1.875 12.1549 2.73102 14.2215 4.25476 15.7452C5.77849 17.269 7.84512 18.125 10 18.125C12.1549 18.125 14.2215 17.269 15.7452 15.7452C17.269 14.2215 18.125 12.1549 18.125 10C18.125 7.84512 17.269 5.77849 15.7452 4.25476C14.2215 2.73102 12.1549 1.875 10 1.875C7.84512 1.875 5.77849 2.73102 4.25476 4.25476C2.73102 5.77849 1.875 7.84512 1.875 10ZM10.625 5.9375V9.6775L13.16 10.6925C13.3834 10.7899 13.5601 10.9704 13.6526 11.1959C13.7452 11.4213 13.7463 11.6739 13.6558 11.9002C13.5652 12.1264 13.3902 12.3085 13.1676 12.4079C12.9451 12.5073 12.6927 12.5161 12.4637 12.4325L9.33875 11.1825C9.16496 11.1129 9.01601 10.9928 8.91108 10.8377C8.80614 10.6826 8.75004 10.4997 8.75 10.3125V5.9375C8.75 5.68886 8.84877 5.4504 9.02459 5.27459C9.2004 5.09877 9.43886 5 9.6875 5C9.93614 5 10.1746 5.09877 10.3504 5.27459C10.5262 5.4504 10.625 5.68886 10.625 5.9375Z" fill="#3D52D5"/>
</svg>
