<svg width="32" height="32" viewBox="0 0 32 32" fill="none" xmlns="http://www.w3.org/2000/svg">
<path d="M22 7H18.4286C18.4286 5.34531 17.1473 4 15.5714 4C13.9955 4 12.7143 5.34531 12.7143 7H9.14286C7.95982 7 7 8.00781 7 9.25V25.75C7 26.9922 7.95982 28 9.14286 28H22C23.183 28 24.1429 26.9922 24.1429 25.75V9.25C24.1429 8.00781 23.183 7 22 7ZM15.5714 5.875C16.1652 5.875 16.6429 6.37656 16.6429 7C16.6429 7.62344 16.1652 8.125 15.5714 8.125C14.9777 8.125 14.5 7.62344 14.5 7C14.5 6.37656 14.9777 5.875 15.5714 5.875ZM19.8571 20.125C19.8571 20.3312 19.6964 20.5 19.5 20.5H17V23.125C17 23.3312 16.8393 23.5 16.6429 23.5H14.5C14.3036 23.5 14.1429 23.3312 14.1429 23.125V20.5H11.6429C11.4464 20.5 11.2857 20.3312 11.2857 20.125V17.875C11.2857 17.6687 11.4464 17.5 11.6429 17.5H14.1429V14.875C14.1429 14.6687 14.3036 14.5 14.5 14.5H16.6429C16.8393 14.5 17 14.6687 17 14.875V17.5H19.5C19.6964 17.5 19.8571 17.6687 19.8571 17.875V20.125ZM19.8571 11.125C19.8571 11.3313 19.6964 11.5 19.5 11.5H11.6429C11.4464 11.5 11.2857 11.3313 11.2857 11.125V10.375C11.2857 10.1687 11.4464 10 11.6429 10H19.5C19.6964 10 19.8571 10.1687 19.8571 10.375V11.125Z" fill="#3D52D5"/>
</svg>
