<svg width="100" height="110" viewBox="0 0 100 110" fill="none" xmlns="http://www.w3.org/2000/svg">
<path d="M66.6772 33.2985C62.8976 29.4523 57.7498 20.5874 67.3959 15.8978C79.4534 10.0357 89.9311 18.2577 86.2619 24.6569C82.5928 31.056 76.7739 29.6813 74.3538 26.1243" stroke="#947AFF" stroke-width="7.69328" stroke-linecap="round"/>
<path d="M32.8033 33.2985C36.5829 29.4523 41.7307 20.5874 32.0846 15.8978C20.027 10.0357 9.54938 18.2577 13.2185 24.6569C16.8877 31.056 22.7066 29.6813 25.1267 26.1243" stroke="#7960DD" stroke-width="7.69328" stroke-linecap="round"/>
<path d="M65.5959 89.6888C63.6718 91.6003 58.0252 92.4948 55.4424 92.7032C58.0156 97.4186 59.0785 100.726 64.1274 100.119C69.388 99.4858 68.001 87.2994 65.5959 89.6888Z" fill="#7960DD"/>
<path d="M36.5389 91.2278C38.4629 93.1393 44.1095 94.0339 46.6923 94.2423C44.1191 98.9576 43.0563 102.265 38.0073 101.658C32.7468 101.025 34.1338 88.8385 36.5389 91.2278Z" fill="#7960DD"/>
<path d="M69.782 77.4095C69.782 94.7018 61.3854 94.7018 50.7958 94.7018C40.2062 94.7018 31.4336 93.5739 31.4336 77.4095C31.4336 65.8855 38.8903 66.3185 49.4799 66.3185C60.0695 66.3185 69.782 65.8855 69.782 77.4095Z" fill="#A38BFF"/>
<path d="M66.236 72.142C58.0337 75.4835 40.1913 73.5343 32.2954 72.142C13.5338 59.8501 20.6283 41.4619 26.5208 33.8043C58.6936 4.71535 74.9568 36.9369 79.553 48.125C84.1491 59.3131 76.4889 67.9652 66.236 72.142Z" fill="#AD98FF"/>
<path d="M47.1752 69.9967C29.7665 70.9525 22.0665 57.7507 20.3926 51.0303C20.3926 63.575 25.5339 68.2046 32.4687 72.8341C38.0165 76.5378 54.1498 75.4725 61.523 74.4769C63.5954 74.1284 69.486 72.0277 76.4686 66.4125C85.1969 59.3934 79.6969 48.1928 80.0556 49.2382C80.3425 50.0745 79.6171 52.5735 79.2186 53.7184C76.2295 60.1401 68.936 68.8019 47.1752 69.9967Z" fill="#7960DD"/>
<path fill-rule="evenodd" clip-rule="evenodd" d="M33.7578 37.1833C32.1576 37.6649 30.002 39.1059 30.002 39.694C30.002 40.6622 30.677 40.6453 32.4907 39.6317C34.1267 38.7174 34.5345 38.6481 36.8605 38.8916C41.3949 39.3663 41.3495 39.3698 41.3495 38.5435C41.3495 37.2014 36.5524 36.3417 33.7578 37.1833ZM60.3904 37.1587C59.3734 37.3237 59.0441 37.5653 59.0441 38.1465C59.0441 38.8516 59.3007 38.9158 62.1214 38.9158C64.6225 38.9158 65.473 39.0778 66.6631 39.7813C68.3249 40.7634 69.2377 40.8869 69.2377 40.1295C69.2377 38.2819 64.099 36.5563 60.3904 37.1587ZM39.5666 47.9643C38.1999 49.5083 35.9846 49.5626 34.2394 48.0939C33.3697 47.3623 32.9158 47.1957 32.6142 47.4973C31.5964 48.5151 34.7853 51.0328 37.0925 51.0328C39.3662 51.0328 42.1296 49.101 41.8596 47.7C41.6484 46.603 40.6718 46.7153 39.5666 47.9643ZM58.0709 47.3923C57.6608 47.8866 57.7578 48.1682 58.664 49.1145C60.7743 51.317 63.8936 51.5348 66.1492 49.6368C67.2867 48.6798 67.7375 47.1861 66.8889 47.1861C66.6551 47.1861 65.9496 47.6189 65.321 48.1478C63.7189 49.496 61.9341 49.428 60.2569 47.9555C58.7329 46.6176 58.7175 46.6134 58.0709 47.3923ZM47.91 54.0866C47.528 54.509 47.2349 55.4372 47.2349 56.2257C47.2349 59.9843 51.5497 60.0258 51.6562 56.268C51.7266 53.7893 49.4033 52.4364 47.91 54.0866Z" fill="#2C2C2A"/>
<path d="M76.8054 63.5299C70.4787 65.461 67.2271 66.9075 65.0728 68.1152L66.2092 75.29C67.7002 75.9351 67.1176 79.3536 70.5563 79.9688C74.8547 80.7377 87.1707 69.0311 89.1799 64.9019C91.1891 60.7726 84.7139 61.1161 76.8054 63.5299Z" fill="#7960DD"/>
<path d="M25.3684 65.4528C31.6952 67.3838 34.9467 68.8304 37.101 70.038L35.9646 77.2128C34.4737 77.858 35.0563 81.2765 31.6175 81.8916C27.3192 82.6605 15.0032 70.9539 12.9939 66.8247C10.9847 62.6955 17.4599 63.039 25.3684 65.4528Z" fill="#7960DD"/>
</svg>
