<svg width="91" height="98" viewBox="0 0 91 98" fill="none" xmlns="http://www.w3.org/2000/svg">
<path d="M76.649 29.021C81.1738 29.5216 88.742 32.1459 82.816 38.6379C75.4086 46.7529 58.8813 38.8892 58.6351 26.8578C58.389 14.8263 69.3491 11.0739 63.259 5.67077" stroke="#39BFB0" stroke-width="11.125" stroke-linecap="round"/>
<path d="M13.9115 29.4067C9.38671 29.9073 1.81854 32.5316 7.74452 39.0236C15.152 47.1386 31.6793 39.275 31.9254 27.2435C32.1715 15.212 21.2115 11.4596 27.3016 6.05652" stroke="#90E5C9" stroke-width="11.125" stroke-linecap="round"/>
<path d="M65.74 69.7341C65.74 87.4852 57.1206 87.4852 46.25 87.4852C35.3794 87.4852 26.374 86.3274 26.374 69.7341C26.374 57.9044 34.0286 58.3489 44.8992 58.3489C55.7698 58.3489 65.74 57.9044 65.74 69.7341Z" fill="#90E5C9"/>
<path d="M62.0993 64.3262C53.6793 67.7564 35.3635 65.7555 27.2581 64.3262C7.9987 51.7081 15.2815 32.8321 21.3303 24.9713C54.3568 -4.88949 71.0515 28.1871 75.7696 39.672C80.4877 51.1569 72.6242 60.0385 62.0993 64.3262Z" fill="#90E5C9"/>
<path d="M42.5323 62.1235C24.6617 63.1046 16.7574 49.5526 15.0391 42.6539C15.0391 55.5314 20.3168 60.2838 27.4356 65.0363C33.1306 68.8382 49.692 67.7446 57.2608 66.7226C59.3882 66.3649 65.4351 64.2084 72.603 58.4442C81.5628 51.2389 75.9169 39.7411 76.2851 40.8142C76.5797 41.6727 75.8351 44.238 75.4259 45.4133C72.3575 52.0054 64.8705 60.8971 42.5323 62.1235Z" fill="#39BFB0"/>
<path fill-rule="evenodd" clip-rule="evenodd" d="M54.2142 29.8019C53.4419 30.7324 53.961 31.0809 56.5584 31.3746C59.3769 31.6937 61.0268 32.3224 62.0465 33.4668C62.9453 34.4756 63.8199 34.5374 63.8199 33.5922C63.8199 32.6814 62.0569 31.0087 60.3464 30.2978C58.1006 29.3638 54.7993 29.0968 54.2142 29.8019ZM28.3133 30.4105C26.7468 31.2407 24.8398 32.9253 24.8398 33.4787C24.8398 34.3726 25.7221 34.2703 27.066 33.2213C29.0713 31.6555 30.463 31.2708 33.4104 31.4668C36.0063 31.6397 36.6095 31.3804 36.185 30.2743C35.8276 29.343 30.1423 29.4414 28.3133 30.4105ZM34.1441 40.9019C33.0145 41.9339 32.6262 42.0698 31.3082 41.893C30.4684 41.7803 29.3619 41.294 28.849 40.8124C28.1535 40.159 27.8058 40.0482 27.4789 40.3751C26.7591 41.0949 28.0659 42.6244 30.0466 43.3808C31.5525 43.9559 32.0442 43.9856 33.3904 43.5823C35.2305 43.0308 36.9125 41.5082 36.7295 40.5588C36.5238 39.4905 35.5474 39.6198 34.1441 40.9019ZM53.0019 40.2879C52.5901 40.7842 52.6897 41.0686 53.6117 42.0308C55.6823 44.1924 59.2461 44.3368 61.3657 42.3453C62.3062 41.4619 62.6011 40.081 61.8492 40.081C61.6146 40.081 60.9068 40.5152 60.2761 41.0459C58.6687 42.3986 56.8779 42.3303 55.1952 40.8529C53.6661 39.5106 53.6507 39.5063 53.0019 40.2879ZM47.3147 48.5837C45.6552 50.0927 43.5255 50.168 42.2072 48.7647C41.1277 47.6157 40.2775 47.5154 40.2775 48.5374C40.2775 49.5373 42.3187 51.1868 43.93 51.489C46.378 51.9483 49.8009 50.0109 49.4787 48.3486C49.2718 47.2819 48.6755 47.3467 47.3147 48.5837Z" fill="black"/>
<path d="M23.875 64.5231C25.8819 65.9125 25.7609 65.1859 27.9273 62.4004C28.3776 61.8215 33.2164 62.2594 35.2233 63.6488C37.7319 65.3856 35.9098 71.6445 32.7147 75.8059C31.1824 77.8016 25.3902 79.9019 21.0511 77.627C17.5776 75.8059 14.2744 71.5605 12.9236 68.8589C11.5728 66.1573 11.0781 63.2766 12.9236 60.989C15.069 58.3297 17.1689 59.8312 18.3268 60.989C19.4846 62.1468 21.3664 62.7864 23.875 64.5231Z" fill="#39BFB0"/>
<path d="M67.4668 64.5231C65.4599 65.9125 65.5809 65.1859 63.4145 62.4004C62.9642 61.8215 58.1254 62.2594 56.1185 63.6488C53.6099 65.3856 55.432 71.6445 58.6271 75.8059C60.1594 77.8016 65.9516 79.9019 70.2907 77.627C73.7642 75.8059 77.0674 71.5605 78.4182 68.8589C79.769 66.1573 80.2637 63.2766 78.4182 60.989C76.2728 58.3297 74.1729 59.8312 73.015 60.989C71.8572 62.1468 69.9754 62.7864 67.4668 64.5231Z" fill="#39BFB0"/>
<path d="M43.7974 93.8159C41.2394 93.408 29.4135 91.9271 26.5631 82.3815C26.5711 79.9402 27.1818 79.7787 28.9282 79.588C30.6746 79.3974 35.8764 79.9193 40.7836 82.4163C45.6908 84.9134 46.3555 94.2237 43.7974 93.8159Z" fill="#39BFB0"/>
<path d="M49.4531 93.9529C52.0047 93.5064 63.8068 91.8466 66.5123 82.259C66.4674 79.818 65.8543 79.6658 64.1052 79.5016C62.3561 79.3374 57.1628 79.9381 52.2939 82.5091C47.4251 85.0802 46.9015 94.3995 49.4531 93.9529Z" fill="#39BFB0"/>
</svg>
