<svg width="100" height="110" viewBox="0 0 100 110" fill="none" xmlns="http://www.w3.org/2000/svg">
<path d="M38.0923 26.3639C40.051 19.7697 40.8737 7.36469 28.4948 10.4986C13.0213 14.4159 14.3923 27.3431 19.4849 34.1985C23.559 39.6828 26.0138 42.4902 26.732 43.2084" stroke="#80B2FF" stroke-width="7.83471"/>
<path d="M63.1248 25.7539C61.1854 19.0025 60.3708 6.30187 72.628 9.51046C87.9495 13.5212 86.5919 26.7565 81.5494 33.7753C77.5154 39.3903 75.0846 42.2647 74.3735 43" stroke="#4C7ECC" stroke-width="7.83471"/>
<path d="M39.0552 78.3368C35.8564 76.9855 35.8271 69.727 36.2124 66.2667C33.036 59.8784 26.2712 66.9194 24.8159 71.9333C23.3606 76.9471 27.0702 81.2315 31.1687 84.7098C35.2671 88.188 43.0538 80.026 39.0552 78.3368Z" fill="#6A98DD"/>
<path d="M66.7057 85.619C64.7462 87.5656 58.9958 88.4767 56.3655 88.6888C58.986 93.4909 60.0684 96.8589 65.2102 96.2405C70.5675 95.5961 69.155 83.1857 66.7057 85.619Z" fill="#6A98DD"/>
<path d="M71.3542 73.1506C71.3542 90.7607 62.8032 90.7607 52.0189 90.7607C41.2346 90.7607 32.3008 89.6121 32.3008 73.1506C32.3008 61.4147 39.8946 61.8557 50.6789 61.8557C61.4632 61.8557 71.3542 61.4147 71.3542 73.1506Z" fill="#91BDFF"/>
<path d="M67.7433 67.7864C59.3902 71.1893 41.2198 69.2043 33.1787 67.7864C14.0722 55.2684 21.2972 36.5422 27.2979 28.7438C60.0623 -0.879864 76.6245 31.9341 81.3051 43.3278C85.9857 54.7216 78.1847 63.5327 67.7433 67.7864Z" fill="#91BDFF"/>
<path d="M48.3326 65.6012C30.6038 66.5746 22.7623 53.1301 21.0576 46.2862C21.0576 59.0615 26.2934 63.7762 33.3557 68.4909C39.0055 72.2626 55.4354 71.1777 62.9441 70.1638C65.0547 69.809 71.0536 67.6696 78.1645 61.9511C87.0532 54.803 81.4521 43.3965 81.8174 44.4611C82.1097 45.3128 81.371 47.8577 80.9651 49.0237C77.921 55.5635 70.4935 64.3845 48.3326 65.6012Z" fill="#6A98DD"/>
<path fill-rule="evenodd" clip-rule="evenodd" d="M63.6911 31.5979C63.7982 32.3493 64.0807 32.4631 66.3159 32.655C68.1558 32.813 69.2231 33.1359 70.3355 33.8713C71.9993 34.9711 72.6212 35.1174 72.6036 34.4045C72.5871 33.7399 69.5532 31.541 68.0647 31.1144C67.3765 30.9171 66.0836 30.7559 65.1923 30.7559C63.7259 30.7559 63.5828 30.8359 63.6911 31.5979ZM35.1504 31.5825C33.2719 32.4208 31.3833 33.8817 30.6532 35.062C29.7592 36.5065 29.7319 36.7434 30.4587 36.7434C30.7629 36.7434 31.2863 36.3254 31.6212 35.8146C32.7594 34.0793 34.6945 33.2224 37.9547 33.0098C40.6424 32.8347 40.9575 32.7355 40.9575 32.0656C40.9575 31.4018 40.6821 31.3086 38.5223 31.2409C37.1829 31.1989 35.6656 31.3524 35.1504 31.5825ZM37.0315 39.3888C34.6544 40.3808 33.6005 42.8589 34.5701 45.1772C35.4258 47.2227 36.5149 47.9431 38.7744 47.9577C40.4311 47.9682 40.8735 47.8091 41.8207 46.8631C44.5949 44.092 43.0997 39.6706 39.2176 39.165C38.526 39.0752 37.5422 39.1758 37.0315 39.3888ZM61.9198 39.5149C59.5692 40.5376 58.6828 43.6616 60.0754 46.0166C60.9164 47.4386 62.0494 47.97 64.2403 47.97C65.6606 47.97 66.1252 47.7781 67.0206 46.8204C69.0826 44.6155 68.6833 41.2741 66.175 39.7469C64.7465 38.8768 63.5379 38.811 61.9198 39.5149ZM38.9141 41.4006C37.8483 42.683 39.318 44.8513 40.6765 44.0007C42.0132 43.1635 41.5325 40.8598 40.0208 40.8598C39.6593 40.8598 39.161 41.1031 38.9141 41.4006ZM64.0155 41.4006C62.9497 42.683 64.4194 44.8513 65.7779 44.0007C67.1146 43.1635 66.6339 40.8598 65.1222 40.8598C64.7607 40.8598 64.2624 41.1031 64.0155 41.4006ZM59.2328 51.6759C57.9983 53.8356 55.2829 55.0802 51.8046 55.0802C50.3304 55.0802 48.5804 54.8909 47.9158 54.6596C47.0365 54.3531 46.5955 54.3509 46.2951 54.651C45.5829 55.3624 48.5268 56.3354 51.8938 56.5011C54.5875 56.6336 55.2211 56.5341 57.0763 55.6857C58.2385 55.1539 59.6741 54.2012 60.2661 53.568C61.1626 52.6092 61.4672 52.4831 62.0857 52.8139C63.3239 53.4756 63.4487 52.5228 62.2832 51.3077C60.8891 49.8542 60.2286 49.9339 59.2328 51.6759Z" fill="black"/>
<circle cx="65.1628" cy="43.1559" r="2.48015" fill="white"/>
<circle cx="39.3698" cy="43.1559" r="2.48015" fill="white"/>
<path d="M63.2758 78.3368C66.4747 76.9855 66.5039 69.727 66.1187 66.2667C69.2951 59.8784 76.0598 66.9194 77.5151 71.9333C78.9705 76.9471 75.2608 81.2315 71.1624 84.7098C67.064 88.188 59.2773 80.026 63.2758 78.3368Z" fill="#6A98DD"/>
<path d="M36.8031 84.4343C39.4182 87.1952 45.0136 88.7266 47.4845 89.1472C47.1933 95.5887 47.6725 100.144 42.7542 99.043C37.6298 97.8959 33.5344 80.9833 36.8031 84.4343Z" fill="#6A98DD"/>
</svg>
