<svg width="22" height="24" viewBox="0 0 22 24" fill="none" xmlns="http://www.w3.org/2000/svg">
<path d="M7.77663 21.87V18.4301C7.77663 17.552 8.49369 16.8401 9.37824 16.8401H12.6117C13.0365 16.8401 13.4438 17.0076 13.7442 17.3058C14.0446 17.604 14.2133 18.0084 14.2133 18.4301V21.87C14.2106 22.2351 14.3548 22.5861 14.6139 22.8452C14.873 23.1043 15.2256 23.25 15.5933 23.25H17.7993C18.8296 23.2526 19.8186 22.8482 20.5481 22.1259C21.2775 21.4036 21.6875 20.4229 21.6875 19.4001V9.60022C21.6875 8.77402 21.3186 7.99032 20.6802 7.46025L13.1758 1.51035C11.8704 0.467132 10 0.500815 8.73357 1.59035L1.40039 7.46025C0.731833 7.9747 0.332246 8.76072 0.3125 9.60022V19.3901C0.3125 21.5218 2.0533 23.25 4.2007 23.25H6.35633C7.12013 23.25 7.74087 22.6382 7.74641 21.88L7.77663 21.87Z" fill="#3D52D5"/>
</svg>
