<svg width="28" height="28" viewBox="0 0 28 28" fill="none" xmlns="http://www.w3.org/2000/svg">
<path d="M18.5 2.75H9.5C5 2.75 2.75 5 2.75 9.5V24.125C2.75 24.7437 3.25625 25.25 3.875 25.25H18.5C23 25.25 25.25 23 25.25 18.5V9.5C25.25 5 23 2.75 18.5 2.75ZM12.9987 19.2425C12.7175 19.5238 12.2 19.7825 11.8175 19.8388L9.4775 20.165C9.3875 20.1762 9.2975 20.1875 9.21875 20.1875C8.825 20.1875 8.465 20.0525 8.20625 19.7937C7.89125 19.4788 7.75625 19.0175 7.835 18.5225L8.16125 16.1825C8.2175 15.8 8.47625 15.2713 8.7575 15.0013L12.9987 10.76C13.0662 10.9625 13.1562 11.165 13.2575 11.39C13.3588 11.5925 13.46 11.795 13.5725 11.9862C13.6625 12.1438 13.7638 12.3013 13.8538 12.4137C13.9662 12.5825 14.0788 12.7287 14.1575 12.8075C14.2025 12.875 14.2475 12.92 14.2587 12.9425C14.5062 13.2238 14.765 13.4937 15.0125 13.6962C15.08 13.7637 15.125 13.7975 15.1363 13.8088C15.2825 13.9213 15.4175 14.045 15.5525 14.1237C15.6988 14.2362 15.8562 14.3375 16.0138 14.4275C16.205 14.54 16.4075 14.6525 16.6213 14.7537C16.835 14.855 17.0375 14.9338 17.24 15.0013L12.9987 19.2425ZM19.1187 13.1337L18.2413 14.0113C18.185 14.0675 18.1062 14.1012 18.0275 14.1012C18.005 14.1012 17.96 14.1012 17.9375 14.09C16.0025 13.5387 14.4613 11.9975 13.91 10.0625C13.8763 9.96125 13.91 9.84875 13.9887 9.77L14.8775 8.88125C16.3287 7.43 17.7012 7.46375 19.1187 8.88125C19.8387 9.60125 20.1987 10.2988 20.1875 11.0188C20.1875 11.7275 19.8387 12.4137 19.1187 13.1337Z" fill="#3D52D5"/>
</svg>
