<svg width="28" height="28" viewBox="0 0 28 28" fill="none" xmlns="http://www.w3.org/2000/svg">
<path fill-rule="evenodd" clip-rule="evenodd" d="M10.6053 3.01156C12.8553 2.66281 15.1503 2.66281 17.4003 3.01156C18.3228 3.15781 18.9978 3.94531 18.9978 4.86781V9.00781H23.1379C24.0604 9.00781 24.8479 9.68283 24.9942 10.6053C25.3429 12.8553 25.3429 15.1503 24.9942 17.4003C24.8479 18.3228 24.0604 18.9978 23.1379 18.9978H18.9979V23.1378C18.9979 24.0603 18.3229 24.8478 17.4004 24.9941C15.1504 25.3428 12.8554 25.3428 10.6054 24.9941C9.68295 24.8478 9.00793 24.0603 9.00793 23.1378V18.9895C8.009 19.0048 7.15463 18.9999 6.8576 18.9983C6.80845 18.998 6.77456 18.9978 6.7578 18.9978H4.86781C3.94531 18.9978 3.15781 18.3228 3.01156 17.4003C2.66281 15.1503 2.66281 12.8553 3.01156 10.6053C3.15781 9.68281 3.94531 9.0078 4.86781 9.0078H9.0078V4.86781C9.0078 3.94531 9.68281 3.15781 10.6053 3.01156ZM18.9978 10.6279H18.9979V9.57031C18.9979 9.56904 18.9979 9.56777 18.9978 9.5665V10.6279Z" fill="#3D52D5"/>
</svg>
