<svg width="198" height="255" viewBox="0 0 198 255" fill="none" xmlns="http://www.w3.org/2000/svg">
<path d="M34.4726 84.9998C8.97262 71.4998 -2.02738 9.99984 28.4726 11.9998C58.9726 13.9998 84.9726 49.5 98.9726 54" stroke="#F19F00" stroke-width="20" stroke-linecap="round" stroke-linejoin="round"/>
<path d="M163.473 83.0477C188.973 69.5477 199.973 8.04769 169.473 10.0477C138.973 12.0477 109 44 98.9727 52.0479" stroke="#FFD789" stroke-width="20" stroke-linecap="round" stroke-linejoin="round"/>
<path d="M152.973 198.506C152.973 244.5 130.639 244.5 102.473 244.5C74.3061 244.5 50.9727 241.5 50.9727 198.506C50.9727 167.854 70.8061 169.006 98.9727 169.006C127.139 169.006 152.973 167.854 152.973 198.506Z" fill="#F19F00"/>
<path d="M144.555 169C112.955 182.6 72.0548 174.667 55.5548 169C53.0548 183.5 58.5548 224 73.0548 230C84.6548 234.8 85.8882 208 85.0548 194C92.6548 197.2 109.888 195.333 117.555 194C117.555 224 127.221 229.5 132.055 228.5C153.255 227.3 149.221 188.333 144.555 169Z" fill="#C3840B"/>
<path d="M144.973 228.999C141.373 234.599 126.473 240.665 119.473 242.999C130.973 251.499 136.973 257.999 150.473 252.998C164.539 247.788 149.473 221.999 144.973 228.999Z" fill="#C3840B"/>
<path d="M62.3398 229.196C65.9398 234.796 80.8398 240.863 87.8398 243.196C76.3398 251.696 70.3398 258.197 56.8398 253.196C42.774 247.985 57.8398 222.196 62.3398 229.196Z" fill="#C3840B"/>
<path d="M143.537 184.494C121.72 193.381 74.2623 188.197 53.2606 184.494C3.35809 151.799 22.2283 102.89 37.9012 82.522C123.475 5.15059 166.732 90.8543 178.957 120.613C191.182 150.371 170.807 173.384 143.537 184.494Z" fill="#F19F00"/>
<path d="M92.8384 178.786C46.5345 181.328 26.0539 146.214 21.6016 128.339C21.6016 161.706 35.2765 174.019 53.7218 186.333C68.478 196.184 111.39 193.351 131.001 190.703C136.513 189.776 152.181 184.188 170.754 169.253C193.969 150.583 179.34 120.792 180.294 123.572C181.058 125.797 179.128 132.443 178.068 135.489C170.118 152.569 150.718 175.608 92.8384 178.786Z" fill="#C3840B"/>
<path fill-rule="evenodd" clip-rule="evenodd" d="M60.8895 83.8242C55.7256 85.0376 52.6995 86.8605 48.9268 91.0289C44.6732 95.7284 43.1076 98.9416 44.4283 100.26C45.1028 100.933 46.1812 100.046 48.0283 97.3003C51.3506 92.3628 57.5654 88.5346 63.1323 87.9973C68.6964 87.4608 69.6396 86.855 68.4296 84.597C67.4059 82.6884 66.2315 82.568 60.8895 83.8242ZM128.03 85.7712C128.261 87.3696 129.135 87.9398 132.138 88.4489C137.031 89.2782 140.444 91.08 143.802 94.6071C146.786 97.7401 147.973 98.1351 147.973 95.9957C147.973 91.4258 137.217 83.7403 130.821 83.7403C128.156 83.7403 127.778 84.0149 128.03 85.7712ZM58.813 113.378C55.5657 116.436 55.4515 116.752 55.8518 121.575C56.1031 124.603 56.9101 127.3 57.8871 128.377C59.4518 130.103 59.3952 130.258 56.1662 133.088C51.6531 137.044 53.2726 138.263 58.8833 135.133C62.5401 133.093 64.5672 132.628 70.2383 132.526C76.1013 132.422 77.1898 132.156 77.4594 130.761C77.6349 129.859 77.3104 128.831 76.7392 128.478C75.9916 128.017 75.966 127.137 76.6487 125.345C77.9502 121.928 77.8415 119.652 76.2128 116.226C74.4315 112.479 70.517 110.198 65.8696 110.198C62.9239 110.198 61.5183 110.831 58.813 113.378ZM122.284 111.564C117.497 114.161 115.353 121.12 117.885 125.844C118.648 127.266 118.544 128.046 117.428 129.277C115.695 131.188 115.556 132.965 117.127 133.115C117.756 133.175 120.597 133.14 123.442 133.036C127.032 132.905 129.933 133.431 132.926 134.752C137.947 136.969 138.833 137.079 138.833 135.484C138.833 134.839 137.565 133.564 136.014 132.65L133.194 130.987L135.54 128.542C142.208 121.595 137.405 110.14 127.866 110.238C126.106 110.256 123.595 110.853 122.284 111.564ZM66.8137 115.854C64.9666 117.698 65.5031 121.124 67.7734 121.98C71.5736 123.412 74.851 119.984 72.9929 116.519C71.9382 114.551 68.4908 114.18 66.8137 115.854ZM127.876 116.116C127.229 116.895 126.994 118.451 127.324 119.766C127.776 121.566 128.48 122.058 130.593 122.058C133.922 122.058 135.743 119.344 134.263 116.584C133.111 114.434 129.494 114.169 127.876 116.116ZM79.4738 141.617C77.9502 143.449 79.1557 150.59 81.5905 154.158C85.2225 159.481 89.8992 162.467 95.3089 162.914C103.983 163.632 111.001 159.836 114.266 152.659C116.397 147.977 116.544 141.627 114.538 140.859C113.743 140.554 105.774 140.305 96.8288 140.305C83.8004 140.305 80.3475 140.566 79.4738 141.617ZM94.5065 143.698C91.9931 143.899 89.5684 144.427 89.1187 144.871C87.7953 146.178 92.0726 146.794 100.447 146.504C106.624 146.29 108.216 145.955 108.216 144.867C108.216 143.394 103.408 142.985 94.5065 143.698Z" fill="black"/>
<ellipse cx="130.973" cy="119.5" rx="6" ry="6.5" fill="white"/>
<ellipse cx="68.9727" cy="119.5" rx="6" ry="6.5" fill="white"/>
<ellipse cx="97.9727" cy="145" rx="11" ry="2" fill="white"/>
</svg>
