<svg width="287" height="246" viewBox="0 0 287 246" fill="none" xmlns="http://www.w3.org/2000/svg">
<path d="M109.123 64C106.858 35.761 94.6229 -6.00008 59.2556 25.9354C12.0008 68.6049 74.4687 79.1188 75.1229 56.9999C75.7771 34.8811 25.1229 31.4985 10.485 37.4702" stroke="#F17CC7" stroke-width="20" stroke-linecap="round" stroke-linejoin="round"/>
<path d="M177.611 59.8487C179.876 31.6096 192.111 -10.1514 227.479 21.784C274.734 64.4535 212.266 74.9674 211.611 52.8486C210.957 30.7298 261.611 27.3471 276.249 33.3188" stroke="#FFB7E5" stroke-width="20" stroke-linecap="round" stroke-linejoin="round"/>
<path d="M201.123 189.141C201.123 235.136 178.79 235.136 150.623 235.136C122.457 235.136 99.123 232.136 99.123 189.141C99.123 158.49 118.957 159.641 147.123 159.641C175.29 159.641 201.123 158.49 201.123 189.141Z" fill="#F17CC7"/>
<path d="M192.705 159.636C161.105 173.236 120.205 165.302 103.705 159.636C101.205 174.136 106.705 214.636 121.205 220.636C132.805 225.436 134.039 198.636 133.205 184.636C140.805 187.836 158.039 185.969 165.705 184.636C165.705 214.636 175.372 220.136 180.205 219.136C201.405 217.936 197.372 178.969 192.705 159.636Z" fill="#BA5A97"/>
<path d="M193.123 219.635C189.523 225.235 174.623 231.302 167.623 233.635C179.123 242.136 185.123 248.636 198.623 243.635C212.689 238.424 197.623 212.635 193.123 219.635Z" fill="#BA5A97"/>
<path d="M110.49 219.832C114.09 225.432 128.99 231.498 135.99 233.832C124.49 242.332 118.49 248.832 104.99 243.831C90.9243 238.621 105.99 212.832 110.49 219.832Z" fill="#BA5A97"/>
<path d="M191.687 175.129C169.87 184.017 122.413 178.833 101.411 175.129C51.5085 142.435 70.3787 93.5256 86.0516 73.1577C171.626 -4.21367 214.883 81.49 227.108 111.248C239.333 141.007 218.958 164.02 191.687 175.129Z" fill="#F17CC7"/>
<path d="M140.989 169.421C94.6849 171.963 74.2043 136.849 69.752 118.974C69.752 152.34 83.4269 164.654 101.872 176.968C116.628 186.819 159.54 183.986 179.151 181.337C184.664 180.411 200.332 174.823 218.904 159.888C242.12 141.218 227.491 111.426 228.445 114.207C229.208 116.431 227.279 123.078 226.219 126.124C218.268 143.204 198.869 166.243 140.989 169.421Z" fill="#BA5A97"/>
<path d="M117.123 143.519C118.202 141.837 121.072 138.663 123.92 139.42C127.481 140.366 130.394 146.671 133.63 145.095C136.867 143.519 138.809 136.898 143.017 138.159C147.224 139.42 152.727 150.14 155.316 147.617C157.906 145.095 159.524 138.159 164.379 138.159C169.234 138.159 169.881 148.563 174.089 146.041C178.297 143.519 179.592 136.898 184.123 138.159" stroke="black" stroke-width="5" stroke-linecap="round" stroke-linejoin="round"/>
<path fill-rule="evenodd" clip-rule="evenodd" d="M99.873 77.9862C97.26 79.1672 95.123 80.8032 95.123 81.6222C95.123 82.5662 95.763 82.9262 96.873 82.6062C107.532 79.5272 108.076 79.4682 114.241 80.7412C121.258 82.1912 123.842 81.1682 120.813 78.1392C118.031 75.3582 105.883 75.2692 99.873 77.9862ZM189.123 80.8102C189.123 81.8722 190.46 83.6942 192.095 84.8582C193.729 86.0222 195.851 88.3022 196.81 89.9262C199.823 95.0272 202.728 92.8762 200.003 87.5622C196.675 81.0712 189.123 76.3852 189.123 80.8102ZM116.951 95.0592C115.177 100.977 107.895 108.353 102.373 109.823C97.675 111.074 96.44 113.878 100.588 113.878C102.051 113.878 103.499 114.713 104.152 115.932C104.756 117.061 106.684 118.859 108.437 119.928C120.071 127.021 132.897 111.479 123.646 101.497C122.046 99.7712 121.415 97.9332 121.501 95.2482C121.592 92.4162 121.191 91.3572 119.932 91.0992C118.69 90.8462 117.898 91.8972 116.951 95.0592ZM171.503 98.3302C171.197 99.1292 171.186 100.171 171.48 100.646C171.773 101.121 171.394 103.28 170.636 105.444C166.742 116.563 177.977 125.922 187.933 119.852C189.754 118.742 191.905 116.249 192.715 114.313C193.524 112.376 194.847 110.537 195.655 110.228C198.86 108.997 196.994 107.119 191.894 106.442C185.898 105.647 179.794 102.551 177.591 99.1892C175.897 96.6042 172.357 96.1052 171.503 98.3302ZM115.268 111.203C113.022 113.91 116.218 117.546 119.677 116.219C122.043 115.311 121.139 110.452 118.535 110.08C117.387 109.916 115.917 110.421 115.268 111.203ZM182.79 110.545C181.547 111.787 182.114 115.661 183.623 116.24C186.999 117.535 190.209 113.892 188.018 111.251C186.819 109.806 183.92 109.415 182.79 110.545Z" fill="black"/>
<circle cx="185.123" cy="113" r="4" fill="white"/>
<circle cx="117.123" cy="113" r="4" fill="white"/>
</svg>
