<svg width="183" height="270" viewBox="0 0 183 270" fill="none" xmlns="http://www.w3.org/2000/svg">
<path fill-rule="evenodd" clip-rule="evenodd" d="M8.50254 0.129174C7.97161 0.374856 7.73389 0.799595 7.83166 1.32782C7.93023 1.86115 8.66485 2.61529 12.1905 5.80287C13.5775 7.05675 15.0015 8.38887 15.3552 8.76303C19.131 12.7587 20.9988 17.2786 20.9933 22.4077C20.9902 25.2743 20.4482 27.6123 19.2523 29.9168C18.2003 31.9441 17.3867 33.053 14.1407 36.8835C11.7242 39.7352 10.8661 40.8794 9.30043 43.3366C2.40234 54.1631 -0.242232 62.2615 0.0172733 71.765C0.207776 78.7424 1.97938 85.7652 5.24188 92.4755C8.02021 98.1899 11.3297 102.781 16.0444 107.461C20.1813 111.568 24.0121 114.196 27.8365 115.552C28.9033 115.931 28.9712 115.939 31.1887 115.981C33.4046 116.023 33.4652 116.018 34.0794 115.732C36.468 114.623 38.6657 112.137 39.9818 109.054C40.5833 107.645 40.9485 106.501 41.5387 104.178C42.6226 99.91 42.9993 97.3388 43 94.2054C43.0006 91.1301 42.5487 88.819 41.576 86.9225C40.7186 85.2506 39.7451 84.6248 37.6298 84.3855C36.1099 84.2136 35.313 83.9927 34.0718 83.399C31.9574 82.3876 29.7762 80.6608 27.1449 77.915C25.4423 76.1383 24.5078 74.9716 23.1506 72.9277C20.9601 69.6288 19.3792 66.2928 18.3613 62.8215C17.4879 59.8421 17.7404 57.3073 19.2067 54.3367C19.963 52.8045 20.7483 51.5649 22.8674 48.5587C23.917 47.0697 25.0609 45.3773 25.4097 44.7975C27.3866 41.5111 28.8159 37.3578 29.4123 33.1668C29.6985 31.1553 29.6646 26.8768 29.3459 24.7913C28.7958 21.1906 27.8357 18.2295 26.1605 14.9663C23.1284 9.05975 17.8161 3.74836 11.9613 0.769132C10.7298 0.142429 10.4958 0.0634806 9.72614 0.0149954C9.12116 -0.0232579 8.75872 0.0105771 8.50254 0.129174Z" fill="#DC4559"/>
<path fill-rule="evenodd" clip-rule="evenodd" d="M174.497 0.129174C175.028 0.374856 175.266 0.799595 175.168 1.32782C175.07 1.86115 174.335 2.61529 170.809 5.80287C169.423 7.05675 167.998 8.38887 167.645 8.76303C163.869 12.7587 162.001 17.2786 162.007 22.4077C162.01 25.2743 162.552 27.6123 163.748 29.9168C164.8 31.9441 165.613 33.053 168.859 36.8835C171.276 39.7352 172.134 40.8794 173.7 43.3366C180.598 54.1631 183.242 62.2615 182.983 71.765C182.792 78.7424 181.021 85.7652 177.758 92.4755C174.98 98.1899 171.67 102.781 166.956 107.461C162.819 111.568 158.988 114.196 155.164 115.552C154.097 115.931 154.029 115.939 151.811 115.981C149.595 116.023 149.535 116.018 148.921 115.732C146.532 114.623 144.334 112.137 143.018 109.054C142.417 107.645 142.052 106.501 141.461 104.178C140.377 99.91 140.001 97.3388 140 94.2054C139.999 91.1301 140.451 88.819 141.424 86.9225C142.281 85.2506 143.255 84.6248 145.37 84.3855C146.89 84.2136 147.687 83.9927 148.928 83.399C151.043 82.3876 153.224 80.6608 155.855 77.915C157.558 76.1383 158.492 74.9716 159.849 72.9277C162.04 69.6288 163.621 66.2928 164.639 62.8215C165.512 59.8421 165.26 57.3073 163.793 54.3367C163.037 52.8045 162.252 51.5649 160.133 48.5587C159.083 47.0697 157.939 45.3773 157.59 44.7975C155.613 41.5111 154.184 37.3578 153.588 33.1668C153.301 31.1553 153.335 26.8768 153.654 24.7913C154.204 21.1906 155.164 18.2295 156.84 14.9663C159.872 9.05975 165.184 3.74836 171.039 0.769132C172.27 0.142429 172.504 0.0634806 173.274 0.0149954C173.879 -0.0232579 174.241 0.0105771 174.497 0.129174Z" fill="#FF7F90"/>
<path d="M145 213.141C145 259.136 122.667 259.136 94.5 259.136C66.3335 259.136 43 256.136 43 213.141C43 182.49 62.8335 183.641 91 183.641C119.167 183.641 145 182.49 145 213.141Z" fill="#DC4559"/>
<path d="M136.582 183.636C104.982 197.236 64.0822 189.302 47.5822 183.636C45.0822 198.136 50.5822 238.636 65.0822 244.636C76.6822 249.436 77.9155 222.636 77.0822 208.636C84.6822 211.836 101.916 209.969 109.582 208.636C109.582 238.636 119.249 244.136 124.082 243.136C145.282 241.936 141.249 202.969 136.582 183.636Z" fill="#AA2F3F"/>
<path d="M137 243.635C133.4 249.235 118.5 255.302 111.5 257.635C123 266.136 129 272.636 142.5 267.635C156.566 262.424 141.5 236.635 137 243.635Z" fill="#AA2F3F"/>
<path d="M54.3672 243.832C57.9672 249.432 72.8672 255.498 79.8672 257.832C68.3672 266.332 62.3672 272.832 48.8672 267.831C34.8013 262.621 49.8672 236.832 54.3672 243.832Z" fill="#AA2F3F"/>
<path d="M135.564 199.129C113.747 208.017 66.2897 202.833 45.288 199.129C-4.61457 166.435 14.2556 117.526 29.9285 97.1577C115.503 19.7863 158.76 105.49 170.985 135.248C183.21 165.007 162.835 188.02 135.564 199.129Z" fill="#DC4559"/>
<path d="M84.8658 193.421C38.5618 195.963 18.0812 160.849 13.6289 142.974C13.6289 176.34 27.3038 188.654 45.7491 200.968C60.5053 210.819 103.417 207.986 123.028 205.337C128.541 204.411 144.209 198.823 162.781 183.888C185.997 165.218 171.368 135.426 172.322 138.207C173.085 140.431 171.156 147.078 170.096 150.124C162.145 167.204 142.746 190.243 84.8658 193.421Z" fill="#AA2F3F"/>
<path fill-rule="evenodd" clip-rule="evenodd" d="M55.8841 117.499C55.8841 118.325 58.1341 120.617 60.8841 122.592C63.6341 124.568 65.8841 126.375 65.8841 126.608C65.8841 126.84 63.6081 125.877 60.8261 124.468C56.7061 122.38 54.6201 121.96 49.5761 122.201C44.0221 122.466 43.3511 122.729 43.0641 124.747C42.7461 126.991 43.5311 127.422 47.2261 127.034C48.7501 126.874 48.9231 127.243 48.2261 129.169C47.7631 130.449 47.4171 133.787 47.4581 136.586C47.5181 140.707 47.1601 141.847 45.5721 142.586C42.9241 143.816 43.7841 145.558 46.8841 145.245C48.2591 145.106 54.4541 144.711 60.6521 144.368L71.9191 143.744L71.2931 139.019C70.7881 135.213 70.9791 134.175 72.2751 133.677C74.6601 132.762 74.2331 131.244 71.1341 129.617C68.4061 128.186 68.4231 128.175 73.2801 128.246C76.9261 128.3 78.5171 127.851 79.5131 126.49C81.5281 123.734 79.5801 121.937 75.7641 123.031C72.2751 124.032 70.1241 123.357 63.1681 119.077C57.5941 115.647 55.8841 115.276 55.8841 117.499ZM122.765 119.391C115.608 123.707 113.739 124.272 110.594 123.077C108.651 122.338 107.741 122.464 106.797 123.601C104.836 125.964 107.884 128.27 112.97 128.27C117.204 128.27 117.207 128.272 114.548 129.665C111.829 131.09 111.187 132.448 112.769 133.426C114.071 134.231 114.698 139.892 113.527 140.283C112.976 140.466 112.821 141.39 113.184 142.335C113.77 143.864 115.362 144.023 127.601 143.775C139.504 143.535 141.402 143.273 141.678 141.832C141.863 140.872 141.169 139.905 140.039 139.546C138.62 139.096 137.948 137.763 137.603 134.711C137.341 132.393 136.803 129.516 136.407 128.318C135.775 126.402 136.092 126.1 139.036 125.818C141.61 125.571 142.384 125.035 142.384 123.497C142.384 121.717 141.779 121.517 136.884 121.681C133.5 121.794 129.172 122.847 125.634 124.418C122.472 125.823 119.884 126.816 119.884 126.626C119.884 126.436 122.359 124.637 125.384 122.628C130.485 119.242 132.567 115.994 129.634 116C128.947 116.001 125.855 117.527 122.765 119.391ZM61.0601 134.673C61.3191 136.932 61.8841 137.497 63.8841 137.497C65.8841 137.497 66.3841 136.997 66.3841 134.997C66.3841 132.997 65.8191 132.432 63.5601 132.173C60.9921 131.879 60.7661 132.105 61.0601 134.673ZM128.246 133.497C127.362 135.799 128.603 137.997 130.785 137.997C132.815 137.997 134.49 134.787 133.39 133.006C132.438 131.466 128.895 131.804 128.246 133.497ZM92.7671 153.203C91.8781 153.915 90.3211 155.955 89.3071 157.737C87.8171 160.357 87.7081 161.219 88.7361 162.237C89.7611 163.252 90.5301 162.875 92.6961 160.296C94.6101 158.017 96.3921 157.01 98.8841 156.796C101.618 156.563 102.384 156.059 102.384 154.497C102.384 152.879 101.619 152.441 98.3841 152.203C96.1721 152.04 93.6611 152.487 92.7671 153.203Z" fill="black"/>
<ellipse cx="130.5" cy="135" rx="4.5" ry="4" fill="white"/>
<ellipse cx="63.5" cy="135" rx="4.5" ry="4" fill="white"/>
</svg>
