<svg width="188" height="268" viewBox="0 0 188 268" fill="none" xmlns="http://www.w3.org/2000/svg">
<path d="M71.5072 24.0786C57.3955 33.512 35.337 28.0092 26.0717 24.0786L13.5759 19.4274C1.29234 12.2172 -7.52169 28.2004 9.30181 37.5865C43.5119 56.6729 80.2366 45.539 92.62 37.5865C84.8757 34.1149 73.7344 28.2834 71.5072 24.0786Z" fill="#C7C8FE"/>
<path d="M46.9554 29.0421C44.285 29.8433 34.1373 26.8168 28.5293 25.0365C36.0066 3.4058 56.302 -9.35232 87.8134 11.7442C120.366 33.538 123.866 27.4399 134.281 28.241C138.821 35.1842 136.685 41.3862 132.677 45.926C131.698 46.104 118.791 45.926 104.103 41.3862C72.6027 31.6498 75.6562 24.0905 63.2452 21.6249C52.3806 19.4664 49.0918 26.1046 46.9554 29.0421Z" fill="#6B6DCA"/>
<path d="M155.91 24.0278C137.1 -14.7537 102.235 2.60424 89.9512 13.019C93.1557 15.9565 103.036 21.0304 107.843 24.0278C132.945 11.7438 143.892 36.1131 130.273 48.8631C117.722 60.6131 100.099 76.5758 89.9512 86.9906V112.093C100.632 94.8145 172.201 57.6155 155.91 24.0278Z" fill="#C7C8FE"/>
<path d="M45.8888 48.0014C40.9751 48.0014 29.599 45.8651 25.8604 44.7969C25.8604 67.562 53.6523 83.0943 89.9513 112.359V87.2571C74.1932 77.121 47.8008 60.0847 45.8888 48.0014Z" fill="#6B6DCA"/>
<path d="M156.222 44.5963C158.197 40.8218 158.892 32.0452 157.023 26.4372C161.737 26.4372 169.198 23.8837 179.748 22.0488C190.298 20.214 190.298 35.6006 182.216 38.8836C178.086 40.5612 163.105 43.6352 156.222 44.5963Z" fill="#6B6DCA"/>
<path d="M149 211.506C149 257.5 126.667 257.5 98.5 257.5C70.3335 257.5 47 254.5 47 211.506C47 180.854 66.8335 182.006 95 182.006C123.167 182.006 149 180.854 149 211.506Z" fill="#6B6DCA"/>
<path d="M140.582 182C108.982 195.6 68.0822 187.667 51.5822 182C49.0822 196.5 54.5822 237 69.0822 243C80.6822 247.8 81.9155 221 81.0822 207C88.6822 210.2 105.916 208.333 113.582 207C113.582 237 123.249 242.5 128.082 241.5C149.282 240.3 145.249 201.333 140.582 182Z" fill="#5052B0"/>
<path d="M141 241.999C137.4 247.599 122.5 253.665 115.5 255.999C127 264.499 133 270.999 146.5 265.998C160.566 260.788 145.5 234.999 141 241.999Z" fill="#5052B0"/>
<path d="M58.3672 242.196C61.9672 247.796 76.8672 253.863 83.8672 256.196C72.3672 264.696 66.3672 271.197 52.8672 266.196C38.8013 260.985 53.8672 235.196 58.3672 242.196Z" fill="#5052B0"/>
<path d="M139.564 197.494C117.747 206.381 70.2897 201.197 49.288 197.494C-0.614569 164.799 18.2556 115.89 33.9285 95.522C119.503 18.1506 162.76 103.854 174.985 133.613C187.21 163.371 166.835 186.384 139.564 197.494Z" fill="#6B6DCA"/>
<path d="M88.8658 191.786C42.5618 194.328 22.0812 159.214 17.6289 141.339C17.6289 174.706 31.3038 187.019 49.7491 199.333C64.5053 209.184 107.417 206.351 127.028 203.703C132.541 202.776 148.209 197.188 166.781 182.253C189.997 163.583 175.368 133.792 176.322 136.572C177.085 138.797 175.156 145.443 174.096 148.489C166.145 165.569 146.746 188.608 88.8658 191.786Z" fill="#5052B0"/>
<path fill-rule="evenodd" clip-rule="evenodd" d="M53.8259 99.1597C47.5152 101.47 40 109.466 40 113.871C40 116.559 41.2978 115.939 43.9261 111.997C47.4218 106.755 53.0201 103.359 59.2841 102.681C63.9245 102.179 64.7424 101.809 64.7424 100.211C64.7424 98.6802 64.0487 98.29 61.0077 98.1142C58.9536 97.9958 55.7222 98.4659 53.8259 99.1597ZM125.359 99.123C124.5 101.375 125.508 102.258 129.71 102.934C134.731 103.743 138.215 105.611 141.693 109.358C143.842 111.673 144.773 112.136 145.603 111.301C146.433 110.465 146.015 109.343 143.852 106.593C139.258 100.753 126.674 95.6699 125.359 99.123ZM57.9919 123.698C54.3637 125.286 51.2125 130.146 51.2078 134.159C51.206 135.768 52.2293 138.605 53.4823 140.464L55.7605 143.844L52.5486 145.843C50.7821 146.942 49.3368 148.441 49.3368 149.175C49.3368 151.01 50.5216 150.851 54.5121 148.48C56.977 147.016 60.1534 146.297 65.9282 145.894C74.0829 145.327 75.7962 144.381 73.2715 141.839C72.3864 140.947 72.2044 140.01 72.7487 139.144C74.1231 136.959 73.7225 130.773 72.0195 127.87C70.3622 125.045 65.7144 122.278 62.7341 122.341C61.7845 122.362 59.6501 122.972 57.9919 123.698ZM120.548 123.698C114.753 126.235 112.239 133.537 115.185 139.274C116.462 141.76 116.462 142.047 115.185 142.047C114.308 142.047 113.76 142.906 113.76 144.279C113.76 146.433 113.995 146.506 120.53 146.394C125.827 146.303 128.205 146.734 131.47 148.376C133.764 149.531 135.997 150.117 136.432 149.679C137.247 148.859 135.363 146.5 132.686 144.991C131.339 144.232 131.453 143.787 133.665 141.137C138.259 135.641 136.333 126.276 130.068 123.64C126.159 121.996 124.413 122.006 120.548 123.698ZM62.9414 128.482C62.1347 129.295 61.4746 130.534 61.4746 131.236C61.4746 133.026 64.0982 135.466 66.0225 135.466C69.8225 135.466 71.3827 129.762 68.0719 127.978C65.6182 126.656 64.6621 126.75 62.9414 128.482ZM125.431 129.223C124.638 130.443 124.254 132.138 124.58 132.992C125.363 135.048 129.299 135.976 131.046 134.516C133.009 132.875 132.77 129.132 130.628 127.978C127.962 126.541 127.032 126.764 125.431 129.223ZM107.692 157.17C101.579 158.261 84.3795 158.478 75.2463 157.58C69.0289 156.969 68.0103 157.074 68.0103 158.326C68.0103 159.128 68.746 160.014 69.6442 160.296C72.6628 161.243 84.3067 162.693 89.0469 162.712C93.7228 162.73 93.7499 162.748 95.1158 166.696C95.9645 169.15 97.4594 171.209 99.0382 172.097C101.457 173.458 101.716 173.406 104.033 171.071C105.378 169.718 106.762 167.215 107.108 165.51C107.663 162.778 108.237 162.288 111.916 161.394C115.137 160.612 116.095 159.949 116.095 158.5C116.095 156.274 114.306 155.991 107.692 157.17ZM100.456 161.395C99.4509 162.412 99.59 170.037 100.625 170.681C101.103 170.979 101.709 170.871 101.973 170.442C102.706 169.248 101.254 160.589 100.456 161.395Z" fill="black"/>
<circle cx="129" cy="132" r="5" fill="white"/>
<circle cx="65" cy="132" r="5" fill="white"/>
<path d="M104 164.889C104 168.264 102.433 171 100.5 171C98.567 171 97 168.264 97 164.889C97 161.514 98.567 161 100.5 161C102.433 161 104 161.514 104 164.889Z" fill="#7D2A2A"/>
</svg>
