<svg width="48" height="48" viewBox="0 0 48 48" fill="none" xmlns="http://www.w3.org/2000/svg">
<circle cx="24" cy="24" r="24" fill="#E8EFFF"/>
<path d="M30.5385 15H27.0769C27.0769 13.3453 25.8351 12 24.3077 12C22.7803 12 21.5385 13.3453 21.5385 15H18.0769C16.9303 15 16 16.0078 16 17.25V33.75C16 34.9922 16.9303 36 18.0769 36H30.5385C31.6851 36 32.6154 34.9922 32.6154 33.75V17.25C32.6154 16.0078 31.6851 15 30.5385 15ZM24.3077 13.875C24.8832 13.875 25.3462 14.3766 25.3462 15C25.3462 15.6234 24.8832 16.125 24.3077 16.125C23.7322 16.125 23.2692 15.6234 23.2692 15C23.2692 14.3766 23.7322 13.875 24.3077 13.875ZM28.4615 28.125C28.4615 28.3312 28.3058 28.5 28.1154 28.5H25.6923V31.125C25.6923 31.3312 25.5365 31.5 25.3462 31.5H23.2692C23.0788 31.5 22.9231 31.3312 22.9231 31.125V28.5H20.5C20.3096 28.5 20.1538 28.3312 20.1538 28.125V25.875C20.1538 25.6687 20.3096 25.5 20.5 25.5H22.9231V22.875C22.9231 22.6687 23.0788 22.5 23.2692 22.5H25.3462C25.5365 22.5 25.6923 22.6687 25.6923 22.875V25.5H28.1154C28.3058 25.5 28.4615 25.6687 28.4615 25.875V28.125ZM28.4615 19.125C28.4615 19.3313 28.3058 19.5 28.1154 19.5H20.5C20.3096 19.5 20.1538 19.3313 20.1538 19.125V18.375C20.1538 18.1687 20.3096 18 20.5 18H28.1154C28.3058 18 28.4615 18.1687 28.4615 18.375V19.125Z" fill="#3D52D5"/>
</svg>
