<svg width="48" height="48" viewBox="0 0 48 48" fill="none" xmlns="http://www.w3.org/2000/svg">
<circle cx="24" cy="24" r="24" fill="#E8EFFF"/>
<path fill-rule="evenodd" clip-rule="evenodd" d="M15.84 19.8H12V32.4C12 34.3883 13.6118 36 15.6 36H24.4709C22.0315 34.5301 20.4 31.8556 20.4 28.8C20.4 24.1608 24.1608 20.4 28.8 20.4C29.634 20.4 30.4396 20.5215 31.2 20.7479V15.6C31.2 13.6118 29.5883 12 27.6 12H19.8V15.84C19.8 18.027 18.027 19.8 15.84 19.8ZM18.3515 12.3516C18.4263 12.2768 18.5099 12.2129 18.6 12.1609V15.8401C18.6 17.3644 17.3643 18.6001 15.84 18.6001H12.1608C12.2128 18.51 12.2767 18.4264 12.3515 18.3516L18.3515 12.3516ZM28.8 21.5998C24.8236 21.5998 21.6 24.8233 21.6 28.7998C21.6 32.7762 24.8236 35.9998 28.8 35.9998C32.7764 35.9998 36 32.7762 36 28.7998C36 24.8233 32.7764 21.5998 28.8 21.5998ZM31.2 29.9998C31.8628 29.9998 32.4 29.4625 32.4 28.7998C32.4 28.137 31.8628 27.5998 31.2 27.5998H30V26.3998C30 25.737 29.4628 25.1998 28.8 25.1998C28.1372 25.1998 27.6 25.737 27.6 26.3998V27.5998H26.4C25.7372 27.5998 25.2 28.137 25.2 28.7998C25.2 29.4625 25.7372 29.9998 26.4 29.9998H27.6V31.1998C27.6 31.8625 28.1372 32.3998 28.8 32.3998C29.4628 32.3998 30 31.8625 30 31.1998V29.9998H31.2Z" fill="#3D52D5"/>
</svg>
