<svg width="48" height="48" viewBox="0 0 48 48" fill="none" xmlns="http://www.w3.org/2000/svg">
<circle cx="24" cy="24" r="24" fill="#E8EFFF"/>
<path d="M32.9506 34.3944C32.919 34.0978 32.7708 33.8258 32.5388 33.6384C32.3067 33.451 32.0097 33.3634 31.713 33.3949C31.4227 33.4262 31.13 33.4549 30.835 33.4812C30.9288 32.8399 31.1266 31.1124 31.1777 29.9156C31.1964 29.4779 31.124 29.0411 30.965 28.6328C30.806 28.2246 30.564 27.8538 30.2542 27.544L27.8113 25.1016C27.6666 24.957 27.5517 24.7853 27.4734 24.5962C27.3951 24.4072 27.3547 24.2046 27.3547 24C27.3547 23.7954 27.3951 23.5928 27.4734 23.4037C27.5517 23.2147 27.6666 23.043 27.8113 22.8983L30.2542 20.4555C30.564 20.1457 30.8061 19.775 30.965 19.3667C31.124 18.9585 31.1964 18.5216 31.1777 18.0839C31.1266 16.888 30.9278 15.1624 30.8355 14.5211C31.1242 14.5474 31.4105 14.5757 31.6943 14.606C31.7343 14.6102 31.7745 14.6124 31.8148 14.6125C32.1049 14.6155 32.3849 14.5064 32.5965 14.3078C32.808 14.1092 32.9346 13.8366 32.9499 13.5469C32.9652 13.2572 32.868 12.9727 32.6786 12.753C32.4892 12.5332 32.2222 12.3951 31.9334 12.3675C29.6279 12.1224 27.1869 12 24.4698 12C21.7527 12 19.3132 12.1224 17.0081 12.3675C16.7214 12.3975 16.4571 12.5364 16.2698 12.7556C16.0825 12.9748 15.9864 13.2575 16.0015 13.5454C16.0166 13.8334 16.1417 14.1045 16.3509 14.3029C16.5601 14.5013 16.8375 14.6118 17.1258 14.6116C17.1662 14.6115 17.2066 14.6093 17.2468 14.605C17.5305 14.5738 17.8168 14.5455 18.1056 14.5202C18.0118 15.1629 17.8145 16.8885 17.7629 18.083C17.7442 18.5207 17.8167 18.9576 17.9758 19.3658C18.1349 19.7741 18.377 20.1448 18.6869 20.4546L21.1297 22.8974C21.4218 23.1896 21.5859 23.5859 21.5859 23.9991C21.5859 24.4122 21.4218 24.8085 21.1297 25.1007L18.6869 27.5431C18.377 27.8528 18.1349 28.2236 17.9758 28.6318C17.8168 29.0401 17.7443 29.4769 17.7629 29.9147C17.814 31.1096 18.0123 32.8329 18.1051 33.4774C17.8238 33.4518 17.5438 33.4242 17.265 33.3945C16.9683 33.3628 16.6711 33.4502 16.4388 33.6377C16.2065 33.8251 16.0582 34.0971 16.0265 34.3939C15.9948 34.6907 16.0823 34.9879 16.2697 35.2202C16.4572 35.4524 16.7292 35.6007 17.026 35.6325C19.33 35.8776 21.7705 35.9981 24.489 36C27.2075 36.0019 29.6457 35.8776 31.9507 35.6325C32.0977 35.6168 32.2401 35.5724 32.3699 35.5018C32.4997 35.4311 32.6143 35.3355 32.7072 35.2206C32.8 35.1056 32.8693 34.9735 32.9111 34.8317C32.9529 34.6899 32.9663 34.5413 32.9506 34.3944ZM20.2137 33.6331C20.1361 33.6286 20.0621 33.5986 20.0034 33.5478C19.9446 33.4969 19.9043 33.428 19.8888 33.3518C19.8368 33.0635 19.5991 31.1359 19.5438 29.8411C19.5357 29.6498 19.5674 29.459 19.6369 29.2807C19.7064 29.1024 19.8121 28.9404 19.9474 28.805L22.3903 26.3627C23.0155 25.736 23.3666 24.8869 23.3666 24.0016C23.3666 23.1164 23.0155 22.2673 22.3903 21.6406L19.9465 19.1963C19.8112 19.0611 19.7055 18.8992 19.636 18.7209C19.5665 18.5427 19.5348 18.3519 19.5429 18.1608C19.5982 16.8651 19.8359 14.9365 19.8879 14.6496C19.9036 14.5734 19.9441 14.5046 20.0029 14.4538C20.0617 14.4029 20.1356 14.3729 20.2132 14.3683C21.5605 14.2924 22.9706 14.2539 24.4698 14.253C25.969 14.252 27.38 14.2924 28.7278 14.3688C28.8054 14.3732 28.8794 14.4032 28.9381 14.4541C28.9969 14.505 29.0372 14.5739 29.0527 14.65C29.1047 14.9384 29.3424 16.866 29.3977 18.1608C29.4055 18.3519 29.3737 18.5426 29.3043 18.7208C29.2348 18.899 29.1292 19.0609 28.9941 19.1963L26.5826 21.6101C25.9442 22.2411 25.5814 23.0991 25.5738 23.9967C25.5719 24.4363 25.6573 24.8718 25.8252 25.2781C25.9931 25.6843 26.24 26.0532 26.5517 26.3631L28.9945 28.8055C29.1297 28.941 29.2353 29.103 29.3047 29.2813C29.3742 29.4596 29.406 29.6503 29.3982 29.8415C29.3428 31.1368 29.1047 33.0654 29.0531 33.3523C29.0375 33.4285 28.9972 33.4974 28.9383 33.5483C28.8795 33.5991 28.8055 33.6291 28.7278 33.6335C27.3861 33.7109 25.9798 33.7489 24.4895 33.7517C22.9828 33.7489 21.5662 33.71 20.2137 33.6331Z" fill="#3D52D5"/>
<path d="M25.9641 26.9582L28.4065 29.4006C28.4593 29.4532 28.5006 29.5162 28.5277 29.5856C28.5548 29.655 28.5672 29.7293 28.564 29.8037C28.5279 30.6537 28.4098 31.7933 28.3226 32.5227C28.3127 32.6049 28.2741 32.6809 28.2135 32.7373C28.1529 32.7936 28.0743 32.8267 27.9916 32.8307C26.8769 32.8818 25.7255 32.9071 24.4992 32.908C23.2574 32.908 22.0929 32.8813 20.9674 32.8288C20.8842 32.8252 20.805 32.792 20.7442 32.7352C20.6833 32.6784 20.6448 32.6017 20.6355 32.519C20.5483 31.7909 20.4301 30.6522 20.394 29.8037C20.3909 29.7293 20.4033 29.6551 20.4303 29.5857C20.4573 29.5163 20.4984 29.4533 20.5511 29.4006L22.9939 26.9582L23.796 26.1613C23.9774 25.981 24.2228 25.8799 24.4786 25.8799C24.7343 25.8799 24.9797 25.981 25.1611 26.1613L25.9641 26.9582Z" fill="#3D52D5"/>
</svg>
