<svg width="48" height="48" viewBox="0 0 48 48" fill="none" xmlns="http://www.w3.org/2000/svg">
<circle cx="24" cy="24" r="24" fill="#E8EFFF"/>
<path d="M18.2592 13.0001C18.2528 13 18.2464 13 18.2401 13V13.0005C17.443 13.0208 16.4483 13.6769 16.4483 14.4832L16.4421 25.8074C15.8188 25.8074 15.3854 25.8094 14.5349 25.8115C13.6422 25.8137 12.6807 25.8161 11.769 25.8166C11.258 25.8168 10.9762 26.4022 11.3008 26.7991C12.1058 27.7832 13.5105 29.2062 14.9207 30.6347C15.821 31.5467 16.6893 32.4683 17.4446 33.2709C17.9059 33.761 18.6721 33.7842 19.1408 33.3013C19.6538 32.7729 20.4105 31.9661 21.6001 30.6538C23.0064 29.2188 24.4091 27.7875 25.2174 26.7991C25.5421 26.4022 25.2603 25.8168 24.7493 25.8166C23.8376 25.8161 22.8761 25.8137 21.9833 25.8115C21.1328 25.8094 20.6995 25.8074 20.0762 25.8074L20.07 14.4832C20.07 13.6769 19.0752 13.0208 18.2782 13.0005V13C18.2718 13 18.2655 13 18.2592 13.0001Z" fill="#3D52D5"/>
<path d="M32.5698 22.2441L32.1597 20.3554H29.7258L29.3157 22.2441H26.7759L29.5009 13H32.4375L35.1625 22.2441H32.5698ZM30.1094 18.5997H31.7761L30.9428 14.7557L30.1094 18.5997Z" fill="#3D52D5"/>
<path d="M34.2753 24.3413V26.1902L30.4524 31.6435H34.3812L34.1298 33.5855H27.5555V31.7632L31.4842 26.23H27.9391V24.3413H34.2753Z" fill="#3D52D5"/>
</svg>
