<svg width="33" height="32" viewBox="0 0 33 32" fill="none" xmlns="http://www.w3.org/2000/svg">
<path fill-rule="evenodd" clip-rule="evenodd" d="M8.5 4C7.43913 4 6.42172 4.42143 5.67157 5.17157C4.92143 5.92172 4.5 6.93913 4.5 8V24C4.5 25.0609 4.92143 26.0783 5.67157 26.8284C6.42172 27.5786 7.43913 28 8.5 28H24.5C25.5609 28 26.5783 27.5786 27.3284 26.8284C28.0786 26.0783 28.5 25.0609 28.5 24V8C28.5 6.93913 28.0786 5.92172 27.3284 5.17157C26.5783 4.42143 25.5609 4 24.5 4H8.5ZM13.8333 10.6667C13.8333 10.313 13.9738 9.97391 14.2239 9.72386C14.4739 9.47381 14.813 9.33333 15.1667 9.33333H23.1667C23.5203 9.33333 23.8594 9.47381 24.1095 9.72386C24.3595 9.97391 24.5 10.313 24.5 10.6667C24.5 11.0203 24.3595 11.3594 24.1095 11.6095C23.8594 11.8595 23.5203 12 23.1667 12H15.1667C14.813 12 14.4739 11.8595 14.2239 11.6095C13.9738 11.3594 13.8333 11.0203 13.8333 10.6667ZM13.8333 16C13.8333 15.6464 13.9738 15.3072 14.2239 15.0572C14.4739 14.8071 14.813 14.6667 15.1667 14.6667H23.1667C23.5203 14.6667 23.8594 14.8071 24.1095 15.0572C24.3595 15.3072 24.5 15.6464 24.5 16C24.5 16.3536 24.3595 16.6928 24.1095 16.9428C23.8594 17.1929 23.5203 17.3333 23.1667 17.3333H15.1667C14.813 17.3333 14.4739 17.1929 14.2239 16.9428C13.9738 16.6928 13.8333 16.3536 13.8333 16ZM13.8333 21.3333C13.8333 20.9797 13.9738 20.6406 14.2239 20.3905C14.4739 20.1405 14.813 20 15.1667 20H23.1667C23.5203 20 23.8594 20.1405 24.1095 20.3905C24.3595 20.6406 24.5 20.9797 24.5 21.3333C24.5 21.687 24.3595 22.0261 24.1095 22.2761C23.8594 22.5262 23.5203 22.6667 23.1667 22.6667H15.1667C14.813 22.6667 14.4739 22.5262 14.2239 22.2761C13.9738 22.0261 13.8333 21.687 13.8333 21.3333ZM9.83333 9.33333C9.47971 9.33333 9.14057 9.47381 8.89052 9.72386C8.64048 9.97391 8.5 10.313 8.5 10.6667C8.5 11.0203 8.64048 11.3594 8.89052 11.6095C9.14057 11.8595 9.47971 12 9.83333 12C10.187 12 10.5274 11.8595 10.7775 11.6095C11.0275 11.3594 11.168 11.0203 11.168 10.6667C11.168 10.313 11.0275 9.97391 10.7775 9.72386C10.5274 9.47381 10.187 9.33333 9.83333 9.33333ZM8.5 16C8.5 15.6464 8.64048 15.3072 8.89052 15.0572C9.14057 14.8071 9.47971 14.6667 9.83333 14.6667C10.187 14.6667 10.5274 14.8071 10.7775 15.0572C11.0275 15.3072 11.168 15.6464 11.168 16C11.168 16.3536 11.0275 16.6928 10.7775 16.9428C10.5274 17.1929 10.1883 17.3333 9.83467 17.3333C9.48104 17.3333 9.14057 17.1929 8.89052 16.9428C8.64048 16.6928 8.5 16.3536 8.5 16ZM9.83333 20C9.47971 20 9.14057 20.1405 8.89052 20.3905C8.64048 20.6406 8.5 20.9797 8.5 21.3333C8.5 21.687 8.64048 22.0261 8.89052 22.2761C9.14057 22.5262 9.47971 22.6667 9.83333 22.6667C10.187 22.6667 10.5274 22.5262 10.7775 22.2761C11.0275 22.0261 11.168 21.687 11.168 21.3333C11.168 20.9797 11.0275 20.6406 10.7775 20.3905C10.5274 20.1405 10.187 20 9.83333 20Z" fill="#3D52D5"/>
</svg>
