<svg width="33" height="32" viewBox="0 0 33 32" fill="none" xmlns="http://www.w3.org/2000/svg">
<path d="M10.8333 3.33325C10.8333 3.06804 10.7279 2.81368 10.5404 2.62615C10.3529 2.43861 10.0985 2.33325 9.83331 2.33325C9.56809 2.33325 9.31374 2.43861 9.1262 2.62615C8.93866 2.81368 8.83331 3.06804 8.83331 3.33325V5.43992C6.91331 5.59325 5.65464 5.96925 4.72931 6.89592C3.80264 7.82125 3.42664 9.08125 3.27197 10.9999H29.728C29.5733 9.07992 29.1973 7.82125 28.2706 6.89592C27.3453 5.96925 26.0853 5.59325 24.1666 5.43859V3.33325C24.1666 3.06804 24.0613 2.81368 23.8737 2.62615C23.6862 2.43861 23.4319 2.33325 23.1666 2.33325C22.9014 2.33325 22.6471 2.43861 22.4595 2.62615C22.272 2.81368 22.1666 3.06804 22.1666 3.33325V5.35059C21.28 5.33325 20.2853 5.33325 19.1666 5.33325H13.8333C12.7146 5.33325 11.72 5.33325 10.8333 5.35059V3.33325Z" fill="#3D52D5"/>
<path fill-rule="evenodd" clip-rule="evenodd" d="M29.8334 16V18.6667C29.8334 23.6947 29.8334 26.2093 28.2707 27.7707C26.7094 29.3333 24.1947 29.3333 19.1667 29.3333H13.8334C8.80535 29.3333 6.29069 29.3333 4.72935 27.7707C3.16669 26.2093 3.16669 23.6947 3.16669 18.6667V16C3.16669 14.8813 3.16669 13.8867 3.18402 13H29.816C29.8334 13.8867 29.8334 14.8813 29.8334 16ZM21.8334 17.6667C22.0986 17.6667 22.3529 17.772 22.5405 17.9596C22.728 18.1471 22.8334 18.4015 22.8334 18.6667V20.3333H24.5C24.7652 20.3333 25.0196 20.4387 25.2071 20.6262C25.3947 20.8138 25.5 21.0681 25.5 21.3333C25.5 21.5985 25.3947 21.8529 25.2071 22.0404C25.0196 22.228 24.7652 22.3333 24.5 22.3333H22.8334V24C22.8334 24.2652 22.728 24.5196 22.5405 24.7071C22.3529 24.8946 22.0986 25 21.8334 25C21.5681 25 21.3138 24.8946 21.1262 24.7071C20.9387 24.5196 20.8334 24.2652 20.8334 24V22.3333H19.1667C18.9015 22.3333 18.6471 22.228 18.4596 22.0404C18.272 21.8529 18.1667 21.5985 18.1667 21.3333C18.1667 21.0681 18.272 20.8138 18.4596 20.6262C18.6471 20.4387 18.9015 20.3333 19.1667 20.3333H20.8334V18.6667C20.8334 18.4015 20.9387 18.1471 21.1262 17.9596C21.3138 17.772 21.5681 17.6667 21.8334 17.6667Z" fill="#3D52D5"/>
</svg>
