<svg width="48" height="48" viewBox="0 0 48 48" fill="none" xmlns="http://www.w3.org/2000/svg">
<circle cx="24" cy="24" r="24" fill="#E8EFFF"/>
<path d="M32.9506 13.6056C32.919 13.9022 32.7708 14.1742 32.5388 14.3616C32.3067 14.549 32.0097 14.6366 31.713 14.6051C31.4227 14.5738 31.13 14.5451 30.835 14.5188C30.9288 15.1601 31.1266 16.8876 31.1777 18.0844C31.1964 18.5221 31.124 18.9589 30.965 19.3672C30.806 19.7754 30.564 20.1462 30.2542 20.456L27.8113 22.8984C27.6666 23.043 27.5517 23.2147 27.4734 23.4038C27.3951 23.5928 27.3547 23.7954 27.3547 24C27.3547 24.2046 27.3951 24.4072 27.4734 24.5963C27.5517 24.7853 27.6666 24.957 27.8113 25.1017L30.2542 27.5445C30.564 27.8543 30.8061 28.225 30.965 28.6333C31.124 29.0415 31.1964 29.4784 31.1777 29.9161C31.1266 31.112 30.9278 32.8376 30.8355 33.4789C31.1242 33.4526 31.4105 33.4243 31.6943 33.394C31.7343 33.3898 31.7745 33.3876 31.8148 33.3875C32.1049 33.3845 32.3849 33.4936 32.5965 33.6922C32.808 33.8908 32.9346 34.1634 32.9499 34.4531C32.9652 34.7428 32.868 35.0273 32.6786 35.247C32.4892 35.4668 32.2222 35.6049 31.9334 35.6325C29.6279 35.8776 27.1869 36 24.4698 36C21.7527 36 19.3132 35.8776 17.0081 35.6325C16.7214 35.6025 16.4571 35.4636 16.2698 35.2444C16.0825 35.0252 15.9864 34.7425 16.0015 34.4546C16.0166 34.1666 16.1417 33.8955 16.3509 33.6971C16.5601 33.4987 16.8375 33.3882 17.1258 33.3884C17.1662 33.3885 17.2066 33.3907 17.2468 33.395C17.5305 33.4262 17.8168 33.4545 18.1056 33.4798C18.0118 32.8371 17.8145 31.1115 17.7629 29.917C17.7442 29.4793 17.8167 29.0424 17.9758 28.6342C18.1349 28.2259 18.377 27.8552 18.6869 27.5454L21.1297 25.1026C21.4218 24.8104 21.5859 24.4141 21.5859 24.0009C21.5859 23.5878 21.4218 23.1915 21.1297 22.8993L18.6869 20.4569C18.377 20.1472 18.1349 19.7764 17.9758 19.3682C17.8168 18.9599 17.7443 18.5231 17.7629 18.0853C17.814 16.8904 18.0123 15.1671 18.1051 14.5226C17.8238 14.5482 17.5438 14.5758 17.265 14.6055C16.9683 14.6372 16.6711 14.5498 16.4388 14.3623C16.2065 14.1749 16.0582 13.9029 16.0265 13.6061C15.9948 13.3093 16.0823 13.0121 16.2697 12.7798C16.4572 12.5476 16.7292 12.3993 17.026 12.3675C19.33 12.1224 21.7705 12.0019 24.489 12C27.2075 11.9981 29.6457 12.1224 31.9507 12.3675C32.0977 12.3832 32.2401 12.4276 32.3699 12.4982C32.4997 12.5689 32.6143 12.6645 32.7072 12.7794C32.8 12.8944 32.8693 13.0265 32.9111 13.1683C32.9529 13.3101 32.9663 13.4587 32.9506 13.6056ZM20.2137 14.3669C20.1361 14.3714 20.0621 14.4014 20.0034 14.4522C19.9446 14.5031 19.9043 14.572 19.8888 14.6482C19.8368 14.9365 19.5991 16.8641 19.5438 18.1589C19.5357 18.3502 19.5674 18.541 19.6369 18.7193C19.7064 18.8976 19.8121 19.0596 19.9474 19.195L22.3903 21.6373C23.0155 22.264 23.3666 23.1131 23.3666 23.9984C23.3666 24.8836 23.0155 25.7327 22.3903 26.3594L19.9465 28.8037C19.8112 28.9389 19.7055 29.1008 19.636 29.2791C19.5665 29.4573 19.5348 29.6481 19.5429 29.8392C19.5982 31.1349 19.8359 33.0635 19.8879 33.3504C19.9036 33.4266 19.9441 33.4954 20.0029 33.5462C20.0617 33.5971 20.1356 33.6271 20.2132 33.6317C21.5605 33.7076 22.9706 33.7461 24.4698 33.747C25.969 33.748 27.38 33.7076 28.7278 33.6312C28.8054 33.6268 28.8794 33.5968 28.9381 33.5459C28.9969 33.495 29.0372 33.4261 29.0527 33.35C29.1047 33.0616 29.3424 31.134 29.3977 29.8392C29.4055 29.6481 29.3737 29.4574 29.3043 29.2792C29.2348 29.101 29.1292 28.9391 28.9941 28.8037L26.5826 26.3899C25.9442 25.7589 25.5814 24.9009 25.5738 24.0033C25.5719 23.5637 25.6573 23.1282 25.8252 22.7219C25.9931 22.3157 26.24 21.9468 26.5517 21.6369L28.9945 19.1945C29.1297 19.059 29.2353 18.897 29.3047 18.7187C29.3742 18.5404 29.406 18.3497 29.3982 18.1585C29.3428 16.8632 29.1047 14.9346 29.0531 14.6477C29.0375 14.5715 28.9972 14.5026 28.9383 14.4517C28.8795 14.4009 28.8055 14.3709 28.7278 14.3665C27.3861 14.2891 25.9798 14.2511 24.4895 14.2483C22.9828 14.2511 21.5662 14.29 20.2137 14.3669Z" fill="#3D52D5"/>
<path d="M25.9641 21.0418L28.4065 18.5994C28.4593 18.5468 28.5006 18.4838 28.5277 18.4144C28.5548 18.345 28.5672 18.2707 28.564 18.1963C28.5279 17.3463 28.4098 16.2067 28.3226 15.4773C28.3127 15.3951 28.2741 15.3191 28.2135 15.2627C28.1529 15.2064 28.0743 15.1733 27.9916 15.1693C26.8769 15.1182 25.7255 15.0929 24.4992 15.092C23.2574 15.092 22.0929 15.1187 20.9674 15.1712C20.8842 15.1748 20.805 15.208 20.7442 15.2648C20.6833 15.3216 20.6448 15.3983 20.6355 15.481C20.5483 16.2091 20.4301 17.3478 20.394 18.1963C20.3909 18.2707 20.4033 18.3449 20.4303 18.4143C20.4573 18.4837 20.4984 18.5467 20.5511 18.5994L22.9939 21.0418L23.796 21.8387C23.9774 22.019 24.2228 22.1201 24.4786 22.1201C24.7343 22.1201 24.9797 22.019 25.1611 21.8387L25.9641 21.0418Z" fill="#3D52D5"/>
</svg>
