<svg width="49" height="48" viewBox="0 0 49 48" fill="none" xmlns="http://www.w3.org/2000/svg">
<circle cx="24.8333" cy="24" r="24" fill="#E8EFFF"/>
<path d="M29.2333 13H20.4333C16.0333 13 13.8333 15.2 13.8333 19.6V33.9C13.8333 34.505 14.3283 35 14.9333 35H29.2333C33.6333 35 35.8333 32.8 35.8333 28.4V19.6C35.8333 15.2 33.6333 13 29.2333 13ZM23.8543 29.126C23.5793 29.401 23.0733 29.654 22.6993 29.709L20.4113 30.028C20.3233 30.039 20.2353 30.05 20.1583 30.05C19.7733 30.05 19.4213 29.918 19.1683 29.665C18.8603 29.357 18.7283 28.906 18.8053 28.422L19.1243 26.134C19.1793 25.76 19.4323 25.243 19.7073 24.979L23.8543 20.832C23.9203 21.03 24.0083 21.228 24.1073 21.448C24.2063 21.646 24.3053 21.844 24.4153 22.031C24.5033 22.185 24.6023 22.339 24.6903 22.449C24.8003 22.614 24.9103 22.757 24.9873 22.834C25.0313 22.9 25.0753 22.944 25.0863 22.966C25.3283 23.241 25.5813 23.505 25.8233 23.703C25.8893 23.769 25.9333 23.802 25.9443 23.813C26.0873 23.923 26.2193 24.044 26.3513 24.121C26.4943 24.231 26.6483 24.33 26.8023 24.418C26.9893 24.528 27.1873 24.638 27.3963 24.737C27.6053 24.836 27.8033 24.913 28.0013 24.979L23.8543 29.126ZM29.8383 23.153L28.9803 24.011C28.9253 24.066 28.8483 24.099 28.7713 24.099C28.7493 24.099 28.7053 24.099 28.6833 24.088C26.7913 23.549 25.2843 22.042 24.7453 20.15C24.7123 20.051 24.7453 19.941 24.8223 19.864L25.6913 18.995C27.1103 17.576 28.4523 17.609 29.8383 18.995C30.5423 19.699 30.8943 20.381 30.8833 21.085C30.8833 21.778 30.5423 22.449 29.8383 23.153Z" fill="#3D52D5"/>
</svg>
