<svg width="48" height="48" viewBox="0 0 48 48" fill="none" xmlns="http://www.w3.org/2000/svg">
<circle cx="24" cy="24" r="24" fill="#E8EFFF"/>
<path d="M25.7324 12.2041C25.1504 12.2041 24.6783 12.6765 24.6783 13.2591C24.6783 13.8417 25.1506 14.3141 25.7324 14.3141C31.1851 14.3141 35.6217 18.7507 35.6217 24.2042C35.6217 29.6575 31.1851 34.0941 25.7324 34.0941C20.7285 34.0941 16.5832 30.3566 15.9345 25.5269L16.6728 26.2656C16.8789 26.4717 17.1487 26.5743 17.4188 26.5743C17.6888 26.5743 17.9586 26.4717 18.1647 26.2656C18.5766 25.8534 18.5766 25.1855 18.1647 24.7733L15.5341 22.1426C15.1222 21.7307 14.454 21.7307 14.0421 22.1426L11.4115 24.7733C10.9996 25.1852 10.9996 25.8531 11.4115 26.2656C11.8234 26.6772 12.4915 26.6772 12.9037 26.2656L13.7918 25.3775C14.3836 31.4452 19.5128 36.2041 25.7327 36.2041C32.3488 36.2041 37.7322 30.8207 37.7322 24.2042C37.7319 17.5875 32.3488 12.2041 25.7324 12.2041Z" fill="#3D52D5"/>
<path d="M21.7585 30.0445C21.4722 30.0445 21.1862 29.9357 20.9677 29.7172C20.5311 29.2805 20.5308 28.5723 20.9674 28.1356L24.4632 24.6387V17.5705C24.4632 16.9528 24.9638 16.4521 25.581 16.4521C26.1984 16.4521 26.6985 16.9528 26.6985 17.5705V25.1013C26.6985 25.3979 26.5811 25.6822 26.3715 25.8921L22.5493 29.7169C22.3311 29.9351 22.0448 30.0445 21.7585 30.0445Z" fill="#3D52D5"/>
<path d="M33.7001 24.8922H32.5425C32.1353 24.8922 31.8054 24.5623 31.8054 24.1551C31.8054 23.7479 32.1353 23.418 32.5425 23.418H33.7001C34.1073 23.418 34.4372 23.7479 34.4372 24.1551C34.4372 24.5623 34.107 24.8922 33.7001 24.8922Z" fill="#3D52D5"/>
<path d="M30.9502 30.6708C30.7615 30.6708 30.5731 30.5988 30.4289 30.4549L29.6104 29.6364C29.3223 29.3483 29.3223 28.8819 29.6104 28.5941C29.8985 28.3063 30.3649 28.306 30.6527 28.5941L31.4712 29.4126C31.7593 29.7007 31.7593 30.1671 31.4712 30.4549C31.3276 30.5988 31.1389 30.6708 30.9502 30.6708Z" fill="#3D52D5"/>
<path d="M25.1719 33.0648C24.7648 33.0648 24.4348 32.7348 24.4348 32.3276V31.1697C24.4348 30.7626 24.7648 30.4326 25.1719 30.4326C25.5791 30.4326 25.9091 30.7626 25.9091 31.1697V32.3276C25.9091 32.7348 25.5791 33.0648 25.1719 33.0648Z" fill="#3D52D5"/>
<path d="M30.1327 19.932C29.944 19.932 29.7556 19.8601 29.6114 19.7162C29.3233 19.4281 29.3233 18.9617 29.6114 18.6736L30.4296 17.8551C30.7171 17.567 31.1841 17.5673 31.4719 17.8551C31.76 18.1432 31.76 18.6096 31.4719 18.8977L30.6537 19.7162C30.5101 19.8601 30.3214 19.932 30.1327 19.932Z" fill="#3D52D5"/>
</svg>
